<?xml version="1.0" encoding="UTF-8" standalone="no"?>
<!-- Created with Inkscape (http://www.inkscape.org/) -->

<svg
   width="80mm"
   height="70mm"
   viewBox="0 0 80 70"
   version="1.1"
   id="svg22517"
   inkscape:version="1.1 (c68e22c387, 2021-05-23)"
   sodipodi:docname="ac-capacitor-fase.svg"
   xmlns:inkscape="http://www.inkscape.org/namespaces/inkscape"
   xmlns:sodipodi="http://sodipodi.sourceforge.net/DTD/sodipodi-0.dtd"
   xmlns="http://www.w3.org/2000/svg"
   xmlns:svg="http://www.w3.org/2000/svg">
  <sodipodi:namedview
     id="namedview22519"
     pagecolor="#ffffff"
     bordercolor="#666666"
     borderopacity="1.0"
     inkscape:pageshadow="2"
     inkscape:pageopacity="0.0"
     inkscape:pagecheckerboard="0"
     inkscape:document-units="mm"
     showgrid="false"
     inkscape:zoom="0.94867185"
     inkscape:cx="101.72116"
     inkscape:cy="154.42642"
     inkscape:window-width="1366"
     inkscape:window-height="705"
     inkscape:window-x="-8"
     inkscape:window-y="-8"
     inkscape:window-maximized="1"
     inkscape:current-layer="layer1" />
  <defs
     id="defs22514" />
  <g
     inkscape:label="Layer 1"
     inkscape:groupmode="layer"
     id="layer1">
    <path
       inkscape:connector-curvature="0"
       id="path7816-3-17-7"
       d="M 23.67074,2.0677301 V 67.93227"
       style="fill:none;stroke:#000000;stroke-width:0.199999;stroke-linecap:round;stroke-linejoin:round;stroke-miterlimit:4;stroke-dasharray:none;stroke-opacity:1"
       inkscape:export-filename="C:\Backup\Academic\My Notes\Super Apunte EyM\PNG\PhaseC.png"
       inkscape:export-xdpi="300"
       inkscape:export-ydpi="300" />
    <path
       inkscape:connector-curvature="0"
       id="path1188"
       d="M 34.76502,2.0677301 V 67.93227"
       style="fill:none;stroke:#000000;stroke-width:0.199999;stroke-linecap:round;stroke-linejoin:round;stroke-miterlimit:4;stroke-dasharray:1.19999, 1.19999;stroke-dashoffset:0;stroke-opacity:1"
       inkscape:export-filename="C:\Backup\Academic\My Notes\Super Apunte EyM\PNG\PhaseC.png"
       inkscape:export-xdpi="300"
       inkscape:export-ydpi="300" />
    <path
       inkscape:connector-curvature="0"
       id="path1190"
       d="M 45.8593,2.0677301 V 67.93227"
       style="fill:none;stroke:#000000;stroke-width:0.2;stroke-linecap:round;stroke-linejoin:round;stroke-miterlimit:4;stroke-dasharray:1.2, 1.2;stroke-dashoffset:0;stroke-opacity:1"
       inkscape:export-filename="C:\Backup\Academic\My Notes\Super Apunte EyM\PNG\PhaseC.png"
       inkscape:export-xdpi="300"
       inkscape:export-ydpi="300" />
    <path
       inkscape:connector-curvature="0"
       id="path1192"
       d="M 29.21788,2.0677301 V 67.93227"
       style="fill:none;stroke:#000000;stroke-width:0.199999;stroke-linecap:round;stroke-linejoin:round;stroke-miterlimit:4;stroke-dasharray:1.19999, 1.19999;stroke-dashoffset:0;stroke-opacity:1"
       inkscape:export-filename="C:\Backup\Academic\My Notes\Super Apunte EyM\PNG\PhaseC.png"
       inkscape:export-xdpi="300"
       inkscape:export-ydpi="300" />
    <path
       inkscape:connector-curvature="0"
       id="path1194"
       d="M 40.31216,2.0677301 V 67.93227"
       style="fill:none;stroke:#000000;stroke-width:0.199999;stroke-linecap:round;stroke-linejoin:round;stroke-miterlimit:4;stroke-dasharray:1.19999, 1.19999;stroke-dashoffset:0;stroke-opacity:1"
       inkscape:export-filename="C:\Backup\Academic\My Notes\Super Apunte EyM\PNG\PhaseC.png"
       inkscape:export-xdpi="300"
       inkscape:export-ydpi="300" />
    <path
       inkscape:connector-curvature="0"
       id="path1153-4"
       d="m 4.443951,19.09307 h 71.1121"
       style="fill:none;stroke:#000000;stroke-width:0.193888;stroke-linecap:round;stroke-linejoin:round;stroke-miterlimit:4;stroke-dasharray:none;stroke-opacity:1"
       inkscape:export-filename="C:\Backup\Academic\My Notes\Super Apunte EyM\PNG\Phase.png"
       inkscape:export-xdpi="300"
       inkscape:export-ydpi="300" />
    <path
       style="fill:none;fill-opacity:1;fill-rule:evenodd;stroke:#000000;stroke-width:0.3;stroke-linecap:round;stroke-linejoin:round;stroke-miterlimit:4;stroke-dasharray:1.8, 1.8;stroke-dashoffset:0;stroke-opacity:1;paint-order:stroke fill markers"
       d="m 12.60768,19.09307 c 0.43548,-0.42699 0.87092,-0.85273 1.30639,-1.27087 0.43541,-0.418 0.87089,-0.82844 1.30635,-1.22403 0.43547,-0.3955 0.8709,-0.77639 1.30637,-1.13608 0.43544,-0.35949 0.8709,-0.69829 1.30635,-1.01009 0.43547,-0.312 0.87092,-0.59669 1.30637,-0.85009 0.43544,-0.25349 0.87089,-0.47498 1.30637,-0.66163 0.43546,-0.1865 0.8709,-0.3375 1.30635,-0.45099 0.43546,-0.1135 0.87091,-0.189 1.30638,-0.22501 0.43545,-0.035 0.8709,-0.035 1.30634,0.01 0.43548,0.04 0.87091,0.12249 1.30638,0.24099 0.43544,0.1185 0.8709,0.27499 1.30637,0.46599 0.43546,0.1915 0.87089,0.41799 1.30637,0.67549 0.43543,0.2575 0.870891,0.54674 1.30634,0.86214 0.43544,0.31549 0.87092,0.65734 1.30635,1.01993 0.43546,0.36249 0.87091,0.74584 1.30638,1.14342 0.43547,0.39751 0.87095,0.8094 1.30638,1.22859 0.43546,0.41899 0.8709,0.84578 1.30635,1.27258 0.43545,0.42699 0.87091,0.85378 1.30635,1.27383 0.43547,0.41999 0.87091,0.83313 1.30639,1.23237 0.43545,0.3995 0.87089,0.78454 1.30637,1.14957 0.43546,0.365 0.8709,0.7096 1.30635,1.02819 0.43546,0.3185 0.870911,0.6109 1.30636,0.87229 0.43544,0.2615 0.87091,0.49148 1.30635,0.68719 0.43546,0.19549 0.8709,0.35599 1.306371,0.47898 0.43544,0.123 0.87093,0.20851 1.306359,0.25501 0.43548,0.0451 0.87092,0.0535 1.30639,0.0199 0.43544,-0.03 0.87092,-0.10299 1.306351,-0.21149 0.43545,-0.10901 0.87089,-0.256 1.306339,-0.43799 0.435471,-0.18251 0.870891,-0.4 1.306371,-0.64974 0.43547,-0.2495 0.87093,-0.5312 1.306379,-0.83975 0.43546,-0.30848 0.870891,-0.64433 1.30636,-1.00148 0.43545,-0.35699 0.87092,-0.73588 1.30636,-1.12967 0.43545,-0.394 0.87089,-0.80274 1.30635,-1.21998 0.43545,-0.417 0.87093,-0.84269 1.30639,-1.26928 0.0586,-0.0574 0.11722,-0.11483 0.17583,-0.17227"
       id="path1160"
       inkscape:export-filename="C:\Backup\Academic\My Notes\Super Apunte EyM\PNG\Phase.png"
       inkscape:export-xdpi="300"
       inkscape:export-ydpi="300" />
    <path
       style="fill:#000000;fill-opacity:0.2;stroke:#000000;stroke-width:0.3;stroke-linecap:round;stroke-linejoin:round;stroke-miterlimit:4;stroke-dasharray:none;stroke-opacity:1"
       d="M 34.76502,19.09307 H 23.67074 v -6.85391 h 5.54714 l -10e-6,2.01641 h 5.54715 l -0.0413,4.8375 h 11.135601 v 4.96898 h -5.54714 v -4.96898 z"
       id="path1212" />
    <circle
       style="vector-effect:none;fill:#000000;fill-opacity:1;fill-rule:evenodd;stroke:#000000;stroke-width:1;stroke-linecap:butt;stroke-linejoin:miter;stroke-miterlimit:4;stroke-dasharray:none;stroke-dashoffset:0;stroke-opacity:1"
       id="path951-4-0-8-3"
       cx="23.670708"
       cy="12.239133"
       r="0.5"
       inkscape:export-xdpi="300"
       inkscape:export-ydpi="300" />
    <circle
       style="vector-effect:none;fill:#000000;fill-opacity:1;fill-rule:evenodd;stroke:#000000;stroke-width:1;stroke-linecap:butt;stroke-linejoin:miter;stroke-miterlimit:4;stroke-dasharray:none;stroke-dashoffset:0;stroke-opacity:1"
       id="circle1231"
       cx="29.217829"
       cy="14.255552"
       r="0.5"
       inkscape:export-xdpi="300"
       inkscape:export-ydpi="300" />
    <circle
       style="vector-effect:none;fill:#000000;fill-opacity:1;fill-rule:evenodd;stroke:#000000;stroke-width:1;stroke-linecap:butt;stroke-linejoin:miter;stroke-miterlimit:4;stroke-dasharray:none;stroke-dashoffset:0;stroke-opacity:1"
       id="circle1233"
       cx="34.765011"
       cy="19.093077"
       r="0.5"
       inkscape:export-xdpi="300"
       inkscape:export-ydpi="300" />
    <circle
       style="vector-effect:none;fill:#000000;fill-opacity:1;fill-rule:evenodd;stroke:#000000;stroke-width:1;stroke-linecap:butt;stroke-linejoin:miter;stroke-miterlimit:4;stroke-dasharray:none;stroke-dashoffset:0;stroke-opacity:1"
       id="circle1235"
       cx="40.31213"
       cy="24.06201"
       r="0.5"
       inkscape:export-xdpi="300"
       inkscape:export-ydpi="300" />
    <path
       inkscape:connector-curvature="0"
       id="path7818-0-1-7-5"
       d="M 4.44395,50.28134 H 75.556051"
       style="fill:none;stroke:#000000;stroke-width:0.193888;stroke-linecap:round;stroke-linejoin:round;stroke-miterlimit:4;stroke-dasharray:none;stroke-opacity:1"
       inkscape:export-filename="C:\Backup\Academic\My Notes\Super Apunte EyM\PNG\Phase.png"
       inkscape:export-xdpi="300"
       inkscape:export-ydpi="300" />
    <path
       style="fill:none;fill-opacity:1;fill-rule:evenodd;stroke:#000000;stroke-width:0.3;stroke-linecap:round;stroke-linejoin:round;stroke-miterlimit:4;stroke-dasharray:1.8, 1.8;stroke-dashoffset:0;stroke-opacity:1;paint-order:stroke fill markers"
       d="m 23.67074,49.97098 c 0.43547,-1.04371 0.87092,-2.08434 1.30638,-3.10642 0.43541,-1.02171 0.87089,-2.02496 1.30635,-2.99191 0.435481,-0.96671 0.870911,-1.89774 1.306371,-2.77694 0.43545,-0.8787 0.87091,-1.70683 1.30635,-2.46896 0.43548,-0.76262 0.87092,-1.45851 1.30637,-2.07788 0.43545,-0.61962 0.87089,-1.16102 1.30637,-1.61725 0.43546,-0.45585 0.87091,-0.82494 1.30636,-1.10235 0.43546,-0.27744 0.87091,-0.46198 1.30638,-0.54999 0.43544,-0.0856 0.87089,-0.0856 1.30634,0.0245 0.43547,0.0977 0.87091,0.2994 1.30638,0.58906 0.43543,0.28964 0.87089,0.67216 1.30637,1.13902 0.43546,0.46809 0.87089,1.0217 1.30637,1.65111 0.43543,0.62941 0.87089,1.3364 1.30634,2.10732 0.43544,0.77117 0.87092,1.60675 1.30635,2.49304 0.43546,0.88604 0.87091,1.82306 1.30638,2.79488 0.43546,0.97163 0.87094,1.97841 1.30637,3.00304 0.43546,1.02416 0.87091,2.06737 1.30635,3.11059 0.43545,1.04369 0.87091,2.08692 1.30636,3.11363 0.43546,1.0266 0.8709,2.03644 1.30638,3.01232 0.43545,0.97648 0.87089,1.91765 1.30637,2.80991 0.43546,0.89217 0.87091,1.73447 1.30635,2.51321 0.43546,0.7785 0.87091,1.49322 1.30635,2.13214 0.43545,0.6392 0.87093,1.20135 1.30636,1.67971 0.43546,0.47784 0.87091,0.87016 1.30636,1.17079 0.43545,0.30065 0.87094,0.50966 1.30637,0.62331 0.43548,0.11011 0.87093,0.13076 1.30638,0.0487 0.43545,-0.0733 0.87093,-0.25175 1.30636,-0.51695 0.43544,-0.26644 0.87089,-0.62575 1.30634,-1.07059 0.43547,-0.4461 0.87089,-0.97772 1.30636,-1.58817 0.43548,-0.60985 0.87094,-1.29841 1.3064,-2.0526 0.43546,-0.75403 0.87089,-1.57495 1.30636,-2.44793 0.43545,-0.8726 0.87091,-1.79872 1.30636,-2.76127 0.43544,-0.96305 0.87089,-1.96215 1.30635,-2.98202 0.43544,-1.01927 0.8709,-2.0598 1.30638,-3.10251 0.0666,-0.15944 0.1332,-0.31897 0.19981,-0.4785"
       id="path3251-0"
       inkscape:export-filename="C:\Backup\Academic\My Notes\Super Apunte EyM\PNG\Phase.png"
       inkscape:export-xdpi="300"
       inkscape:export-ydpi="300" />
    <path
       style="fill:#000000;fill-opacity:0.2;stroke:#000000;stroke-width:0.3;stroke-linecap:round;stroke-linejoin:round;stroke-miterlimit:4;stroke-dasharray:none;stroke-opacity:1"
       d="M 34.765021,50.28134 H 23.670739 29.217881 V 38.07567 h 5.54714 v -4.85765 h 5.54714 v 4.98135 h 5.54714 v 11.94546 z"
       id="path1214" />
    <circle
       style="vector-effect:none;fill:#000000;fill-opacity:1;fill-rule:evenodd;stroke:#000000;stroke-width:1;stroke-linecap:butt;stroke-linejoin:miter;stroke-miterlimit:4;stroke-dasharray:none;stroke-dashoffset:0;stroke-opacity:1"
       id="circle1235-4"
       cx="40.31216"
       cy="38.199368"
       r="0.5"
       inkscape:export-xdpi="300"
       inkscape:export-ydpi="300" />
    <circle
       style="vector-effect:none;fill:#000000;fill-opacity:1;fill-rule:evenodd;stroke:#000000;stroke-width:1;stroke-linecap:butt;stroke-linejoin:miter;stroke-miterlimit:4;stroke-dasharray:none;stroke-dashoffset:0;stroke-opacity:1"
       id="circle1252"
       cx="34.765018"
       cy="33.218014"
       r="0.5"
       inkscape:export-xdpi="300"
       inkscape:export-ydpi="300" />
    <circle
       style="vector-effect:none;fill:#000000;fill-opacity:1;fill-rule:evenodd;stroke:#000000;stroke-width:1;stroke-linecap:butt;stroke-linejoin:miter;stroke-miterlimit:4;stroke-dasharray:none;stroke-dashoffset:0;stroke-opacity:1"
       id="circle1254"
       cx="29.217882"
       cy="38.075665"
       r="0.5"
       inkscape:export-xdpi="300"
       inkscape:export-ydpi="300" />
    <circle
       style="vector-effect:none;fill:#000000;fill-opacity:1;fill-rule:evenodd;stroke:#000000;stroke-width:1;stroke-linecap:butt;stroke-linejoin:miter;stroke-miterlimit:4;stroke-dasharray:none;stroke-dashoffset:0;stroke-opacity:1"
       id="circle1256"
       cx="23.67074"
       cy="50.281338"
       r="0.5"
       inkscape:export-xdpi="300"
       inkscape:export-ydpi="300" />
    <text
       xml:space="preserve"
       style="font-style:normal;font-weight:normal;font-size:4.46977px;line-height:1.25;font-family:sans-serif;fill:#000000;fill-opacity:1;stroke:none;stroke-width:0.264583"
       x="70.745163"
       y="16.491751"
       id="text1864"><tspan
         sodipodi:role="line"
         id="tspan1862"
         style="stroke-width:0.264583"
         x="70.745163"
         y="16.491751">$t$</tspan></text>
    <text
       xml:space="preserve"
       style="font-style:normal;font-weight:normal;font-size:4.46977px;line-height:1.25;font-family:sans-serif;fill:#000000;fill-opacity:1;stroke:none;stroke-width:0.264583"
       x="14.949762"
       y="6.3608656"
       id="text1864-5"><tspan
         sodipodi:role="line"
         id="tspan1862-0"
         style="stroke-width:0.264583"
         x="14.949762"
         y="6.3608656">$i$</tspan></text>
    <text
       xml:space="preserve"
       style="font-style:normal;font-weight:normal;font-size:4.46977px;line-height:1.25;font-family:sans-serif;fill:#000000;fill-opacity:1;stroke:none;stroke-width:0.264583"
       x="70.745163"
       y="48.241753"
       id="text2363"><tspan
         sodipodi:role="line"
         id="tspan2361"
         style="stroke-width:0.264583"
         x="70.745163"
         y="48.241753">$t$</tspan></text>
    <text
       xml:space="preserve"
       style="font-style:normal;font-weight:normal;font-size:4.46977px;line-height:1.25;font-family:sans-serif;fill:#000000;fill-opacity:1;stroke:none;stroke-width:0.264583"
       x="14.949762"
       y="38.110867"
       id="text2788"><tspan
         sodipodi:role="line"
         id="tspan2786"
         style="stroke-width:0.264583"
         x="14.949762"
         y="38.110867">$v$</tspan></text>
  </g>
</svg>
