<?xml version="1.0" encoding="UTF-8" standalone="no"?>
<!-- Created with Inkscape (http://www.inkscape.org/) -->

<svg
   width="110mm"
   height="170mm"
   viewBox="0 0 110 170"
   version="1.1"
   id="svg20764"
   inkscape:version="1.1 (c68e22c387, 2021-05-23)"
   sodipodi:docname="ac-fase.svg"
   xmlns:inkscape="http://www.inkscape.org/namespaces/inkscape"
   xmlns:sodipodi="http://sodipodi.sourceforge.net/DTD/sodipodi-0.dtd"
   xmlns="http://www.w3.org/2000/svg"
   xmlns:svg="http://www.w3.org/2000/svg">
  <sodipodi:namedview
     id="namedview20766"
     pagecolor="#ffffff"
     bordercolor="#666666"
     borderopacity="1.0"
     inkscape:pageshadow="2"
     inkscape:pageopacity="0.0"
     inkscape:pagecheckerboard="0"
     inkscape:document-units="mm"
     showgrid="false"
     inkscape:zoom="1.3416246"
     inkscape:cx="227.70901"
     inkscape:cy="466.22581"
     inkscape:window-width="1366"
     inkscape:window-height="705"
     inkscape:window-x="-8"
     inkscape:window-y="-8"
     inkscape:window-maximized="1"
     inkscape:current-layer="layer1" />
  <defs
     id="defs20761" />
  <g
     inkscape:label="Layer 1"
     inkscape:groupmode="layer"
     id="layer1">
    <path
       inkscape:connector-curvature="0"
       id="path7816-3-17-03"
       d="M 53.853582,58.186648 V 111.81335"
       style="fill:none;stroke:#000000;stroke-width:0.2;stroke-linecap:round;stroke-linejoin:round;stroke-miterlimit:4;stroke-dasharray:none;stroke-opacity:1"
       inkscape:export-filename="C:\Backup\Academic\My Notes\Super Apunte EyM\PNG\Phase.png"
       inkscape:export-xdpi="300"
       inkscape:export-ydpi="300" />
    <path
       inkscape:connector-curvature="0"
       id="path7818-0-1-9"
       d="M 34.626782,84.999998 H 105.73888"
       style="fill:none;stroke:#000000;stroke-width:0.193888;stroke-linecap:round;stroke-linejoin:round;stroke-miterlimit:4;stroke-dasharray:none;stroke-opacity:1"
       inkscape:export-filename="C:\Backup\Academic\My Notes\Super Apunte EyM\PNG\Phase.png"
       inkscape:export-xdpi="300"
       inkscape:export-ydpi="300" />
    <path
       style="fill:none;fill-opacity:1;fill-rule:evenodd;stroke:#000000;stroke-width:0.4;stroke-linecap:round;stroke-linejoin:round;stroke-miterlimit:4;stroke-dasharray:none;stroke-dashoffset:0;stroke-opacity:1;paint-order:stroke fill markers"
       d="m 42.790582,84.999998 c 0.4355,-0.42699 0.8709,-0.85273 1.3064,-1.27087 0.4354,-0.418 0.8709,-0.82844 1.3063,-1.22403 0.4355,-0.3955 0.8709,-0.77639 1.3064,-1.13609 0.4354,-0.35948 0.8709,-0.69828 1.3063,-1.01008 0.4355,-0.312 0.871,-0.59669 1.3064,-0.85009 0.4354,-0.25349 0.8709,-0.47498 1.3064,-0.66163 0.4354,-0.1865 0.8709,-0.3375 1.3063,-0.45099 0.4355,-0.11351 0.8709,-0.189 1.3064,-0.22501 0.4355,-0.035 0.8709,-0.035 1.3063,0.01 0.4355,0.04 0.871,0.12249 1.3064,0.24099 0.4355,0.1185 0.8709,0.27499 1.3064,0.46599 0.4355,0.1915 0.8709,0.41799 1.3064,0.67549 0.4354,0.2575 0.8709,0.54674 1.3063,0.86213 0.4354,0.3155 0.8709,0.65734 1.3064,1.01994 0.4354,0.36249 0.8709,0.74584 1.3063,1.14342 0.4355,0.39751 0.871,0.80939 1.3064,1.22858 0.4355,0.419 0.8709,0.84579 1.3064,1.27259 0.4354,0.42698 0.8709,0.85378 1.3063,1.27382 0.4355,0.42 0.8709,0.83313 1.3064,1.23238 0.4355,0.39949 0.8709,0.78454 1.3064,1.14957 0.4354,0.365 0.8709,0.7096 1.3063,1.02819 0.4355,0.31849 0.8709,0.6109 1.3064,0.87229 0.4354,0.2615 0.8709,0.49148 1.3063,0.68719 0.4355,0.19549 0.8709,0.35599 1.3064,0.47898 0.4354,0.123 0.8709,0.20851 1.3064,0.25501 0.4354,0.0451 0.8709,0.0535 1.3064,0.0199 0.4354,-0.03 0.8709,-0.103 1.3063,-0.21149 0.4355,-0.10901 0.8709,-0.256 1.3063,-0.438 0.4355,-0.1825 0.8709,-0.39999 1.3064,-0.64974 0.4355,-0.24949 0.8709,-0.53119 1.3064,-0.83974 0.4355,-0.30848 0.8709,-0.64434 1.3064,-1.00148 0.4354,-0.35699 0.8709,-0.73588 1.3063,-1.12967 0.4355,-0.394 0.8709,-0.80274 1.3064,-1.21999 0.4354,-0.41699 0.8709,-0.84268 1.3064,-1.26927 0.059,-0.0574 0.1172,-0.11483 0.1758,-0.17227"
       id="path3223-8"
       inkscape:export-filename="C:\Backup\Academic\My Notes\Super Apunte EyM\PNG\Phase.png"
       inkscape:export-xdpi="300"
       inkscape:export-ydpi="300" />
    <path
       style="fill:none;fill-opacity:1;fill-rule:evenodd;stroke:#000000;stroke-width:0.4;stroke-linecap:round;stroke-linejoin:round;stroke-miterlimit:4;stroke-dasharray:none;stroke-dashoffset:0;stroke-opacity:1;paint-order:stroke fill markers"
       d="m 53.853582,84.689638 c 0.4355,-1.04371 0.871,-2.08434 1.3064,-3.10642 0.4354,-1.02171 0.8709,-2.02496 1.3064,-2.99191 0.4354,-0.96671 0.8709,-1.89774 1.3063,-2.77694 0.4355,-0.8787 0.8709,-1.70683 1.3064,-2.46896 0.4355,-0.76262 0.8709,-1.45851 1.3064,-2.07788 0.4354,-0.61962 0.8708,-1.16102 1.3063,-1.61725 0.4355,-0.45585 0.8709,-0.82494 1.3064,-1.10235 0.4354,-0.27744 0.8709,-0.46198 1.3064,-0.54999 0.4354,-0.0856 0.8709,-0.0856 1.3063,0.0245 0.4355,0.0977 0.8709,0.2994 1.3064,0.58906 0.4354,0.28964 0.8709,0.67216 1.3064,1.13902 0.4354,0.46809 0.8708,1.0217 1.3063,1.65111 0.4355,0.62941 0.8709,1.3364 1.3064,2.10732 0.4354,0.77117 0.8709,1.60675 1.3063,2.49304 0.4355,0.88604 0.8709,1.82306 1.3064,2.79488 0.4355,0.97163 0.8709,1.97841 1.3064,3.00304 0.4354,1.02416 0.8709,2.06736 1.3063,3.11059 0.4355,1.04369 0.8709,2.08691 1.3064,3.11363 0.4354,1.0266 0.8709,2.03643 1.3064,3.01232 0.4354,0.97648 0.8708,1.91765 1.3063,2.80991 0.4355,0.89217 0.8709,1.73447 1.3064,2.51321 0.4354,0.7785 0.8709,1.49322 1.3063,2.13214 0.4355,0.6392 0.871,1.20135 1.3064,1.679712 0.4354,0.47784 0.8709,0.87015 1.3063,1.17079 0.4355,0.30065 0.871,0.50966 1.3064,0.62331 0.4355,0.11011 0.8709,0.13076 1.3064,0.0487 0.4354,-0.0733 0.8709,-0.25175 1.3064,-0.51695 0.4354,-0.26644 0.8708,-0.62575 1.3063,-1.07059 0.4355,-0.446102 0.8709,-0.977722 1.3064,-1.588172 0.4354,-0.60985 0.8709,-1.29841 1.3064,-2.0526 0.4354,-0.75403 0.8708,-1.57495 1.3063,-2.44793 0.4355,-0.8726 0.8709,-1.79872 1.3064,-2.76127 0.4354,-0.96305 0.8709,-1.96215 1.3063,-2.98202 0.4355,-1.01927 0.8709,-2.0598 1.3064,-3.10251 0.067,-0.15944 0.1332,-0.31897 0.1998,-0.47851"
       id="path3251-5"
       inkscape:export-filename="C:\Backup\Academic\My Notes\Super Apunte EyM\PNG\Phase.png"
       inkscape:export-xdpi="300"
       inkscape:export-ydpi="300" />
    <circle
       style="fill:#000000;fill-opacity:1;fill-rule:evenodd;stroke:none;stroke-width:0.374153;stroke-linecap:round;stroke-linejoin:round;stroke-miterlimit:4;stroke-dasharray:none;stroke-dashoffset:0;stroke-opacity:1;paint-order:stroke fill markers"
       id="circle1065"
       cx="53.853603"
       cy="78.146042"
       inkscape:export-filename="C:\Backup\Academic\My Notes\Super Apunte EyM\PNG\Phase.png"
       inkscape:export-xdpi="300"
       inkscape:export-ydpi="300"
       r="1" />
    <circle
       style="fill:#000000;fill-opacity:1;fill-rule:evenodd;stroke:none;stroke-width:0.374153;stroke-linecap:round;stroke-linejoin:round;stroke-miterlimit:4;stroke-dasharray:none;stroke-dashoffset:0;stroke-opacity:1;paint-order:stroke fill markers"
       id="circle1082"
       cx="64.921722"
       cy="67.936508"
       inkscape:export-filename="C:\Backup\Academic\My Notes\Super Apunte EyM\PNG\Phase.png"
       inkscape:export-xdpi="300"
       inkscape:export-ydpi="300"
       r="1" />
    <path
       style="fill:#000000;fill-opacity:1;stroke:#000000;stroke-width:0.264999;stroke-linecap:round;stroke-linejoin:round;stroke-miterlimit:4;stroke-dasharray:none;stroke-opacity:1"
       d="m 25.864882,84.999998 v -0.55612 c 0,0 0.3004,0.45501 2.2954,0.55612 -1.995,0.10111 -2.2954,0.55612 -2.2954,0.55612 z"
       id="path872-3-7-0"
       inkscape:connector-curvature="0"
       sodipodi:nodetypes="cccc"
       inkscape:export-filename="C:\Backup\Academic\My Notes\Super Apunte EyM\PNG\Phase.png"
       inkscape:export-xdpi="300"
       inkscape:export-ydpi="300" />
    <path
       style="fill:#000000;fill-opacity:1;stroke:#000000;stroke-width:0.264999;stroke-linecap:round;stroke-linejoin:round;stroke-miterlimit:4;stroke-dasharray:none;stroke-opacity:1"
       d="m 9.8451822,77.965218 h -0.5561 c 0,0 0.455,-0.30034 0.5561,-2.29539 0.1011,1.99505 0.5560998,2.29539 0.5560998,2.29539 z"
       id="path1114"
       inkscape:connector-curvature="0"
       sodipodi:nodetypes="cccc"
       inkscape:export-filename="C:\Backup\Academic\My Notes\Super Apunte EyM\PNG\Phase.png"
       inkscape:export-xdpi="300"
       inkscape:export-ydpi="300" />
    <path
       style="fill:none;stroke:#000000;stroke-width:0.2;stroke-linecap:round;stroke-linejoin:round;stroke-miterlimit:4;stroke-dasharray:1.2, 1.2;stroke-dashoffset:0;stroke-opacity:1"
       d="m 9.8451822,68.980278 v 16.01972"
       id="path1112"
       inkscape:export-filename="C:\Backup\Academic\My Notes\Super Apunte EyM\PNG\Phase.png"
       inkscape:export-xdpi="300"
       inkscape:export-ydpi="300" />
    <path
       style="fill:none;stroke:#000000;stroke-width:0.4;stroke-linecap:round;stroke-linejoin:round;stroke-miterlimit:4;stroke-dasharray:none;stroke-opacity:1"
       d="M 25.864882,84.999998 H 9.8451822"
       id="path1159-2"
       inkscape:export-filename="C:\Backup\Academic\My Notes\Super Apunte EyM\PNG\Phase.png"
       inkscape:export-xdpi="300"
       inkscape:export-ydpi="300" />
    <path
       style="color:#000000;font-style:normal;font-variant:normal;font-weight:normal;font-stretch:normal;font-size:medium;line-height:normal;font-family:sans-serif;font-variant-ligatures:normal;font-variant-position:normal;font-variant-caps:normal;font-variant-numeric:normal;font-variant-alternates:normal;font-variant-east-asian:normal;font-feature-settings:normal;font-variation-settings:normal;text-indent:0;text-align:start;text-decoration:none;text-decoration-line:none;text-decoration-style:solid;text-decoration-color:#000000;letter-spacing:normal;word-spacing:normal;text-transform:none;writing-mode:lr-tb;direction:ltr;text-orientation:mixed;dominant-baseline:auto;baseline-shift:baseline;text-anchor:start;white-space:normal;shape-padding:0;shape-margin:0;inline-size:0;clip-rule:nonzero;display:inline;overflow:visible;visibility:visible;isolation:auto;mix-blend-mode:normal;color-interpolation:sRGB;color-interpolation-filters:linearRGB;solid-color:#000000;solid-opacity:1;vector-effect:none;fill:none;fill-opacity:1;fill-rule:nonzero;stroke:#000000;stroke-width:0.2;stroke-linecap:round;stroke-linejoin:round;stroke-miterlimit:4;stroke-dasharray:none;stroke-dashoffset:0;stroke-opacity:1;color-rendering:auto;image-rendering:auto;shape-rendering:auto;text-rendering:auto;enable-background:accumulate;stop-color:#000000"
       d="m 4.3344822,76.192338 c 1.5969,-1.00094 3.4857,-1.57958 5.51,-1.57958 5.7377998,0 10.3885998,4.64889 10.3885998,10.38672"
       id="path1209"
       inkscape:export-filename="C:\Backup\Academic\My Notes\Super Apunte EyM\PNG\Phase.png"
       inkscape:export-xdpi="300"
       inkscape:export-ydpi="300" />
    <path
       style="fill:none;stroke:#000000;stroke-width:0.2;stroke-linecap:butt;stroke-linejoin:miter;stroke-miterlimit:4;stroke-dasharray:none;stroke-opacity:1"
       d="m 5.7485822,76.152338 -1.4141,0.04 0.6262,-1.15911"
       id="path1215"
       inkscape:transform-center-x="-0.080799"
       inkscape:transform-center-y="0.579595"
       inkscape:export-filename="C:\Backup\Academic\My Notes\Super Apunte EyM\PNG\Phase.png"
       inkscape:export-xdpi="300"
       inkscape:export-ydpi="300" />
    <path
       inkscape:connector-curvature="0"
       id="path1255"
       d="m 53.853582,113.93002 v 53.6267"
       style="fill:none;stroke:#000000;stroke-width:0.2;stroke-linecap:round;stroke-linejoin:round;stroke-miterlimit:4;stroke-dasharray:none;stroke-opacity:1"
       inkscape:export-filename="C:\Backup\Academic\My Notes\Super Apunte EyM\PNG\Phase.png"
       inkscape:export-xdpi="300"
       inkscape:export-ydpi="300" />
    <path
       inkscape:connector-curvature="0"
       id="path1257"
       d="M 34.626782,140.74337 H 105.73888"
       style="fill:none;stroke:#000000;stroke-width:0.193888;stroke-linecap:round;stroke-linejoin:round;stroke-miterlimit:4;stroke-dasharray:none;stroke-opacity:1"
       inkscape:export-filename="C:\Backup\Academic\My Notes\Super Apunte EyM\PNG\Phase.png"
       inkscape:export-xdpi="300"
       inkscape:export-ydpi="300" />
    <path
       style="fill:none;fill-opacity:1;fill-rule:evenodd;stroke:#000000;stroke-width:0.4;stroke-linecap:round;stroke-linejoin:round;stroke-miterlimit:4;stroke-dasharray:none;stroke-dashoffset:0;stroke-opacity:1;paint-order:stroke fill markers"
       d="m 42.790582,140.43301 c 0.4355,-1.04371 0.8709,-2.08434 1.3064,-3.10642 0.4354,-1.02171 0.8709,-2.02496 1.3063,-2.99191 0.4355,-0.96671 0.8709,-1.89774 1.3064,-2.77694 0.4354,-0.8787 0.8709,-1.70683 1.3063,-2.46896 0.4355,-0.76262 0.871,-1.45851 1.3064,-2.07788 0.4354,-0.61962 0.8709,-1.16102 1.3064,-1.61725 0.4354,-0.45585 0.8709,-0.82494 1.3063,-1.10235 0.4355,-0.27744 0.8709,-0.46198 1.3064,-0.54999 0.4355,-0.0856 0.8709,-0.0856 1.3063,0.0245 0.4355,0.0977 0.871,0.2994 1.3064,0.58906 0.4355,0.28964 0.8709,0.67216 1.3064,1.13902 0.4355,0.46809 0.8709,1.0217 1.3064,1.65111 0.4354,0.62941 0.8709,1.3364 1.3063,2.10732 0.4354,0.77117 0.8709,1.60675 1.3064,2.49304 0.4354,0.88604 0.8709,1.82306 1.3063,2.79488 0.4355,0.97163 0.871,1.97841 1.3064,3.00304 0.4355,1.02416 0.8709,2.06736 1.3064,3.11059 0.4354,1.04369 0.8709,2.08691 1.3063,3.11363 0.4355,1.0266 0.8709,2.03643 1.3064,3.01232 0.4355,0.97648 0.8709,1.91765 1.3064,2.80991 0.4354,0.89217 0.8709,1.73447 1.3063,2.51321 0.4355,0.7785 0.8709,1.49322 1.3064,2.13214 0.4354,0.63919 0.8709,1.20134 1.3063,1.67971 0.4355,0.47783 0.8709,0.87014 1.3064,1.17079 0.4354,0.30065 0.8709,0.50966 1.3064,0.62331 0.4354,0.11011 0.8709,0.13076 1.3064,0.0487 0.4354,-0.0733 0.8709,-0.25175 1.3063,-0.51695 0.4355,-0.26644 0.8709,-0.62576 1.3063,-1.0706 0.4355,-0.4461 0.8709,-0.97772 1.3064,-1.58816 0.4355,-0.60985 0.8709,-1.29841 1.3064,-2.0526 0.4355,-0.75404 0.8709,-1.57496 1.3064,-2.44793 0.4354,-0.87261 0.8709,-1.79872 1.3063,-2.76128 0.4355,-0.96304 0.8709,-1.96215 1.3064,-2.98201 0.4354,-1.01926 0.8709,-2.05979 1.3064,-3.10251 0.059,-0.1403 0.1172,-0.28068 0.1758,-0.42106"
       id="path1263"
       inkscape:export-filename="C:\Backup\Academic\My Notes\Super Apunte EyM\PNG\Phase.png"
       inkscape:export-xdpi="300"
       inkscape:export-ydpi="300" />
    <path
       style="fill:none;fill-opacity:1;fill-rule:evenodd;stroke:#000000;stroke-width:0.4;stroke-linecap:round;stroke-linejoin:round;stroke-miterlimit:4;stroke-dasharray:none;stroke-dashoffset:0;stroke-opacity:1;paint-order:stroke fill markers"
       d="m 53.853582,140.74337 c 0.4355,-0.47256 0.871,-0.94373 1.3064,-1.40651 0.4354,-0.4626 0.8709,-0.91684 1.3064,-1.35466 0.4354,-0.4377 0.8709,-0.85924 1.3063,-1.25732 0.4355,-0.39785 0.8709,-0.77281 1.3064,-1.11789 0.4355,-0.34529 0.8709,-0.66037 1.3064,-0.94081 0.4354,-0.28054 0.8708,-0.52568 1.3063,-0.73224 0.4355,-0.2064 0.8709,-0.37352 1.3064,-0.49912 0.4354,-0.12561 0.8709,-0.20918 1.3064,-0.24902 0.4354,-0.0387 0.8709,-0.0387 1.3063,0.0111 0.4355,0.0442 0.8709,0.13556 1.3064,0.26672 0.4354,0.13114 0.8709,0.30433 1.3064,0.51572 0.4354,0.21194 0.8708,0.4626 1.3063,0.74758 0.4355,0.28498 0.8709,0.60509 1.3064,0.95414 0.4354,0.34917 0.8709,0.72749 1.3063,1.12878 0.4355,0.40118 0.8709,0.82543 1.3064,1.26545 0.4355,0.43993 0.8709,0.89577 1.3064,1.3597 0.4354,0.46371 0.8709,0.93605 1.3063,1.40839 0.4355,0.47257 0.8709,0.94491 1.3064,1.40978 0.4354,0.46482 0.8709,0.92204 1.3064,1.3639 0.4354,0.44212 0.8708,0.86827 1.3063,1.27225 0.4355,0.40395 0.8709,0.78533 1.3064,1.13791 0.4354,0.35249 0.8709,0.6761 1.3063,0.96539 0.4355,0.28942 0.871,0.54393 1.3064,0.76052 0.4354,0.21635 0.8709,0.39398 1.3063,0.5301 0.4355,0.13614 0.871,0.23078 1.3064,0.28222 0.4355,0.0499 0.8709,0.0593 1.3064,0.022 0.4354,-0.0332 0.8709,-0.11399 1.3064,-0.23406 0.4354,-0.12064 0.8708,-0.28333 1.3063,-0.48474 0.4355,-0.20198 0.8709,-0.44267 1.3064,-0.71907 0.4354,-0.27613 0.8709,-0.58789 1.3064,-0.92936 0.4354,-0.34142 0.8708,-0.7131 1.3063,-1.10837 0.4355,-0.39509 0.8709,-0.81441 1.3064,-1.25023 0.4354,-0.43604 0.8709,-0.88841 1.3063,-1.35019 0.4355,-0.46149 0.8709,-0.93262 1.3064,-1.40473 0.067,-0.0722 0.1332,-0.14442 0.1998,-0.21665"
       id="path1265"
       inkscape:export-filename="C:\Backup\Academic\My Notes\Super Apunte EyM\PNG\Phase.png"
       inkscape:export-xdpi="300"
       inkscape:export-ydpi="300" />
    <circle
       style="fill:#000000;fill-opacity:1;fill-rule:evenodd;stroke:none;stroke-width:0.374153;stroke-linecap:round;stroke-linejoin:round;stroke-miterlimit:4;stroke-dasharray:none;stroke-dashoffset:0;stroke-opacity:1;paint-order:stroke fill markers"
       id="circle1267"
       cx="53.853603"
       cy="123.67986"
       inkscape:export-filename="C:\Backup\Academic\My Notes\Super Apunte EyM\PNG\Phase.png"
       inkscape:export-xdpi="300"
       inkscape:export-ydpi="300"
       r="1" />
    <circle
       style="fill:#000000;fill-opacity:1;fill-rule:evenodd;stroke:none;stroke-width:0.374153;stroke-linecap:round;stroke-linejoin:round;stroke-miterlimit:4;stroke-dasharray:none;stroke-dashoffset:0;stroke-opacity:1;paint-order:stroke fill markers"
       id="circle1269"
       cx="64.921722"
       cy="133.158"
       inkscape:export-filename="C:\Backup\Academic\My Notes\Super Apunte EyM\PNG\Phase.png"
       inkscape:export-xdpi="300"
       inkscape:export-ydpi="300"
       r="1" />
    <path
       style="fill:#000000;fill-opacity:1;stroke:#000000;stroke-width:0.264999;stroke-linecap:round;stroke-linejoin:round;stroke-miterlimit:4;stroke-dasharray:none;stroke-opacity:1"
       d="m 16.879982,140.74337 v -0.55612 c 0,0 0.3003,0.45501 2.2954,0.55612 -1.9951,0.10111 -2.2954,0.55612 -2.2954,0.55612 z"
       id="path1279"
       inkscape:connector-curvature="0"
       sodipodi:nodetypes="cccc"
       inkscape:export-filename="C:\Backup\Academic\My Notes\Super Apunte EyM\PNG\Phase.png"
       inkscape:export-xdpi="300"
       inkscape:export-ydpi="300" />
    <path
       style="fill:#000000;fill-opacity:1;stroke:#000000;stroke-width:0.264999;stroke-linecap:round;stroke-linejoin:round;stroke-miterlimit:4;stroke-dasharray:none;stroke-opacity:1"
       d="m 9.8451822,124.72369 h -0.5561 c 0,0 0.455,-0.30034 0.5561,-2.29539 0.1011,1.99505 0.5560998,2.29539 0.5560998,2.29539 z"
       id="path1281"
       inkscape:connector-curvature="0"
       sodipodi:nodetypes="cccc"
       inkscape:export-filename="C:\Backup\Academic\My Notes\Super Apunte EyM\PNG\Phase.png"
       inkscape:export-xdpi="300"
       inkscape:export-ydpi="300" />
    <path
       style="fill:none;stroke:#000000;stroke-width:0.4;stroke-linecap:round;stroke-linejoin:round;stroke-miterlimit:4;stroke-dasharray:none;stroke-opacity:1"
       d="m 9.8451822,124.72365 v 16.01972"
       id="path1291"
       inkscape:export-filename="C:\Backup\Academic\My Notes\Super Apunte EyM\PNG\Phase.png"
       inkscape:export-xdpi="300"
       inkscape:export-ydpi="300" />
    <path
       style="fill:none;stroke:#000000;stroke-width:0.4;stroke-linecap:round;stroke-linejoin:round;stroke-miterlimit:4;stroke-dasharray:none;stroke-opacity:1"
       d="M 16.879982,140.74337 H 9.8451822"
       id="path1293"
       inkscape:export-filename="C:\Backup\Academic\My Notes\Super Apunte EyM\PNG\Phase.png"
       inkscape:export-xdpi="300"
       inkscape:export-ydpi="300" />
    <path
       style="color:#000000;font-style:normal;font-variant:normal;font-weight:normal;font-stretch:normal;font-size:medium;line-height:normal;font-family:sans-serif;font-variant-ligatures:normal;font-variant-position:normal;font-variant-caps:normal;font-variant-numeric:normal;font-variant-alternates:normal;font-variant-east-asian:normal;font-feature-settings:normal;font-variation-settings:normal;text-indent:0;text-align:start;text-decoration:none;text-decoration-line:none;text-decoration-style:solid;text-decoration-color:#000000;letter-spacing:normal;word-spacing:normal;text-transform:none;writing-mode:lr-tb;direction:ltr;text-orientation:mixed;dominant-baseline:auto;baseline-shift:baseline;text-anchor:start;white-space:normal;shape-padding:0;shape-margin:0;inline-size:0;clip-rule:nonzero;display:inline;overflow:visible;visibility:visible;isolation:auto;mix-blend-mode:normal;color-interpolation:sRGB;color-interpolation-filters:linearRGB;solid-color:#000000;solid-opacity:1;vector-effect:none;fill:none;fill-opacity:1;fill-rule:nonzero;stroke:#000000;stroke-width:0.2;stroke-linecap:round;stroke-linejoin:round;stroke-miterlimit:4;stroke-dasharray:none;stroke-dashoffset:0;stroke-opacity:1;color-rendering:auto;image-rendering:auto;shape-rendering:auto;text-rendering:auto;enable-background:accumulate;stop-color:#000000"
       d="m 4.3344822,131.93571 c 1.5969,-1.00094 3.4857,-1.57958 5.51,-1.57958 5.7377998,0 10.3885998,4.64889 10.3885998,10.38672"
       id="path1295"
       inkscape:export-filename="C:\Backup\Academic\My Notes\Super Apunte EyM\PNG\Phase.png"
       inkscape:export-xdpi="300"
       inkscape:export-ydpi="300" />
    <path
       style="fill:none;stroke:#000000;stroke-width:0.2;stroke-linecap:butt;stroke-linejoin:miter;stroke-miterlimit:4;stroke-dasharray:none;stroke-opacity:1"
       d="m 5.7485822,131.89571 -1.4141,0.04 0.6262,-1.15911"
       id="path1301"
       inkscape:transform-center-x="-0.080799"
       inkscape:transform-center-y="0.579595"
       inkscape:export-filename="C:\Backup\Academic\My Notes\Super Apunte EyM\PNG\Phase.png"
       inkscape:export-xdpi="300"
       inkscape:export-ydpi="300" />
    <path
       inkscape:connector-curvature="0"
       id="path7816-3-17-5"
       d="m 53.853582,2.443278 v 53.6267"
       style="fill:none;stroke:#000000;stroke-width:0.2;stroke-linecap:round;stroke-linejoin:round;stroke-miterlimit:4;stroke-dasharray:none;stroke-opacity:1"
       inkscape:export-filename="C:\Backup\Academic\My Notes\Super Apunte EyM\PNG\Phase.png"
       inkscape:export-xdpi="300"
       inkscape:export-ydpi="300" />
    <path
       inkscape:connector-curvature="0"
       id="path7818-0-1-3"
       d="M 34.626782,29.256628 H 105.73888"
       style="fill:none;stroke:#000000;stroke-width:0.193888;stroke-linecap:round;stroke-linejoin:round;stroke-miterlimit:4;stroke-dasharray:none;stroke-opacity:1"
       inkscape:export-filename="C:\Backup\Academic\My Notes\Super Apunte EyM\PNG\Phase.png"
       inkscape:export-xdpi="300"
       inkscape:export-ydpi="300" />
    <path
       style="fill:none;fill-opacity:1;fill-rule:evenodd;stroke:#000000;stroke-width:0.4;stroke-linecap:round;stroke-linejoin:round;stroke-miterlimit:4;stroke-dasharray:none;stroke-dashoffset:0;stroke-opacity:1;paint-order:stroke fill markers"
       d="m 53.853582,28.946268 c 0.4355,-1.04371 0.871,-2.08434 1.3064,-3.10642 0.4354,-1.02171 0.8709,-2.02496 1.3064,-2.99191 0.4354,-0.96671 0.8709,-1.89774 1.3063,-2.77694 0.4355,-0.8787 0.8709,-1.70683 1.3064,-2.46896 0.4355,-0.76262 0.8709,-1.45851 1.3064,-2.07788 0.4354,-0.61962 0.8708,-1.16102 1.3063,-1.61725 0.4355,-0.45585 0.8709,-0.82494 1.3064,-1.10235 0.4354,-0.27744 0.8709,-0.46198 1.3064,-0.54999 0.4354,-0.0856 0.8709,-0.0856 1.3063,0.0245 0.4355,0.0977 0.8709,0.2994 1.3064,0.58906 0.4354,0.28964 0.8709,0.67216 1.3064,1.13902 0.4354,0.46809 0.8708,1.0217 1.3063,1.65111 0.4355,0.62941 0.8709,1.3364 1.3064,2.10732 0.4354,0.77117 0.8709,1.60675 1.3063,2.49304 0.4355,0.88604 0.8709,1.82306 1.3064,2.79488 0.4355,0.97163 0.8709,1.97841 1.3064,3.00304 0.4354,1.02416 0.8709,2.06736 1.3063,3.11059 0.4355,1.04369 0.8709,2.08691 1.3064,3.11363 0.4354,1.0266 0.8709,2.03643 1.3064,3.01232 0.4354,0.97648 0.8708,1.91765 1.3063,2.80991 0.4355,0.89217 0.8709,1.73447 1.3064,2.51321 0.4354,0.7785 0.8709,1.49322 1.3063,2.13214 0.4355,0.6392 0.871,1.20135 1.3064,1.67971 0.4354,0.47784 0.8709,0.87015 1.3063,1.17079 0.4355,0.30065 0.871,0.50966 1.3064,0.62331 0.4355,0.11011 0.8709,0.13076 1.3064,0.0487 0.4354,-0.0733 0.8709,-0.25175 1.3064,-0.51695 0.4354,-0.26644 0.8708,-0.62575 1.3063,-1.07059 0.4355,-0.4461 0.8709,-0.97772 1.3064,-1.58817 0.4354,-0.60985 0.8709,-1.29841 1.3064,-2.0526 0.4354,-0.75403 0.8708,-1.57495 1.3063,-2.44793 0.4355,-0.8726 0.8709,-1.79872 1.3064,-2.76127 0.4354,-0.96305 0.8709,-1.96215 1.3063,-2.98202 0.4355,-1.01927 0.8709,-2.0598 1.3064,-3.10251 0.067,-0.15944 0.1332,-0.31897 0.1998,-0.47851"
       id="path3251-6"
       inkscape:export-filename="C:\Backup\Academic\My Notes\Super Apunte EyM\PNG\Phase.png"
       inkscape:export-xdpi="300"
       inkscape:export-ydpi="300" />
    <circle
       style="fill:#000000;fill-opacity:1;fill-rule:evenodd;stroke:none;stroke-width:0.374153;stroke-linecap:round;stroke-linejoin:round;stroke-miterlimit:4;stroke-dasharray:none;stroke-dashoffset:0;stroke-opacity:1;paint-order:stroke fill markers"
       id="circle1082-0"
       cx="64.921722"
       cy="12.193158"
       inkscape:export-filename="C:\Backup\Academic\My Notes\Super Apunte EyM\PNG\Phase.png"
       inkscape:export-xdpi="300"
       inkscape:export-ydpi="300"
       r="1" />
    <path
       style="fill:#000000;fill-opacity:1;stroke:#000000;stroke-width:0.264999;stroke-linecap:round;stroke-linejoin:round;stroke-miterlimit:4;stroke-dasharray:none;stroke-opacity:1"
       d="m 25.864882,29.256628 v -0.55612 c 0,0 0.3004,0.45501 2.2954,0.55612 -1.995,0.10111 -2.2954,0.55612 -2.2954,0.55612 z"
       id="path872-3-7-5"
       inkscape:connector-curvature="0"
       sodipodi:nodetypes="cccc"
       inkscape:export-filename="C:\Backup\Academic\My Notes\Super Apunte EyM\PNG\Phase.png"
       inkscape:export-xdpi="300"
       inkscape:export-ydpi="300" />
    <path
       style="fill:none;stroke:#000000;stroke-width:0.4;stroke-linecap:round;stroke-linejoin:round;stroke-miterlimit:4;stroke-dasharray:none;stroke-opacity:1"
       d="M 25.864882,29.256628 H 9.8451822"
       id="path1159-7"
       inkscape:export-filename="C:\Backup\Academic\My Notes\Super Apunte EyM\PNG\Phase.png"
       inkscape:export-xdpi="300"
       inkscape:export-ydpi="300" />
    <path
       style="color:#000000;font-style:normal;font-variant:normal;font-weight:normal;font-stretch:normal;font-size:medium;line-height:normal;font-family:sans-serif;font-variant-ligatures:normal;font-variant-position:normal;font-variant-caps:normal;font-variant-numeric:normal;font-variant-alternates:normal;font-variant-east-asian:normal;font-feature-settings:normal;font-variation-settings:normal;text-indent:0;text-align:start;text-decoration:none;text-decoration-line:none;text-decoration-style:solid;text-decoration-color:#000000;letter-spacing:normal;word-spacing:normal;text-transform:none;writing-mode:lr-tb;direction:ltr;text-orientation:mixed;dominant-baseline:auto;baseline-shift:baseline;text-anchor:start;white-space:normal;shape-padding:0;shape-margin:0;inline-size:0;clip-rule:nonzero;display:inline;overflow:visible;visibility:visible;isolation:auto;mix-blend-mode:normal;color-interpolation:sRGB;color-interpolation-filters:linearRGB;solid-color:#000000;solid-opacity:1;vector-effect:none;fill:none;fill-opacity:1;fill-rule:nonzero;stroke:#000000;stroke-width:0.2;stroke-linecap:round;stroke-linejoin:round;stroke-miterlimit:4;stroke-dasharray:none;stroke-dashoffset:0;stroke-opacity:1;color-rendering:auto;image-rendering:auto;shape-rendering:auto;text-rendering:auto;enable-background:accumulate;stop-color:#000000"
       d="m 4.3344822,20.448968 c 1.5969,-1.00094 3.4857,-1.57958 5.51,-1.57958 5.7377998,0 10.3885998,4.64889 10.3885998,10.38672"
       id="path1209-1"
       inkscape:export-filename="C:\Backup\Academic\My Notes\Super Apunte EyM\PNG\Phase.png"
       inkscape:export-xdpi="300"
       inkscape:export-ydpi="300" />
    <path
       style="fill:none;stroke:#000000;stroke-width:0.2;stroke-linecap:butt;stroke-linejoin:miter;stroke-miterlimit:4;stroke-dasharray:none;stroke-opacity:1"
       d="m 5.7485822,20.408968 -1.4141,0.04 0.6262,-1.15911"
       id="path1215-4"
       inkscape:transform-center-x="-0.080799"
       inkscape:transform-center-y="0.579595"
       inkscape:export-filename="C:\Backup\Academic\My Notes\Super Apunte EyM\PNG\Phase.png"
       inkscape:export-xdpi="300"
       inkscape:export-ydpi="300" />
    <path
       style="fill:none;stroke:#000000;stroke-width:0.2;stroke-linecap:round;stroke-linejoin:round;stroke-miterlimit:4;stroke-dasharray:1.2, 1.2;stroke-dashoffset:0;stroke-opacity:1"
       d="m 9.8451822,13.236908 v 16.01972"
       id="path1310"
       inkscape:export-filename="C:\Backup\Academic\My Notes\Super Apunte EyM\PNG\Phase.png"
       inkscape:export-xdpi="300"
       inkscape:export-ydpi="300" />
    <path
       style="fill:none;fill-opacity:1;fill-rule:evenodd;stroke:#000000;stroke-width:0.4;stroke-linecap:round;stroke-linejoin:round;stroke-miterlimit:4;stroke-dasharray:none;stroke-dashoffset:0;stroke-opacity:1;paint-order:stroke fill markers"
       d="m 53.853582,29.256628 c 0.4355,-0.43826 0.871,-0.87523 1.3064,-1.30441 0.4354,-0.42902 0.8709,-0.8503 1.3064,-1.25633 0.4354,-0.40593 0.8709,-0.79687 1.3063,-1.16606 0.4355,-0.36897 0.8709,-0.71671 1.3064,-1.03673 0.4355,-0.32023 0.8709,-0.61244 1.3064,-0.87252 0.4354,-0.26018 0.8708,-0.48752 1.3063,-0.6791 0.4355,-0.19141 0.8709,-0.34639 1.3064,-0.46288 0.4354,-0.1165 0.8709,-0.19399 1.3064,-0.23095 0.4354,-0.0359 0.8709,-0.0359 1.3063,0.0103 0.4355,0.041 0.8709,0.12572 1.3064,0.24735 0.4354,0.12163 0.8709,0.28225 1.3064,0.47829 0.4354,0.19655 0.8708,0.42902 1.3063,0.69331 0.4355,0.2643 0.8709,0.56117 1.3064,0.88488 0.4354,0.32382 0.8709,0.67469 1.3063,1.04685 0.4355,0.37206 0.8709,0.76552 1.3064,1.17359 0.4355,0.408 0.8709,0.83075 1.3064,1.261 0.4354,0.43006 0.8709,0.8681 1.3063,1.30617 0.4355,0.43825 0.8709,0.87631 1.3064,1.30743 0.4354,0.43108 0.8709,0.85512 1.3064,1.2649 0.4354,0.41003 0.8708,0.80524 1.3063,1.1799 0.4355,0.37463 0.8709,0.72832 1.3064,1.05532 0.4354,0.3269 0.8709,0.62702 1.3063,0.8953 0.4355,0.26841 0.871,0.50446 1.3064,0.70533 0.4354,0.20065 0.8709,0.36538 1.3063,0.49162 0.4355,0.12625 0.871,0.21401 1.3064,0.26173 0.4355,0.0462 0.8709,0.0549 1.3064,0.0204 0.4354,-0.0308 0.8709,-0.10571 1.3064,-0.21707 0.4354,-0.11188 0.8708,-0.26276 1.3063,-0.44955 0.4355,-0.18732 0.8709,-0.41055 1.3064,-0.66688 0.4354,-0.25608 0.8709,-0.54521 1.3064,-0.86191 0.4354,-0.31662 0.8708,-0.66133 1.3063,-1.0279 0.4355,-0.36641 0.8709,-0.7553 1.3064,-1.15948 0.4354,-0.40439 0.8709,-0.82392 1.3063,-1.25217 0.4355,-0.428 0.8709,-0.86493 1.3064,-1.30277 0.067,-0.067 0.1332,-0.13394 0.1998,-0.20093"
       id="path1314"
       inkscape:export-filename="C:\Backup\Academic\My Notes\Super Apunte EyM\PNG\Phase.png"
       inkscape:export-xdpi="300"
       inkscape:export-ydpi="300" />
    <circle
       style="fill:#000000;fill-opacity:1;fill-rule:evenodd;stroke:none;stroke-width:0.374153;stroke-linecap:round;stroke-linejoin:round;stroke-miterlimit:4;stroke-dasharray:none;stroke-dashoffset:0;stroke-opacity:1;paint-order:stroke fill markers"
       id="circle1316"
       cx="64.921722"
       cy="22.221849"
       inkscape:export-filename="C:\Backup\Academic\My Notes\Super Apunte EyM\PNG\Phase.png"
       inkscape:export-xdpi="300"
       inkscape:export-ydpi="300"
       r="1" />
    <path
       style="fill:#000000;fill-opacity:1;stroke:#000000;stroke-width:0.264999;stroke-linecap:round;stroke-linejoin:round;stroke-miterlimit:4;stroke-dasharray:none;stroke-opacity:1"
       d="m 16.879982,29.256628 v -0.55612 c 0,0 0.3003,0.45501 2.2954,0.55612 -1.9951,0.10111 -2.2954,0.55612 -2.2954,0.55612 z"
       id="path1340"
       inkscape:connector-curvature="0"
       sodipodi:nodetypes="cccc"
       inkscape:export-filename="C:\Backup\Academic\My Notes\Super Apunte EyM\PNG\Phase.png"
       inkscape:export-xdpi="300"
       inkscape:export-ydpi="300" />
    <path
       style="fill:none;stroke:#000000;stroke-width:0.4;stroke-linecap:butt;stroke-linejoin:miter;stroke-miterlimit:4;stroke-dasharray:none;stroke-opacity:1"
       d="m 9.8451822,77.965218 v 7.03478"
       id="path1386-4"
       inkscape:export-filename="C:\Backup\Academic\My Notes\Super Apunte EyM\PNG\Phase.png"
       inkscape:export-xdpi="300"
       inkscape:export-ydpi="300" />
    <path
       style="fill:none;stroke:#000000;stroke-width:0.2;stroke-linecap:round;stroke-linejoin:round;stroke-miterlimit:4;stroke-dasharray:1.2, 1.2;stroke-dashoffset:0;stroke-opacity:1"
       d="M 9.8451822,140.74337 H 25.864882"
       id="path1310-2"
       inkscape:export-filename="C:\Backup\Academic\My Notes\Super Apunte EyM\PNG\Phase.png"
       inkscape:export-xdpi="300"
       inkscape:export-ydpi="300" />
    <text
       xml:space="preserve"
       style="font-style:normal;font-weight:normal;font-size:4.32793px;line-height:1.25;font-family:sans-serif;fill:#000000;fill-opacity:1;stroke:none;stroke-width:0.264583"
       x="48.790165"
       y="6.6245437"
       id="text2049"><tspan
         sodipodi:role="line"
         id="tspan2047"
         style="stroke-width:0.264583"
         x="48.790165"
         y="6.6245437">$R$</tspan></text>
    <text
       xml:space="preserve"
       style="font-style:normal;font-weight:normal;font-size:4.32793px;line-height:1.25;font-family:sans-serif;fill:#000000;fill-opacity:1;stroke:none;stroke-width:0.264583"
       x="67.120621"
       y="10.749933"
       id="text2049-0"><tspan
         sodipodi:role="line"
         id="tspan2047-1"
         style="stroke-width:0.264583"
         x="67.120621"
         y="10.749933">$v$</tspan></text>
    <text
       xml:space="preserve"
       style="font-style:normal;font-weight:normal;font-size:4.32793px;line-height:1.25;font-family:sans-serif;fill:#000000;fill-opacity:1;stroke:none;stroke-width:0.264583"
       x="48.790165"
       y="62.499378"
       id="text2704"><tspan
         sodipodi:role="line"
         id="tspan2702"
         style="stroke-width:0.264583"
         x="48.790165"
         y="62.499378">$C$</tspan></text>
    <text
       xml:space="preserve"
       style="font-style:normal;font-weight:normal;font-size:4.32793px;line-height:1.25;font-family:sans-serif;fill:#000000;fill-opacity:1;stroke:none;stroke-width:0.264583"
       x="48.790165"
       y="118.9328"
       id="text2890"><tspan
         sodipodi:role="line"
         id="tspan2888"
         style="stroke-width:0.264583"
         x="48.790165"
         y="118.9328">$L$</tspan></text>
    <text
       xml:space="preserve"
       style="font-style:normal;font-weight:normal;font-size:4.32793px;line-height:1.25;font-family:sans-serif;fill:#000000;fill-opacity:1;stroke:none;stroke-width:0.264583"
       x="102.52429"
       y="138.93718"
       id="text2890-4"><tspan
         sodipodi:role="line"
         id="tspan2888-6"
         style="stroke-width:0.264583"
         x="102.52429"
         y="138.93718">$t$</tspan></text>
    <text
       xml:space="preserve"
       style="font-style:normal;font-weight:normal;font-size:4.32793px;line-height:1.25;font-family:sans-serif;fill:#000000;fill-opacity:1;stroke:none;stroke-width:0.264583"
       x="102.52429"
       y="82.503769"
       id="text3549"><tspan
         sodipodi:role="line"
         id="tspan3547"
         style="stroke-width:0.264583"
         x="102.52429"
         y="82.503769">$t$</tspan></text>
    <text
       xml:space="preserve"
       style="font-style:normal;font-weight:normal;font-size:4.32793px;line-height:1.25;font-family:sans-serif;fill:#000000;fill-opacity:1;stroke:none;stroke-width:0.264583"
       x="102.52429"
       y="26.859182"
       id="text3633"><tspan
         sodipodi:role="line"
         id="tspan3631"
         style="stroke-width:0.264583"
         x="102.52429"
         y="26.859182">$t$</tspan></text>
    <text
       xml:space="preserve"
       style="font-style:normal;font-weight:normal;font-size:4.32793px;line-height:1.25;font-family:sans-serif;fill:#000000;fill-opacity:1;stroke:none;stroke-width:0.264583"
       x="62.81501"
       y="27.413776"
       id="text4038"><tspan
         sodipodi:role="line"
         id="tspan4036"
         style="stroke-width:0.264583"
         x="62.81501"
         y="27.413776">$i$</tspan></text>
    <text
       xml:space="preserve"
       style="font-style:normal;font-weight:normal;font-size:4.32793px;line-height:1.25;font-family:sans-serif;fill:#000000;fill-opacity:1;stroke:none;stroke-width:0.264583"
       x="67.120621"
       y="66.230347"
       id="text4634"><tspan
         sodipodi:role="line"
         id="tspan4632"
         style="stroke-width:0.264583"
         x="67.120621"
         y="66.230347">$v$</tspan></text>
    <text
       xml:space="preserve"
       style="font-style:normal;font-weight:normal;font-size:4.32793px;line-height:1.25;font-family:sans-serif;fill:#000000;fill-opacity:1;stroke:none;stroke-width:0.264583"
       x="62.81501"
       y="81.316498"
       id="text4638"><tspan
         sodipodi:role="line"
         id="tspan4636"
         style="stroke-width:0.264583"
         x="62.81501"
         y="81.316498">$i$</tspan></text>
    <text
       xml:space="preserve"
       style="font-style:normal;font-weight:normal;font-size:4.32793px;line-height:1.25;font-family:sans-serif;fill:#000000;fill-opacity:1;stroke:none;stroke-width:0.264583"
       x="74.647682"
       y="136.33841"
       id="text4802"><tspan
         sodipodi:role="line"
         id="tspan4800"
         style="stroke-width:0.264583"
         x="74.647682"
         y="136.33841">$i$</tspan></text>
    <text
       xml:space="preserve"
       style="font-style:normal;font-weight:normal;font-size:4.32793px;line-height:1.25;font-family:sans-serif;fill:#000000;fill-opacity:1;stroke:none;stroke-width:0.264583"
       x="58.640541"
       y="124.99927"
       id="text4806"><tspan
         sodipodi:role="line"
         id="tspan4804"
         style="stroke-width:0.264583"
         x="58.640541"
         y="124.99927">$v$</tspan></text>
    <text
       xml:space="preserve"
       style="font-style:normal;font-weight:normal;font-size:4.32793px;line-height:1.25;font-family:sans-serif;fill:#000000;fill-opacity:1;stroke:none;stroke-width:0.264583"
       x="3.6186287"
       y="127.95744"
       id="text5058"><tspan
         sodipodi:role="line"
         id="tspan5056"
         style="stroke-width:0.264583"
         x="3.6186287"
         y="127.95744">$v$</tspan></text>
    <text
       xml:space="preserve"
       style="font-style:normal;font-weight:normal;font-size:4.32793px;line-height:1.25;font-family:sans-serif;fill:#000000;fill-opacity:1;stroke:none;stroke-width:0.264583"
       x="16.864815"
       y="145.80453"
       id="text5062"><tspan
         sodipodi:role="line"
         id="tspan5060"
         style="stroke-width:0.264583"
         x="16.864815"
         y="145.80453">$i$</tspan></text>
    <text
       xml:space="preserve"
       style="font-style:normal;font-weight:normal;font-size:4.32793px;line-height:1.25;font-family:sans-serif;fill:#000000;fill-opacity:1;stroke:none;stroke-width:0.264583"
       x="11.540113"
       y="138.9682"
       id="text5146"><tspan
         sodipodi:role="line"
         id="tspan5144"
         style="stroke-width:0.264583"
         x="11.540113"
         y="138.9682"
         dy="0 0 0 0 0 0.19721116">$\phi$</tspan></text>
    <text
       xml:space="preserve"
       style="font-style:normal;font-weight:normal;font-size:4.32793px;line-height:1.25;font-family:sans-serif;fill:#000000;fill-opacity:1;stroke:none;stroke-width:0.264583"
       x="11.540113"
       y="82.337563"
       id="text5478"><tspan
         sodipodi:role="line"
         id="tspan5476"
         style="stroke-width:0.264583"
         x="11.540113"
         y="82.337563"
         dy="0 0 0 0 0 0.19721116">$\phi$</tspan></text>
    <text
       xml:space="preserve"
       style="font-style:normal;font-weight:normal;font-size:4.32793px;line-height:1.25;font-family:sans-serif;fill:#000000;fill-opacity:1;stroke:none;stroke-width:0.264583"
       x="11.540113"
       y="26.817907"
       id="text5482"><tspan
         sodipodi:role="line"
         id="tspan5480"
         style="stroke-width:0.264583"
         x="11.540113"
         y="26.817907"
         dy="0 0 0 0 0 0.19721116">$\phi$</tspan></text>
    <text
       xml:space="preserve"
       style="font-style:normal;font-weight:normal;font-size:4.32793px;line-height:1.25;font-family:sans-serif;fill:#000000;fill-opacity:1;stroke:none;stroke-width:0.264583"
       x="22.748112"
       y="34.612484"
       id="text5486"><tspan
         sodipodi:role="line"
         id="tspan5484"
         style="stroke-width:0.264583"
         x="22.748112"
         y="34.612484">$v$</tspan></text>
    <text
       xml:space="preserve"
       style="font-style:normal;font-weight:normal;font-size:4.32793px;line-height:1.25;font-family:sans-serif;fill:#000000;fill-opacity:1;stroke:none;stroke-width:0.264583"
       x="15.287122"
       y="34.71059"
       id="text5490"><tspan
         sodipodi:role="line"
         id="tspan5488"
         style="stroke-width:0.264583"
         x="15.287122"
         y="34.71059">$i$</tspan></text>
    <text
       xml:space="preserve"
       style="font-style:normal;font-weight:normal;font-size:4.32793px;line-height:1.25;font-family:sans-serif;fill:#000000;fill-opacity:1;stroke:none;stroke-width:0.264583"
       x="22.156477"
       y="90.290108"
       id="text5654"><tspan
         sodipodi:role="line"
         id="tspan5652"
         style="stroke-width:0.264583"
         x="22.156477"
         y="90.290108">$v$</tspan></text>
    <text
       xml:space="preserve"
       style="font-style:normal;font-weight:normal;font-size:4.32793px;line-height:1.25;font-family:sans-serif;fill:#000000;fill-opacity:1;stroke:none;stroke-width:0.264583"
       x="5.0321417"
       y="81.119286"
       id="text5658"><tspan
         sodipodi:role="line"
         id="tspan5656"
         style="stroke-width:0.264583"
         x="5.0321417"
         y="81.119286">$i$</tspan></text>
  </g>
</svg>
