<?xml version="1.0" encoding="UTF-8" standalone="no"?>
<!-- Created with Inkscape (http://www.inkscape.org/) -->

<svg
   width="110mm"
   height="60mm"
   viewBox="0 0 110 60"
   version="1.1"
   id="svg1"
   inkscape:version="1.3 (0e150ed6c4, 2023-07-21)"
   sodipodi:docname="filtros-func-transfer.svg"
   xmlns:inkscape="http://www.inkscape.org/namespaces/inkscape"
   xmlns:sodipodi="http://sodipodi.sourceforge.net/DTD/sodipodi-0.dtd"
   xmlns="http://www.w3.org/2000/svg"
   xmlns:svg="http://www.w3.org/2000/svg">
  <sodipodi:namedview
     id="namedview1"
     pagecolor="#ffffff"
     bordercolor="#000000"
     borderopacity="0.25"
     inkscape:showpageshadow="2"
     inkscape:pageopacity="0.0"
     inkscape:pagecheckerboard="0"
     inkscape:deskcolor="#d1d1d1"
     inkscape:document-units="mm"
     inkscape:zoom="3.5705387"
     inkscape:cx="161.88033"
     inkscape:cy="115.24872"
     inkscape:window-width="1366"
     inkscape:window-height="697"
     inkscape:window-x="-8"
     inkscape:window-y="-8"
     inkscape:window-maximized="1"
     inkscape:current-layer="layer1" />
  <defs
     id="defs1">
    <rect
       x="211.50591"
       y="32.584908"
       width="90.305893"
       height="36.457615"
       id="rect16" />
    <clipPath
       id="clipPath4696">
      <rect
         style="fill:none;stroke:#000000;stroke-width:0.3;stroke-linecap:round;stroke-linejoin:round;stroke-dasharray:none;stroke-opacity:1;paint-order:stroke fill markers"
         width="116.53289"
         height="74.345406"
         x="27.037308"
         y="12.844675"
         id="rect4" />
    </clipPath>
    <clipPath
       id="clipPath7401">
      <rect
         style="fill:none;stroke:#000000;stroke-width:0.3;stroke-linecap:round;stroke-linejoin:round;stroke-dasharray:none;stroke-opacity:1;paint-order:stroke fill markers"
         width="116.53289"
         height="74.345406"
         x="27.037308"
         y="12.844675"
         id="rect5" />
    </clipPath>
    <rect
       x="211.50591"
       y="32.584908"
       width="178.23532"
       height="107.75174"
       id="rect17" />
    <rect
       x="211.50591"
       y="32.584908"
       width="192.49414"
       height="44.379185"
       id="rect16-4" />
    <rect
       x="211.50591"
       y="32.584908"
       width="192.49414"
       height="44.379185"
       id="rect18" />
    <rect
       x="211.50591"
       y="32.584908"
       width="90.305893"
       height="36.457615"
       id="rect16-9" />
    <rect
       x="211.50591"
       y="32.584908"
       width="90.305893"
       height="36.457615"
       id="rect19" />
  </defs>
  <g
     inkscape:label="Layer 1"
     inkscape:groupmode="layer"
     id="layer1">
    <path
       style="fill:none;stroke:#000000;stroke-width:0.3;stroke-linecap:round;stroke-linejoin:round;stroke-dasharray:none;stroke-opacity:1;paint-order:stroke fill markers"
       d="M 15.626085,2.921077 V 55.993975"
       id="path1" />
    <path
       style="fill:none;stroke:#000000;stroke-width:0.315646;stroke-linecap:round;stroke-linejoin:round;stroke-dasharray:none;stroke-opacity:1;paint-order:stroke fill markers"
       d="M 105.15339,18.2675 H 15.928188"
       id="path2" />
    <path
       style="fill:none;stroke:#000000;stroke-width:0.5;stroke-linecap:round;stroke-linejoin:round;stroke-dasharray:none;stroke-opacity:1;paint-order:stroke fill markers"
       d="m 29.917625,55.440223 c 1.3395,-9.0849 2.6789,-12.5914 4.0184,-15.973 1.3394,-3.3816 2.6789,-5.7932 4.0184,-7.8698 1.3394,-2.0767 2.6789,-3.7693 4.0183,-5.2677 1.3395,-1.4984 2.679,-2.7932 4.0184,-3.9652 1.3395,-1.1721 2.6789,-2.2184 4.0184,-3.1808 1.3394,-0.9624 2.6789,-1.8397 4.0184,-2.6561 1.3394,-0.8164 2.6789,-1.5713 4.0183,-2.2802 1.3395,-0.7088 2.679,-1.3712 4.0184,-1.9976 1.3395,-0.6264 2.6789,-1.2164 4.0184,-1.7774 1.3394,-0.5611 2.6789,-1.093 4.0184,-1.601"
       id="path4" />
    <path
       style="fill:none;stroke:#000000;stroke-width:0.5;stroke-linecap:round;stroke-linejoin:round;stroke-dasharray:none;stroke-opacity:1;paint-order:stroke fill markers"
       d="m 29.917625,56.978923 c 1.3395,-8.2584 2.6789,-11.0012 4.0184,-13.6662 1.3394,-2.665 2.6789,-4.4075 4.0184,-5.8518 1.3394,-1.4442 2.6789,-2.5415 4.0183,-3.4741 1.3395,-0.9325 2.679,-1.6911 4.0184,-2.3511 1.3395,-0.66 2.6789,-1.2186 4.0184,-1.7135 1.3394,-0.4949 2.6789,-0.9249 4.0184,-1.3111 1.3394,-0.3863 2.6789,-0.7282 4.0183,-1.0387 1.3395,-0.3106 2.679,-0.5894 4.0184,-0.8449 1.3395,-0.2555 2.6789,-0.4874 4.0184,-0.7015 1.3394,-0.2141 2.6789,-0.4102 4.0184,-0.5923 1.3394,-0.1822 2.6789,-0.3502 4.0183,-0.5071 1.3395,-0.157 2.679,-0.3027 4.0184,-0.4393 1.3395,-0.1367 2.6789,-0.2642 4.0184,-0.3843 1.3394,-0.1201 2.6789,-0.2327 4.0184,-0.3392 1.3394,-0.1064 2.6789,-0.2066 4.018301,-0.3015 1.3395,-0.095 2.679,-0.1847 4.0184,-0.27 1.339497,-0.0853 2.678897,-0.1661 4.018397,-0.2431 1.3395,-0.077 2.678897,-0.1502 4.018397,-0.2201"
       id="path5" />
    <path
       style="fill:none;stroke:#000000;stroke-width:0.3;stroke-linecap:round;stroke-linejoin:round;stroke-dasharray:1.2, 1.2;stroke-dashoffset:0;stroke-opacity:1;paint-order:stroke fill markers"
       d="M 51.321386,18.267498 V 40.647554 H 15.626085"
       id="path12"
       sodipodi:nodetypes="ccc" />
    <path
       style="fill:none;stroke:#000000;stroke-width:0.3;stroke-linecap:round;stroke-linejoin:round;stroke-dasharray:1.2, 1.2;stroke-dashoffset:0;stroke-opacity:1;paint-order:stroke fill markers"
       d="M 33.473736,40.647554 V 18.267498"
       id="path13" />
    <path
       style="fill:none;stroke:#000000;stroke-width:0.3;stroke-linecap:round;stroke-linejoin:round;stroke-dasharray:1.2, 1.2;stroke-dashoffset:0;stroke-opacity:1;paint-order:stroke fill markers"
       d="M 15.626085,29.457526 H 51.321386"
       id="path16" />
    <text
       xml:space="preserve"
       transform="matrix(0.26458333,0,0,0.26458333,-5.5531365,3.4455342)"
       id="text16"
       style="white-space:pre;shape-inside:url(#rect16);display:inline;fill:#000000;fill-opacity:1;stroke:none;stroke-width:1.13386;stroke-linecap:round;stroke-linejoin:round;stroke-dasharray:4.53543, 4.53543;stroke-dashoffset:0;stroke-opacity:1;paint-order:stroke fill markers"><tspan
         x="211.50586"
         y="43.531948"
         id="tspan2">$f_0$</tspan></text>
    <text
       xml:space="preserve"
       transform="matrix(0.26458333,0,0,0.26458333,-50.91993,-5.1265685)"
       id="text16-3"
       style="white-space:pre;shape-inside:url(#rect16-9);display:inline;fill:#000000;fill-opacity:1;stroke:none;stroke-width:1.13386;stroke-linecap:round;stroke-linejoin:round;stroke-dasharray:4.53543, 4.53543;stroke-dashoffset:0;stroke-opacity:1;paint-order:stroke fill markers"><tspan
         x="211.50586"
         y="43.531948"
         id="tspan3">$L_H$</tspan></text>
    <text
       xml:space="preserve"
       transform="matrix(0.26458333,0,0,0.26458333,-51.779048,17.418007)"
       id="text16-8"
       style="white-space:pre;shape-inside:url(#rect16-4);display:inline;fill:#000000;fill-opacity:1;stroke:none;stroke-width:1.13386;stroke-linecap:round;stroke-linejoin:round;stroke-dasharray:4.53543, 4.53543;stroke-dashoffset:0;stroke-opacity:1;paint-order:stroke fill markers"><tspan
         x="211.50586"
         y="43.531948"
         id="tspan4">$-3 \, \si{\deci \bel}$</tspan></text>
    <text
       xml:space="preserve"
       transform="matrix(0.26458333,0,0,0.26458333,-23.943235,3.4455342)"
       id="text17"
       style="white-space:pre;shape-inside:url(#rect17);display:inline;fill:#000000;fill-opacity:1;stroke:none;stroke-width:1.13386;stroke-linecap:round;stroke-linejoin:round;stroke-dasharray:4.53543, 4.53543;stroke-dashoffset:0;stroke-opacity:1;paint-order:stroke fill markers"><tspan
         x="211.50586"
         y="43.531948"
         id="tspan5">$\sfrac{f_0}{2}$</tspan></text>
    <text
       xml:space="preserve"
       transform="matrix(0.26458333,0,0,0.26458333,-51.779048,28.001341)"
       id="text18"
       style="white-space:pre;shape-inside:url(#rect18);display:inline;fill:#000000;fill-opacity:1;stroke:none;stroke-width:1.13386;stroke-linecap:round;stroke-linejoin:round;stroke-dasharray:4.53543, 4.53543;stroke-dashoffset:0;stroke-opacity:1;paint-order:stroke fill markers"><tspan
         x="211.50586"
         y="43.531948"
         id="tspan6">$-6 \, \si{\deci \bel}$</tspan></text>
    <text
       xml:space="preserve"
       transform="matrix(0.26458333,0,0,0.26458333,40.461977,4.0954588)"
       id="text19"
       style="white-space:pre;shape-inside:url(#rect19);display:inline;fill:#000000;fill-opacity:1;stroke:none;stroke-width:1.13386;stroke-linecap:round;stroke-linejoin:round;stroke-dasharray:4.53543, 4.53543;stroke-dashoffset:0;stroke-opacity:1;paint-order:stroke fill markers"><tspan
         x="211.50586"
         y="43.531948"
         id="tspan7">$f$</tspan></text>
    <circle
       style="fill:#000000;fill-opacity:1;stroke:none;stroke-width:0.0867491;stroke-linecap:round;stroke-linejoin:round;stroke-dasharray:0.346995, 0.346995;stroke-dashoffset:0;stroke-opacity:1;paint-order:stroke fill markers"
       id="path19"
       cx="51.321384"
       cy="29.307526"
       r="1" />
    <circle
       style="fill:#000000;fill-opacity:1;stroke:none;stroke-width:0.0867491;stroke-linecap:round;stroke-linejoin:round;stroke-dasharray:0.346995, 0.346995;stroke-dashoffset:0;stroke-opacity:1;paint-order:stroke fill markers"
       id="circle19"
       cx="33.323734"
       cy="40.797554"
       r="1" />
  </g>
</svg>
