<?xml version="1.0" encoding="UTF-8" standalone="no"?>
<!-- Created with Inkscape (http://www.inkscape.org/) -->

<svg
   width="120mm"
   height="80mm"
   viewBox="0 0 120 80"
   version="1.1"
   id="svg1342"
   inkscape:version="1.1 (c68e22c387, 2021-05-23)"
   sodipodi:docname="filter-fc.svg"
   xmlns:inkscape="http://www.inkscape.org/namespaces/inkscape"
   xmlns:sodipodi="http://sodipodi.sourceforge.net/DTD/sodipodi-0.dtd"
   xmlns="http://www.w3.org/2000/svg"
   xmlns:svg="http://www.w3.org/2000/svg">
  <sodipodi:namedview
     id="namedview1344"
     pagecolor="#ffffff"
     bordercolor="#666666"
     borderopacity="1.0"
     inkscape:pageshadow="2"
     inkscape:pageopacity="0.0"
     inkscape:pagecheckerboard="0"
     inkscape:document-units="mm"
     showgrid="false"
     inkscape:zoom="1.3416246"
     inkscape:cx="221.00072"
     inkscape:cy="159.88079"
     inkscape:window-width="1366"
     inkscape:window-height="705"
     inkscape:window-x="-8"
     inkscape:window-y="-8"
     inkscape:window-maximized="1"
     inkscape:current-layer="layer1" />
  <defs
     id="defs1339" />
  <g
     inkscape:label="Layer 1"
     inkscape:groupmode="layer"
     id="layer1">
    <path
       inkscape:export-ydpi="300"
       inkscape:export-xdpi="300"
       inkscape:connector-curvature="0"
       id="path1036-5"
       d="m 11.766734,12.820143 v 54.81247"
       style="fill:none;stroke:#000000;stroke-width:0.3;stroke-linecap:round;stroke-linejoin:round;stroke-miterlimit:4;stroke-dasharray:none;stroke-opacity:1"
       inkscape:export-filename="C:\Backup\Academic\My Notes\Super Apunte EyM\PNG\Filter-fc.png" />
    <path
       inkscape:export-ydpi="300"
       inkscape:export-xdpi="300"
       inkscape:connector-curvature="0"
       id="path1038-2"
       d="M 11.755094,67.592373 H 107.65738"
       style="fill:none;stroke:#000000;stroke-width:0.3;stroke-linecap:round;stroke-linejoin:round;stroke-miterlimit:4;stroke-dasharray:none;stroke-opacity:1"
       inkscape:export-filename="C:\Backup\Academic\My Notes\Super Apunte EyM\PNG\Filter-fc.png" />
    <path
       inkscape:export-ydpi="300"
       inkscape:export-xdpi="300"
       style="fill:#000000;fill-opacity:1;stroke:#000000;stroke-width:0.264999;stroke-linecap:round;stroke-linejoin:round;stroke-miterlimit:4;stroke-dasharray:none;stroke-opacity:1"
       d="m 11.766734,12.820143 h -1.31851 c 0,0 1.07879,-0.67126 1.31851,-5.1302497 0.23972,4.4589897 1.31852,5.1302497 1.31852,5.1302497 z"
       id="path1040-5"
       inkscape:connector-curvature="0"
       sodipodi:nodetypes="cccc"
       inkscape:export-filename="C:\Backup\Academic\My Notes\Super Apunte EyM\PNG\Filter-fc.png" />
    <path
       inkscape:export-ydpi="300"
       inkscape:export-xdpi="300"
       style="fill:#000000;fill-opacity:1;stroke:#000000;stroke-width:0.264999;stroke-linecap:round;stroke-linejoin:round;stroke-miterlimit:4;stroke-dasharray:none;stroke-opacity:1"
       d="m 107.65738,67.592373 v 1.31849 c 0,0 0.67126,-1.07878 5.13025,-1.31849 -4.45899,-0.23973 -5.13025,-1.31853 -5.13025,-1.31853 z"
       id="path1042-4"
       inkscape:connector-curvature="0"
       sodipodi:nodetypes="cccc"
       inkscape:export-filename="C:\Backup\Academic\My Notes\Super Apunte EyM\PNG\Filter-fc.png" />
    <path
       style="fill:none;stroke:#000000;stroke-width:0.5;stroke-linecap:round;stroke-linejoin:round;stroke-miterlimit:4;stroke-dasharray:none;stroke-opacity:1"
       d="m 11.766734,67.592363 82.86992,-47.84497"
       id="path2533"
       inkscape:export-filename="C:\Backup\Academic\My Notes\Super Apunte EyM\PNG\Filter-fc.png"
       inkscape:export-xdpi="300"
       inkscape:export-ydpi="300" />
    <path
       id="path9550-9"
       title="10*x/(10+x)"
       d="m 14.080004,16.315613 c 0.15389,0.90498 0.30779,1.76463 0.46168,2.58516 0.1539,0.82054 0.30779,1.60178 0.46168,2.34908 0.1539,0.74731 0.30779,1.46046 0.46169,2.14392 0.15389,0.68346 0.30778,1.33704 0.46168,1.96451 0.15389,0.62746 0.30779,1.22864 0.46168,1.80671 0.15389,0.57808 0.30779,1.13291 0.46168,1.66721 0.1539,0.5343 0.30779,1.04794 0.46168,1.54325 0.1539,0.49531 0.30779,0.97218 0.46169,1.43262 0.15388,0.46044 0.30778,0.90435 0.46168,1.33347 0.15389,0.42913 0.30779,0.84338 0.46168,1.24429 0.15389,0.4009 0.30779,0.78837 0.46168,1.16374 0.1539,0.37537 0.30779,0.73858 0.46168,1.09078 0.1539,0.35221 0.30779,0.69335 0.46169,1.02448 0.15389,0.33112 0.30779,0.65216 0.46168,0.96403 0.15389,0.31188 0.30779,0.61453 0.46168,0.90879 0.1539,0.29426 0.30779,0.58007 0.46168,0.85816 0.1539,0.27809 0.30779,0.54842 0.46169,0.81164 0.15389,0.26323 0.30778,0.5193 0.46168,0.76882 0.15389,0.24952 0.30779,0.49243 0.46168,0.72929 0.15389,0.23685 0.30779,0.4676 0.46168,0.69273 0.1539,0.22513 0.30779,0.4446 0.46168,0.65886 0.1539,0.21425 0.30779,0.42326 0.46169,0.62741 0.15389,0.20414 0.30778,0.40341 0.46168,0.59815 0.15389,0.19475 0.30779,0.38494 0.46168,0.57091 0.15389,0.18597 0.30779,0.3677 0.46168,0.54548 0.1539,0.17778 0.30779,0.35159 0.46168,0.52171 0.1539,0.17012 0.30779,0.33652 0.46169,0.49946 0.15389,0.16294 0.30778,0.3224 0.46168,0.47861 0.15389,0.1562 0.30779,0.30914 0.46168,0.45903 0.15389,0.14988 0.30779,0.2967 0.46168,0.44063 0.1539,0.14394 0.30779,0.28499 0.46168,0.42332 0.1539,0.13834 0.30779,0.27395 0.46169,0.40701 0.15389,0.13306 0.30778,0.26355 0.46168,0.39162 0.15389,0.12808 0.30779,0.25372 0.46168,0.37709 0.15389,0.12337 0.30779,0.24444 0.46168,0.36335 0.1539,0.11891 0.30779,0.23566 0.46168,0.35035 0.1539,0.1147 0.30779,0.22734 0.46169,0.33804 0.15389,0.1107 0.30778,0.21945 0.46168,0.32636 0.15389,0.10691 0.30779,0.21197 0.46168,0.31528 0.15389,0.10331 0.30779,0.20486 0.46168,0.30475 0.1539,0.0999 0.30779,0.1981 0.46168,0.29474 0.15389,0.0966 0.30778,0.19168 0.46168,0.28522 0.15389,0.0935 0.30779,0.18556 0.46168,0.27615 0.15389,0.0906 0.30779,0.17973 0.46168,0.26751 0.1539,0.0878 0.30779,0.17417 0.46168,0.25926 0.1539,0.0851 0.30779,0.16887 0.46169,0.2514 0.15389,0.0825 0.30778,0.1638 0.46168,0.24388 0.15389,0.0801 0.30779,0.15896 0.46168,0.23669 0.15389,0.0777 0.30779,0.15433 0.46168,0.22983 0.1539,0.0755 0.30779,0.1499 0.46168,0.22325 0.1539,0.0734 0.30779,0.14565 0.46169,0.21695 0.15389,0.0713 0.30778,0.14159 0.46168,0.21092 0.15389,0.0693 0.30779,0.13769 0.46168,0.20513 0.15389,0.0674 0.30779,0.13395 0.46168,0.19958 0.1539,0.0656 0.30779,0.13036 0.46168,0.19425 0.1539,0.0639 0.30779,0.12692 0.46169,0.18913 0.15389,0.0622 0.30778,0.12361 0.46168,0.18421 0.15389,0.0606 0.30779,0.12043 0.46168,0.17949 0.15389,0.0591 0.30779,0.11736 0.46168,0.17493 0.1539,0.0576 0.30779,0.11442 0.46168,0.17056 0.1539,0.0561 0.30779,0.11157 0.46169,0.16633 0.15389,0.0548 0.30778,0.10885 0.46168,0.16228 0.15389,0.0534 0.30779,0.10621 0.46168,0.15836 0.15389,0.0521 0.30779,0.10367 0.46168,0.15459 0.1539,0.0509 0.30779,0.10122 0.46168,0.15094 0.1539,0.0497 0.30779,0.0989 0.46169,0.14743 0.15389,0.0486 0.30779,0.0966 0.46168,0.14404 0.15389,0.0475 0.30779,0.0944 0.46168,0.14076 0.1539,0.0464 0.30779,0.0922 0.46168,0.13759 0.1539,0.0453 0.30779,0.0902 0.46169,0.13454 0.15389,0.0444 0.30778,0.0882 0.46168,0.13157 0.15389,0.0434 0.30779,0.0863 0.46168,0.12871 0.15389,0.0424 0.30779,0.0844 0.46168,0.12593 0.1539,0.0415 0.30779,0.0826 0.46168,0.12326 0.1539,0.0406 0.30779,0.0809 0.46169,0.12066 0.15389,0.0398 0.30778,0.0792 0.46168,0.11814 0.15389,0.039 0.30779,0.0775 0.46168,0.1157 0.15389,0.0382 0.30779,0.076 0.46168,0.11334 0.1539,0.0374 0.30779,0.0744 0.46168,0.11105 0.1539,0.0367 0.30779,0.0729 0.46169,0.10882 0.15389,0.0359 0.30779,0.0715 0.46168,0.10667 0.15389,0.0352 0.30779,0.0701 0.46168,0.10458 0.15389,0.0345 0.30779,0.0687 0.46168,0.10254 0.1539,0.0339 0.30779,0.0674 0.46168,0.10056 0.1539,0.0332 0.30779,0.0661 0.46169,0.0987 0.15389,0.0326 0.30779,0.0648 0.46168,0.0968 0.15389,0.032 0.30779,0.0636 0.46168,0.095 0.1539,0.0314 0.30779,0.0624 0.46168,0.0932 0.1539,0.0308 0.30779,0.0613 0.46169,0.0915 0.15389,0.0302 0.30778,0.0602 0.46168,0.0898 0.15389,0.0297 0.30779,0.0591 0.46168,0.0882 0.15389,0.0291 0.30779,0.058 0.46168,0.0866 0.1539,0.0286 0.30779,0.057 0.46169,0.0851 0.15389,0.0281 0.30778,0.056 0.46168,0.0836 0.15389,0.0276 0.30778,0.055 0.46168,0.0822 0.15389,0.0272 0.30779,0.0541 0.46168,0.0807 0.15389,0.0267 0.30779,0.0531 0.46168,0.0794 0.1539,0.0262 0.30779,0.0522 0.46168,0.078 0.1539,0.0258 0.30779,0.0514 0.46169,0.0767 0.15389,0.0254 0.30778,0.0505 0.46169,0.0754 0.15388,0.0249 0.30778,0.0496 0.46168,0.0742 0.15388,0.0245 0.30778,0.0488 0.46168,0.073 0.1539,0.0241 0.30778,0.048 0.46169,0.0718 0.15389,0.0237 0.30777,0.0473 0.46168,0.0706 0.15389,0.0233 0.30777,0.0465 0.46168,0.0695 0.15389,0.023 0.30778,0.0458 0.46168,0.0684 0.15389,0.0226 0.30778,0.045 0.46168,0.0673 0.1539,0.0222 0.30778,0.0443 0.46169,0.0662 0.15389,0.0219 0.30778,0.0436 0.46168,0.0652 0.15389,0.0216 0.30778,0.043 0.46168,0.0642 0.15389,0.0212 0.30779,0.0423 0.46168,0.0632 0.15389,0.0209 0.30779,0.0417 0.46168,0.0623 0.1539,0.0206 0.30779,0.041 0.46169,0.0613 0.15389,0.0203 0.30778,0.0404 0.46168,0.0604 0.15389,0.02 0.30779,0.0398 0.46168,0.0595 0.15389,0.0197 0.30779,0.0392 0.46168,0.0586 0.1539,0.0194 0.30779,0.0387 0.46168,0.0578 0.1539,0.0191 0.30779,0.0381 0.46169,0.057 0.15389,0.0188 0.30778,0.0376 0.46168,0.0561 0.15389,0.0186 0.30779,0.037 0.46168,0.0553 0.1539,0.0183 0.30779,0.0365 0.46168,0.0546 0.1539,0.018 0.30779,0.036 0.46168,0.0538 0.1539,0.0178 0.30779,0.0355 0.46169,0.053 0.15389,0.0176 0.30778,0.035 0.46168,0.0523 0.15389,0.0173 0.30779,0.0345 0.46168,0.0516 0.1539,0.0171 0.30779,0.034 0.46168,0.0509 0.1539,0.0168 0.30779,0.0336 0.46168,0.0502 0.1539,0.0166 0.30779,0.0331 0.46169,0.0495 0.15389,0.0164 0.30779,0.0327 0.46168,0.0488 0.15389,0.0162 0.30779,0.0322 0.46168,0.0482 0.1539,0.016 0.30779,0.0318 0.46168,0.0475 0.1539,0.0157 0.30779,0.0314 0.46168,0.0469 0.1539,0.0155 0.30779,0.031 0.46169,0.0463 0.15389,0.0153 0.30778,0.0306 0.46168,0.0457 0.15389,0.0151 0.30779,0.0302 0.46168,0.0451 0.1539,0.0149 0.30779,0.0298 0.46168,0.0445 0.1539,0.0147 0.30779,0.0294 0.46169,0.0439 0.15389,0.0146 0.30778,0.029 0.46168,0.0434 0.15389,0.0144 0.30778,0.0287 0.46168,0.0428 0.15389,0.0142 0.30779,0.0283 0.46168,0.0423 0.1539,0.014 0.30779,0.028 0.46168,0.0418 0.1539,0.0138 0.30779,0.0276 0.46169,0.0413 0.15389,0.0137 0.30779,0.0273 0.46168,0.0408 0.15389,0.0135 0.30779,0.0269 0.46168,0.0403 0.15389,0.0133 0.30779,0.0266 0.46168,0.0398 0.1539,0.0132 0.30779,0.0263 0.46168,0.0393 0.1539,0.013 0.30779,0.026 0.46169,0.0388 0.15389,0.0129 0.30779,0.0257 0.46168,0.0384 0.15389,0.0127 0.30779,0.0254 0.46168,0.0379 0.15389,0.0126 0.30779,0.0251 0.46168,0.0375 0.1539,0.0124 0.30779,0.0248 0.46168,0.037 0.1539,0.0123 0.30779,0.0245 0.46169,0.0366 0.15389,0.0121 0.30779,0.0242 0.46168,0.0362 0.15389,0.012 0.30779,0.0239 0.46168,0.0358 0.15389,0.0118 0.30779,0.0236 0.46168,0.0353 0.1539,0.0117 0.30779,0.0234 0.46169,0.0349 0.15389,0.0116 0.30778,0.0231 0.46168,0.0346 0.15389,0.0115 0.30779,0.0228 0.46168,0.0342 0.15389,0.0113 0.30779,0.0226 0.46168,0.0338 0.15389,0.0112 0.30779,0.0223 0.46168,0.0334 0.1539,0.0111 0.30779,0.0221 0.46168,0.033 0.1539,0.011 0.30779,0.0218 0.46169,0.0327 0.15389,0.0108 0.30779,0.0216 0.46168,0.0323 0.15389,0.0107 0.30779,0.0214 0.46168,0.032 0.1539,0.0106 0.30779,0.0211 0.46168,0.0316 0.1539,0.0105 0.30779,0.0209 0.46169,0.0313 0.15389,0.0104 0.30778,0.0207 0.46168,0.031 0.15389,0.0103 0.30779,0.0205 0.46168,0.0306 0.15389,0.0102 0.30779,0.0202 0.46168,0.0303 0.1539,0.01 0.30779,0.02 0.46169,0.03 0.15389,0.01 0.30778,0.0198 0.46168,0.0297 0.15389,0.01 0.30778,0.0196 0.46168,0.0293 0.15389,0.01 0.30779,0.0194 0.46168,0.029 0.15389,0.01 0.30779,0.0192 0.46168,0.0288 0.1539,0.01 0.30779,0.019 0.46169,0.0285 0.15389,0.009 0.30778,0.0188 0.46168,0.0282 0.15389,0.009 0.30778,0.0186 0.46168,0.0279 0.15389,0.009 0.30779,0.0184 0.46168,0.0276 0.15389,0.009 0.30779,0.0183 0.46168,0.0273 0.1539,0.009 0.30779,0.0181 0.46169,0.027 0.15389,0.009 0.30778,0.0179 0.46168,0.0268 0.15389,0.009 0.30778,0.0177 0.46168,0.0265 0.15389,0.009 0.30779,0.0175 0.46168,0.0263 0.1539,0.009 0.30779,0.0174 0.46168,0.026 0.1539,0.009 0.30779,0.0172 0.46169,0.0257 0.15389,0.009 0.30778,0.017 0.46168,0.0255 0.153886,0.008 0.307776,0.0169 0.461676,0.0252 0.15389,0.008 0.30779,0.0167 0.46168,0.025 0.1539,0.008 0.30779,0.0165 0.46168,0.0248 0.1539,0.008 0.30779,0.0164 0.46169,0.0245 0.15389,0.008 0.30778,0.0162 0.46168,0.0243 0.15389,0.008 0.30779,0.0161 0.46168,0.024 0.15389,0.008 0.30779,0.0159 0.46168,0.0238 0.1539,0.008 0.30779,0.0158 0.46168,0.0236 0.1539,0.008 0.30779,0.0156 0.46169,0.0234 0.15389,0.008 0.30778,0.0155 0.46168,0.0232 0.15389,0.008 0.30779,0.0153 0.46168,0.023 0.1539,0.008 0.30779,0.0152 0.46168,0.0228 0.1539,0.008 0.30779,0.0151 0.46168,0.0225"
       style="fill:none;fill-opacity:1;fill-rule:evenodd;stroke:#000000;stroke-width:0.499999;stroke-linecap:round;stroke-linejoin:round;stroke-miterlimit:4;stroke-dasharray:none;stroke-dashoffset:0;stroke-opacity:1;paint-order:normal"
       inkscape:connector-curvature="0"
       inkscape:export-filename="C:\Backup\Academic\My Notes\Super Apunte EyM\PNG\Filter-fc.png"
       inkscape:export-xdpi="300"
       inkscape:export-ydpi="300" />
    <path
       style="fill:none;stroke:#000000;stroke-width:0.5;stroke-linecap:butt;stroke-linejoin:miter;stroke-miterlimit:4;stroke-dasharray:2, 2;stroke-dashoffset:0;stroke-opacity:1"
       d="m 35.286324,54.013313 v 13.57905"
       id="path2550"
       inkscape:export-filename="C:\Backup\Academic\My Notes\Super Apunte EyM\PNG\Filter-fc.png"
       inkscape:export-xdpi="300"
       inkscape:export-ydpi="300" />
    <path
       style="fill:none;stroke:#000000;stroke-width:0.5;stroke-linecap:round;stroke-linejoin:round;stroke-miterlimit:4;stroke-dasharray:none;stroke-dashoffset:0;stroke-opacity:1"
       d="M 106.00018,54.013283 H 11.766734"
       id="path2550-5"
       inkscape:export-filename="C:\Backup\Academic\My Notes\Super Apunte EyM\PNG\Filter-fc.png"
       inkscape:export-xdpi="300"
       inkscape:export-ydpi="300" />
    <circle
       style="fill:#000000;fill-opacity:1;fill-rule:evenodd;stroke:none;stroke-width:0.300001;stroke-linecap:round;stroke-linejoin:round;stroke-miterlimit:4;stroke-dasharray:none;stroke-dashoffset:0;stroke-opacity:1;paint-order:stroke fill markers"
       id="circle1664-2"
       cx="35.286304"
       cy="54.013317"
       inkscape:export-filename="C:\Backup\Academic\My Notes\Super Apunte EyM\PNG\Filter-fc.png"
       inkscape:export-xdpi="300"
       inkscape:export-ydpi="300"
       r="1.5" />
    <text
       xml:space="preserve"
       style="font-style:normal;font-weight:normal;font-size:5.12511px;line-height:1.25;font-family:sans-serif;fill:#000000;fill-opacity:1;stroke:none;stroke-width:0.264583"
       x="3.7656889"
       y="7.8296323"
       id="text1607"><tspan
         sodipodi:role="line"
         id="tspan1605"
         style="stroke-width:0.264583"
         x="3.7656889"
         y="7.8296323">$Z$</tspan></text>
    <text
       xml:space="preserve"
       style="font-style:normal;font-weight:normal;font-size:5.12511px;line-height:1.25;font-family:sans-serif;fill:#000000;fill-opacity:1;stroke:none;stroke-width:0.264583"
       x="18.240902"
       y="24.002338"
       id="text1607-9"><tspan
         sodipodi:role="line"
         id="tspan1605-2"
         style="stroke-width:0.264583"
         x="18.240902"
         y="24.002338">$C$</tspan></text>
    <text
       xml:space="preserve"
       style="font-style:normal;font-weight:normal;font-size:5.12511px;line-height:1.25;font-family:sans-serif;fill:#000000;fill-opacity:1;stroke:none;stroke-width:0.264583"
       x="76.449234"
       y="24.002338"
       id="text2531"><tspan
         sodipodi:role="line"
         id="tspan2529"
         style="stroke-width:0.264583"
         x="76.449234"
         y="24.002338">$L$</tspan></text>
    <text
       xml:space="preserve"
       style="font-style:normal;font-weight:normal;font-size:5.12511px;line-height:1.25;font-family:sans-serif;fill:#000000;fill-opacity:1;stroke:none;stroke-width:0.264583"
       x="92.324226"
       y="50.460674"
       id="text2849"><tspan
         sodipodi:role="line"
         id="tspan2847"
         style="stroke-width:0.264583"
         x="92.324226"
         y="50.460674">$R$</tspan></text>
    <text
       xml:space="preserve"
       style="font-style:normal;font-weight:normal;font-size:5.12511px;line-height:1.25;font-family:sans-serif;fill:#000000;fill-opacity:1;stroke:none;stroke-width:0.264583"
       x="30.401924"
       y="72.844635"
       id="text3035"><tspan
         sodipodi:role="line"
         id="tspan3033"
         style="stroke-width:0.264583"
         x="30.401924"
         y="72.844635">$f_c$</tspan></text>
    <text
       xml:space="preserve"
       style="font-style:normal;font-weight:normal;font-size:5.12511px;line-height:1.25;font-family:sans-serif;fill:#000000;fill-opacity:1;stroke:none;stroke-width:0.264583"
       x="108.39642"
       y="63.24736"
       id="text4015"><tspan
         sodipodi:role="line"
         id="tspan4013"
         style="stroke-width:0.264583"
         x="108.39642"
         y="63.24736">$f$</tspan></text>
  </g>
</svg>
