<?xml version="1.0" encoding="UTF-8" standalone="no"?>
<!-- Created with Inkscape (http://www.inkscape.org/) -->

<svg
   width="140mm"
   height="85mm"
   viewBox="0 0 140 85"
   version="1.1"
   id="svg12235"
   inkscape:version="1.1 (c68e22c387, 2021-05-23)"
   sodipodi:docname="fuente-de-tension-modelo-5.svg"
   xmlns:inkscape="http://www.inkscape.org/namespaces/inkscape"
   xmlns:sodipodi="http://sodipodi.sourceforge.net/DTD/sodipodi-0.dtd"
   xmlns="http://www.w3.org/2000/svg"
   xmlns:svg="http://www.w3.org/2000/svg">
  <sodipodi:namedview
     id="namedview12237"
     pagecolor="#ffffff"
     bordercolor="#666666"
     borderopacity="1.0"
     inkscape:pageshadow="2"
     inkscape:pageopacity="0.0"
     inkscape:pagecheckerboard="0"
     inkscape:document-units="mm"
     showgrid="false"
     inkscape:zoom="0.47433592"
     inkscape:cx="36.893685"
     inkscape:cy="216.09158"
     inkscape:window-width="1366"
     inkscape:window-height="705"
     inkscape:window-x="-8"
     inkscape:window-y="-8"
     inkscape:window-maximized="1"
     inkscape:current-layer="layer1" />
  <defs
     id="defs12232" />
  <g
     inkscape:label="Layer 1"
     inkscape:groupmode="layer"
     id="layer1">
    <path
       style="fill:none;stroke:#000000;stroke-width:0.3;stroke-linecap:round;stroke-linejoin:round;stroke-miterlimit:4;stroke-dasharray:none;stroke-opacity:1"
       d="M 23.029242,9.6989066 V 73.082207"
       id="path828-8"
       inkscape:connector-curvature="0"
       inkscape:export-xdpi="300"
       inkscape:export-ydpi="300"
       inkscape:export-filename="C:\Backup\Academic\My Notes\Super Apunte EyM\PNG\VsRc.png" />
    <path
       style="fill:none;stroke:#000000;stroke-width:0.3;stroke-linecap:round;stroke-linejoin:round;stroke-miterlimit:4;stroke-dasharray:none;stroke-opacity:1"
       d="M 23.029242,73.062237 H 126.99775"
       id="path830-0"
       inkscape:connector-curvature="0"
       inkscape:export-xdpi="300"
       inkscape:export-ydpi="300"
       inkscape:export-filename="C:\Backup\Academic\My Notes\Super Apunte EyM\PNG\VsRc.png" />
    <path
       sodipodi:nodetypes="cccc"
       inkscape:connector-curvature="0"
       id="path876-9"
       d="m 23.029242,9.6989066 h -1.31851 c 0,0 1.07879,-0.67126 1.31851,-5.13025 0.23972,4.45899 1.31852,5.13025 1.31852,5.13025 z"
       style="fill:#000000;fill-opacity:1;stroke:#000000;stroke-width:0.265;stroke-linecap:round;stroke-linejoin:round;stroke-miterlimit:4;stroke-dasharray:none;stroke-opacity:1"
       inkscape:export-xdpi="300"
       inkscape:export-ydpi="300"
       inkscape:export-filename="C:\Backup\Academic\My Notes\Super Apunte EyM\PNG\VsRc.png" />
    <path
       sodipodi:nodetypes="cccc"
       inkscape:connector-curvature="0"
       id="path876-2"
       d="m 126.99775,73.062237 v 1.3185 c 0,0 0.67126,-1.07879 5.13025,-1.3185 -4.45899,-0.23972 -5.13025,-1.31853 -5.13025,-1.31853 z"
       style="fill:#000000;fill-opacity:1;stroke:#000000;stroke-width:0.265;stroke-linecap:round;stroke-linejoin:round;stroke-miterlimit:4;stroke-dasharray:none;stroke-opacity:1"
       inkscape:export-xdpi="300"
       inkscape:export-ydpi="300"
       inkscape:export-filename="C:\Backup\Academic\My Notes\Super Apunte EyM\PNG\VsRc.png" />
    <path
       id="path9550"
       title="10*x/(10+x)"
       d="m 23.029252,73.062317 c 0.15389,-0.90498 0.30779,-1.76464 0.46168,-2.58517 0.1539,-0.82053 0.30779,-1.60177 0.46168,-2.34907 0.1539,-0.74731 0.30779,-1.46046 0.46169,-2.14392 0.15389,-0.68346 0.30778,-1.33705 0.46168,-1.96451 0.15389,-0.62747 0.30779,-1.22864 0.46168,-1.80672 0.15389,-0.57808 0.30779,-1.1329 0.46168,-1.6672 0.1539,-0.5343 0.30779,-1.04794 0.46168,-1.54325 0.1539,-0.49531 0.30779,-0.97218 0.46169,-1.43262 0.15389,-0.46044 0.30778,-0.90435 0.46168,-1.33348 0.15389,-0.42912 0.30779,-0.84338 0.46168,-1.24428 0.15389,-0.4009 0.30779,-0.78837 0.46168,-1.16374 0.1539,-0.37538 0.30779,-0.73858 0.46168,-1.09079 0.1539,-0.3522 0.30779,-0.69335 0.46169,-1.02447 0.15389,-0.33112 0.30779,-0.65216 0.46168,-0.96403 0.15389,-0.31188 0.30779,-0.61454 0.46168,-0.90879 0.1539,-0.29426 0.30779,-0.58007 0.46168,-0.85816 0.1539,-0.27809 0.30779,-0.54842 0.46169,-0.81165 0.15389,-0.26322 0.30778,-0.5193 0.46168,-0.76881 0.15389,-0.24952 0.30779,-0.49244 0.46168,-0.72929 0.15389,-0.23685 0.30779,-0.4676 0.46168,-0.69273 0.1539,-0.22513 0.30779,-0.44461 0.46168,-0.65886 0.1539,-0.21426 0.30779,-0.42326 0.46169,-0.62741 0.15389,-0.20415 0.30778,-0.40341 0.46168,-0.59816 0.15389,-0.19474 0.30779,-0.38493 0.46168,-0.5709 0.15389,-0.18598 0.30779,-0.3677 0.46168,-0.54548 0.1539,-0.17778 0.30779,-0.35159 0.46168,-0.52171 0.1539,-0.17012 0.30779,-0.33652 0.46169,-0.49946 0.15389,-0.16294 0.30778,-0.3224 0.46168,-0.47861 0.15389,-0.15621 0.30779,-0.30915 0.46168,-0.45903 0.15389,-0.14989 0.30779,-0.2967 0.46168,-0.44064 0.1539,-0.14393 0.30779,-0.28498 0.46168,-0.42332 0.1539,-0.13833 0.30779,-0.27395 0.46169,-0.407 0.15389,-0.13306 0.30778,-0.26355 0.46168,-0.39162 0.15389,-0.12808 0.30779,-0.25373 0.46168,-0.37709 0.15389,-0.12337 0.30779,-0.24444 0.46168,-0.36335 0.1539,-0.11892 0.30779,-0.23566 0.46168,-0.35036 0.1539,-0.11469 0.30779,-0.22733 0.46169,-0.33803 0.15389,-0.1107 0.30778,-0.21945 0.46168,-0.32636 0.15389,-0.10691 0.30779,-0.21197 0.46168,-0.31528 0.15389,-0.10331 0.30779,-0.20486 0.46168,-0.30475 0.1539,-0.0999 0.30779,-0.19811 0.46169,-0.29474 0.15389,-0.0966 0.30778,-0.19169 0.46168,-0.28522 0.15389,-0.0935 0.30779,-0.18557 0.46168,-0.27615 0.15389,-0.0906 0.30779,-0.17974 0.46168,-0.26751 0.1539,-0.0878 0.30779,-0.17418 0.46168,-0.25927 0.1539,-0.0851 0.30779,-0.16886 0.46169,-0.25139 0.15389,-0.0825 0.30778,-0.1638 0.46168,-0.24388 0.15389,-0.0801 0.30779,-0.15896 0.46168,-0.2367 0.15389,-0.0777 0.30779,-0.15433 0.46168,-0.22982 0.1539,-0.0755 0.30779,-0.1499 0.46168,-0.22325 0.1539,-0.0734 0.30779,-0.14566 0.46169,-0.21696 0.15389,-0.0713 0.30778,-0.14158 0.46168,-0.21091 0.15389,-0.0693 0.30779,-0.13769 0.46168,-0.20513 0.15389,-0.0674 0.30779,-0.13396 0.46168,-0.19958 0.1539,-0.0656 0.30779,-0.13037 0.46168,-0.19425 0.1539,-0.0639 0.30779,-0.12692 0.46169,-0.18914 0.15389,-0.0622 0.30778,-0.1236 0.46168,-0.18421 0.15389,-0.0606 0.30779,-0.12042 0.46168,-0.17948 0.15389,-0.0591 0.30779,-0.11736 0.46168,-0.17494 0.1539,-0.0576 0.30779,-0.11441 0.46168,-0.17055 0.1539,-0.0561 0.30779,-0.11158 0.46169,-0.16634 0.15389,-0.0548 0.30778,-0.10884 0.46168,-0.16227 0.15389,-0.0534 0.30779,-0.10621 0.46168,-0.15836 0.15389,-0.0521 0.30779,-0.10368 0.46168,-0.15459 0.1539,-0.0509 0.30779,-0.10122 0.46168,-0.15095 0.1539,-0.0497 0.30779,-0.0989 0.46169,-0.14743 0.15389,-0.0486 0.30779,-0.0966 0.46168,-0.14403 0.15389,-0.0475 0.30779,-0.0944 0.46168,-0.14076 0.1539,-0.0464 0.30779,-0.0922 0.46168,-0.1376 0.1539,-0.0453 0.30779,-0.0902 0.46169,-0.13453 0.15389,-0.0444 0.30778,-0.0882 0.46168,-0.13157 0.15389,-0.0434 0.30779,-0.0863 0.46168,-0.12871 0.15389,-0.0424 0.30779,-0.0844 0.46168,-0.12594 0.1539,-0.0415 0.30779,-0.0826 0.46168,-0.12325 0.1539,-0.0407 0.30779,-0.0809 0.46169,-0.12066 0.15389,-0.0398 0.30778,-0.0792 0.46168,-0.11814 0.15389,-0.039 0.30779,-0.0775 0.46168,-0.11571 0.15389,-0.0382 0.30779,-0.076 0.46168,-0.11334 0.1539,-0.0374 0.30779,-0.0744 0.46168,-0.11104 0.1539,-0.0367 0.30779,-0.0729 0.46169,-0.10883 0.15389,-0.0359 0.30778,-0.0715 0.46168,-0.10667 0.15389,-0.0352 0.30779,-0.0701 0.46168,-0.10457 0.15389,-0.0345 0.30779,-0.0687 0.46168,-0.10254 0.1539,-0.0339 0.30779,-0.0674 0.46168,-0.10057 0.1539,-0.0332 0.30779,-0.0661 0.46169,-0.0987 0.15389,-0.0326 0.30778,-0.0648 0.46168,-0.0968 0.15389,-0.032 0.30779,-0.0636 0.46168,-0.095 0.1539,-0.0314 0.30779,-0.0624 0.46168,-0.0932 0.1539,-0.0308 0.30779,-0.0613 0.46169,-0.0915 0.15389,-0.0302 0.30778,-0.0602 0.46168,-0.0898 0.15389,-0.0297 0.30779,-0.0591 0.46168,-0.0882 0.15389,-0.0291 0.30779,-0.058 0.46168,-0.0866 0.15389,-0.0286 0.30779,-0.057 0.46168,-0.0851 0.1539,-0.0281 0.30779,-0.056 0.46168,-0.0836 0.1539,-0.0276 0.30779,-0.055 0.46169,-0.0822 0.15389,-0.0272 0.30778,-0.054 0.46168,-0.0807 0.15389,-0.0267 0.30779,-0.0531 0.46168,-0.0794 0.15389,-0.0262 0.30779,-0.0522 0.46168,-0.078 0.1539,-0.0258 0.30779,-0.0513 0.46168,-0.0767 0.1539,-0.0254 0.30779,-0.0505 0.46169,-0.0754 0.15389,-0.0249 0.30779,-0.0497 0.46168,-0.0742 0.15389,-0.0245 0.30779,-0.0488 0.46168,-0.073 0.1539,-0.0241 0.30779,-0.048 0.46168,-0.0718 0.1539,-0.0237 0.30779,-0.0473 0.46169,-0.0706 0.15389,-0.0233 0.30778,-0.0465 0.46168,-0.0695 0.15389,-0.023 0.30779,-0.0458 0.46168,-0.0684 0.15389,-0.0226 0.30779,-0.045 0.46168,-0.0673 0.1539,-0.0222 0.30779,-0.0443 0.46168,-0.0662 0.1539,-0.0219 0.30779,-0.0436 0.46169,-0.0652 0.15389,-0.0216 0.30778,-0.043 0.46168,-0.0642 0.15389,-0.0212 0.30779,-0.0423 0.46168,-0.0632 0.15389,-0.0209 0.30779,-0.0417 0.46168,-0.0623 0.1539,-0.0206 0.30779,-0.041 0.46168,-0.0613 0.1539,-0.0203 0.30779,-0.0404 0.46169,-0.0604 0.15389,-0.02 0.30778,-0.0398 0.46168,-0.0595 0.15389,-0.0197 0.30779,-0.0392 0.46168,-0.0586 0.15389,-0.0194 0.30779,-0.0387 0.46168,-0.0578 0.1539,-0.0191 0.30779,-0.0381 0.46168,-0.057 0.1539,-0.0189 0.30779,-0.0376 0.46169,-0.0561 0.15389,-0.0186 0.30778,-0.037 0.46168,-0.0553 0.15389,-0.0183 0.30779,-0.0365 0.46168,-0.0546 0.15389,-0.0181 0.30779,-0.036 0.46168,-0.0538 0.1539,-0.0178 0.30779,-0.0355 0.46168,-0.053 0.1539,-0.0175 0.30779,-0.035 0.46169,-0.0523 0.15389,-0.0173 0.30778,-0.0345 0.46168,-0.0516 0.15389,-0.0171 0.30779,-0.034 0.46168,-0.0509 0.1539,-0.0168 0.30779,-0.0336 0.46168,-0.0502 0.1539,-0.0166 0.30779,-0.0331 0.46169,-0.0495 0.15389,-0.0164 0.30778,-0.0327 0.46168,-0.0488 0.15389,-0.0162 0.30779,-0.0322 0.46168,-0.0482 0.15389,-0.0159 0.30779,-0.0318 0.46168,-0.0475 0.1539,-0.0157 0.30779,-0.0314 0.46168,-0.0469 0.1539,-0.0155 0.30779,-0.031 0.46169,-0.0463 0.15389,-0.0153 0.30778,-0.0306 0.46168,-0.0457 0.15389,-0.0151 0.30779,-0.0302 0.46168,-0.0451 0.15389,-0.0149 0.30779,-0.0298 0.46168,-0.0445 0.1539,-0.0147 0.30779,-0.0294 0.46168,-0.0439 0.1539,-0.0146 0.30779,-0.029 0.46169,-0.0434 0.15389,-0.0144 0.30778,-0.0287 0.46168,-0.0428 0.15389,-0.0142 0.30779,-0.0283 0.46168,-0.0423 0.15389,-0.014 0.30779,-0.028 0.46168,-0.0418 0.1539,-0.0138 0.30779,-0.0276 0.46168,-0.0413 0.1539,-0.0137 0.30779,-0.0273 0.46169,-0.0408 0.15389,-0.0135 0.30778,-0.0269 0.46168,-0.0403 0.15389,-0.0133 0.30779,-0.0266 0.46168,-0.0398 0.15389,-0.0132 0.30779,-0.0263 0.46168,-0.0393 0.1539,-0.013 0.30779,-0.026 0.46168,-0.0388 0.1539,-0.0129 0.30779,-0.0257 0.46169,-0.0384 0.15389,-0.0127 0.30778,-0.0254 0.46168,-0.0379 0.15389,-0.0126 0.30779,-0.0251 0.46168,-0.0375 0.15389,-0.0124 0.30779,-0.0248 0.46168,-0.037 0.1539,-0.0123 0.30779,-0.0245 0.46168,-0.0366 0.1539,-0.0121 0.30779,-0.0242 0.46169,-0.0362 0.15389,-0.012 0.30779,-0.0239 0.46168,-0.0358 0.15389,-0.0118 0.30779,-0.0236 0.46168,-0.0353 0.1539,-0.0117 0.30779,-0.0234 0.46168,-0.0349 0.1539,-0.0116 0.30779,-0.0231 0.46169,-0.0346 0.15389,-0.0115 0.30778,-0.0228 0.46168,-0.0342 0.15389,-0.0113 0.30779,-0.0226 0.46168,-0.0338 0.15389,-0.0112 0.30779,-0.0223 0.46168,-0.0334 0.1539,-0.0111 0.30779,-0.0221 0.46168,-0.033 0.1539,-0.011 0.30779,-0.0218 0.46169,-0.0327 0.15389,-0.0108 0.30778,-0.0216 0.46168,-0.0323 0.15389,-0.0107 0.30779,-0.0214 0.46168,-0.032 0.15389,-0.0106 0.30779,-0.0211 0.46168,-0.0316 0.1539,-0.0105 0.30779,-0.0209 0.46168,-0.0313 0.1539,-0.0104 0.30779,-0.0207 0.461688,-0.0309 0.15389,-0.0103 0.30778,-0.0205 0.46168,-0.0306 0.15389,-0.0101 0.30779,-0.0202 0.46168,-0.0303 0.15389,-0.01 0.30779,-0.02 0.46168,-0.03 0.1539,-0.01 0.30779,-0.0198 0.46168,-0.0297 0.1539,-0.01 0.30779,-0.0196 0.46169,-0.0294 0.15389,-0.01 0.30778,-0.0194 0.46168,-0.029 0.15389,-0.01 0.30779,-0.0192 0.46168,-0.0287 0.15389,-0.01 0.30779,-0.019 0.46168,-0.0285 0.1539,-0.009 0.30779,-0.0188 0.46168,-0.0282 0.1539,-0.009 0.30779,-0.0186 0.46169,-0.0279 0.15389,-0.009 0.30778,-0.0184 0.46168,-0.0276 0.15389,-0.009 0.30779,-0.0182 0.46168,-0.0273 0.1539,-0.009 0.30779,-0.0181 0.46168,-0.027 0.1539,-0.009 0.30779,-0.0179 0.46169,-0.0268 0.15389,-0.009 0.30778,-0.0177 0.46168,-0.0265 0.15389,-0.009 0.30779,-0.0175 0.46168,-0.0263 0.15389,-0.009 0.30779,-0.0174 0.46168,-0.026 0.1539,-0.009 0.30779,-0.0172 0.46168,-0.0257 0.1539,-0.009 0.30779,-0.017 0.46169,-0.0255 0.15389,-0.008 0.30778,-0.0169 0.46168,-0.0252 0.15389,-0.008 0.30779,-0.0167 0.46168,-0.025 0.15389,-0.008 0.30779,-0.0165 0.46168,-0.0248 0.1539,-0.008 0.30779,-0.0164 0.46168,-0.0245 0.1539,-0.008 0.30779,-0.0162 0.46169,-0.0243 0.15389,-0.008 0.30778,-0.0161 0.46168,-0.0241 0.15389,-0.008 0.30779,-0.0159 0.46168,-0.0238 0.15389,-0.008 0.30779,-0.0158 0.46168,-0.0236 0.1539,-0.008 0.30779,-0.0156 0.46168,-0.0234 0.1539,-0.008 0.30779,-0.0155 0.46169,-0.0232 0.15389,-0.008 0.30778,-0.0153 0.46168,-0.023 0.15389,-0.008 0.30779,-0.0152 0.46168,-0.0228 0.15389,-0.008 0.30779,-0.0151 0.46168,-0.0225"
       style="fill:none;fill-opacity:1;fill-rule:evenodd;stroke:#000000;stroke-width:0.5;stroke-linecap:round;stroke-linejoin:round;stroke-miterlimit:4;stroke-dasharray:none;stroke-dashoffset:0;stroke-opacity:1;paint-order:normal"
       inkscape:connector-curvature="0"
       inkscape:export-filename="C:\Backup\Academic\My Notes\Super Apunte EyM\PNG\VsRc.png"
       inkscape:export-xdpi="300"
       inkscape:export-ydpi="300" />
    <path
       style="fill:none;stroke:#000000;stroke-width:0.3;stroke-linecap:butt;stroke-linejoin:miter;stroke-miterlimit:4;stroke-dasharray:2.4, 2.4;stroke-dashoffset:0;stroke-opacity:1"
       d="M 114.90398,22.290527 H 23.029242"
       id="path9555"
       inkscape:connector-curvature="0"
       inkscape:export-filename="C:\Backup\Academic\My Notes\Super Apunte EyM\PNG\VsRc.png"
       inkscape:export-xdpi="300"
       inkscape:export-ydpi="300" />
    <path
       style="fill:none;stroke:#000000;stroke-width:0.3;stroke-linecap:round;stroke-linejoin:round;stroke-miterlimit:4;stroke-dasharray:2.4, 2.4;stroke-dashoffset:0;stroke-opacity:1"
       d="m 31.171702,47.676377 h -8.14246"
       id="path9589"
       inkscape:connector-curvature="0"
       inkscape:export-filename="C:\Backup\Academic\My Notes\Super Apunte EyM\PNG\VsRc.png"
       inkscape:export-xdpi="300"
       inkscape:export-ydpi="300" />
    <path
       style="fill:none;stroke:#000000;stroke-width:0.3;stroke-linecap:round;stroke-linejoin:round;stroke-miterlimit:4;stroke-dasharray:2.4, 2.4;stroke-dashoffset:0;stroke-opacity:1"
       d="m 31.171702,47.676377 v 25.38586"
       id="path9591"
       inkscape:connector-curvature="0"
       inkscape:export-filename="C:\Backup\Academic\My Notes\Super Apunte EyM\PNG\VsRc.png"
       inkscape:export-xdpi="300"
       inkscape:export-ydpi="300" />
    <text
       xml:space="preserve"
       style="font-style:normal;font-weight:normal;font-size:6.41305px;line-height:1.25;font-family:sans-serif;fill:#000000;fill-opacity:1;stroke:none;stroke-width:0.264583"
       x="8.5984898"
       y="12.962179"
       id="text1473"><tspan
         sodipodi:role="line"
         id="tspan1471"
         style="stroke-width:0.264583"
         x="8.5984898"
         y="12.962179">$V_s$</tspan></text>
    <text
       xml:space="preserve"
       style="font-style:normal;font-weight:normal;font-size:6.41305px;line-height:1.25;font-family:sans-serif;fill:#000000;fill-opacity:1;stroke:none;stroke-width:0.264583"
       x="118.5832"
       y="68.16526"
       id="text1473-4"><tspan
         sodipodi:role="line"
         id="tspan1471-6"
         style="stroke-width:0.264583"
         x="118.5832"
         y="68.16526">$R_L$</tspan></text>
    <text
       xml:space="preserve"
       style="font-style:normal;font-weight:normal;font-size:6.41305px;line-height:1.25;font-family:sans-serif;fill:#000000;fill-opacity:1;stroke:none;stroke-width:0.264583"
       x="8.7819281"
       y="24.38438"
       id="text1473-4-7"><tspan
         sodipodi:role="line"
         id="tspan1471-6-4"
         style="stroke-width:0.264583"
         x="8.7819281"
         y="24.38438">$V_F$</tspan></text>
    <text
       xml:space="preserve"
       style="font-style:normal;font-weight:normal;font-size:6.41305px;line-height:1.25;font-family:sans-serif;fill:#000000;fill-opacity:1;stroke:none;stroke-width:0.264583"
       x="8.7819281"
       y="49.265026"
       id="text3502"><tspan
         sodipodi:role="line"
         id="tspan3500"
         style="stroke-width:0.264583"
         x="8.7819281"
         y="49.265026"
         dy="0 0 0 0 0 0 0 0.39442232 0 0 0 0 0 0 0.5916335">$\frac{V_F}{2}$</tspan></text>
    <text
       xml:space="preserve"
       style="font-style:normal;font-weight:normal;font-size:6.41305px;line-height:1.25;font-family:sans-serif;fill:#000000;fill-opacity:1;stroke:none;stroke-width:0.264583"
       x="28.108622"
       y="80.195137"
       id="text1473-4-2"><tspan
         sodipodi:role="line"
         id="tspan1471-6-1"
         style="stroke-width:0.264583"
         x="28.108622"
         y="80.195137">$R_s$</tspan></text>
  </g>
</svg>
