<?xml version="1.0" encoding="UTF-8" standalone="no"?>
<!-- Created with Inkscape (http://www.inkscape.org/) -->

<svg
   width="130mm"
   height="85mm"
   viewBox="0 0 130 85"
   version="1.1"
   id="svg12636"
   inkscape:version="1.1 (c68e22c387, 2021-05-23)"
   sodipodi:docname="fuente-de-tension-modelo-6.svg"
   xmlns:inkscape="http://www.inkscape.org/namespaces/inkscape"
   xmlns:sodipodi="http://sodipodi.sourceforge.net/DTD/sodipodi-0.dtd"
   xmlns="http://www.w3.org/2000/svg"
   xmlns:svg="http://www.w3.org/2000/svg">
  <sodipodi:namedview
     id="namedview12638"
     pagecolor="#ffffff"
     bordercolor="#666666"
     borderopacity="1.0"
     inkscape:pageshadow="2"
     inkscape:pageopacity="0.0"
     inkscape:pagecheckerboard="0"
     inkscape:document-units="mm"
     showgrid="false"
     inkscape:zoom="0.67081229"
     inkscape:cx="283.98406"
     inkscape:cy="152.79982"
     inkscape:window-width="1366"
     inkscape:window-height="705"
     inkscape:window-x="-8"
     inkscape:window-y="-8"
     inkscape:window-maximized="1"
     inkscape:current-layer="layer1" />
  <defs
     id="defs12633">
    <clipPath
       id="clipPath">
      <rect
         y="117.90042"
         x="-136.47594"
         height="49.118069"
         width="91.874748"
         id="rect9593"
         style="opacity:1;fill:none;fill-opacity:1;fill-rule:evenodd;stroke:#000000;stroke-width:0.3;stroke-linecap:round;stroke-linejoin:round;stroke-miterlimit:4;stroke-dasharray:none;stroke-dashoffset:0;stroke-opacity:1;paint-order:normal" />
    </clipPath>
  </defs>
  <g
     inkscape:label="Layer 1"
     inkscape:groupmode="layer"
     id="layer1">
    <path
       inkscape:export-ydpi="300"
       inkscape:export-xdpi="300"
       inkscape:connector-curvature="0"
       id="path1036"
       d="M 17.342422,9.6285766 V 73.011872"
       style="fill:none;stroke:#000000;stroke-width:0.3;stroke-linecap:round;stroke-linejoin:round;stroke-miterlimit:4;stroke-dasharray:none;stroke-opacity:1"
       inkscape:export-filename="C:\Backup\Academic\My Notes\Super Apunte EyM\PNG\IsRc.png" />
    <path
       inkscape:export-ydpi="300"
       inkscape:export-xdpi="300"
       inkscape:connector-curvature="0"
       id="path1038"
       d="M 17.342422,72.991902 H 121.31093"
       style="fill:none;stroke:#000000;stroke-width:0.3;stroke-linecap:round;stroke-linejoin:round;stroke-miterlimit:4;stroke-dasharray:none;stroke-opacity:1"
       inkscape:export-filename="C:\Backup\Academic\My Notes\Super Apunte EyM\PNG\IsRc.png" />
    <path
       inkscape:export-ydpi="300"
       inkscape:export-xdpi="300"
       style="fill:#000000;fill-opacity:1;stroke:#000000;stroke-width:0.265;stroke-linecap:round;stroke-linejoin:round;stroke-miterlimit:4;stroke-dasharray:none;stroke-opacity:1"
       d="m 17.342422,9.6285766 h -1.31851 c 0,0 1.07879,-0.67126 1.31851,-5.13025 0.23972,4.45899 1.31852,5.13025 1.31852,5.13025 z"
       id="path1040"
       inkscape:connector-curvature="0"
       sodipodi:nodetypes="cccc"
       inkscape:export-filename="C:\Backup\Academic\My Notes\Super Apunte EyM\PNG\IsRc.png" />
    <path
       inkscape:export-ydpi="300"
       inkscape:export-xdpi="300"
       style="fill:#000000;fill-opacity:1;stroke:#000000;stroke-width:0.265;stroke-linecap:round;stroke-linejoin:round;stroke-miterlimit:4;stroke-dasharray:none;stroke-opacity:1"
       d="m 121.31093,72.991902 v 1.3185 c 0,0 0.67126,-1.07879 5.13025,-1.3185 -4.45899,-0.23972 -5.13025,-1.31853 -5.13025,-1.31853 z"
       id="path1042"
       inkscape:connector-curvature="0"
       sodipodi:nodetypes="cccc"
       inkscape:export-filename="C:\Backup\Academic\My Notes\Super Apunte EyM\PNG\IsRc.png" />
    <path
       id="path10505"
       clip-path="url(#clipPath)"
       title="100/(10+x)"
       d="m -136.47594,117.90042 c 0.15389,0.82271 0.30779,1.60421 0.46168,2.35015 0.1539,0.74593 0.30779,1.45615 0.46168,2.13552 0.1539,0.67937 0.30779,1.32768 0.46169,1.94901 0.15389,0.62133 0.30778,1.2155 0.46168,1.78592 0.15389,0.57042 0.30779,1.11694 0.46168,1.64247 0.15389,0.52552 0.30779,1.02991 0.46168,1.51563 0.1539,0.48573 0.30779,0.95267 0.46169,1.40295 0.15389,0.45029 0.30778,0.8838 0.46168,1.30238 0.15389,0.41859 0.30779,0.82214 0.46168,1.21225 0.15389,0.39012 0.30779,0.76671 0.46168,1.13117 0.1539,0.36445 0.30779,0.7167 0.46168,1.05795 0.1539,0.34124 0.30779,0.67143 0.46169,0.99162 0.15389,0.32018 0.30778,0.63032 0.46168,0.93134 0.15389,0.30101 0.30779,0.59287 0.46168,0.87639 0.15389,0.28352 0.30779,0.55866 0.46168,0.82617 0.1539,0.2675 0.30779,0.52733 0.46168,0.78014 0.1539,0.25281 0.30779,0.49857 0.46169,0.73786 0.15389,0.23929 0.30778,0.47209 0.46168,0.69892 0.15389,0.22684 0.30779,0.44767 0.46168,0.66299 0.15389,0.21532 0.30779,0.42509 0.46168,0.62976 0.1539,0.20466 0.30779,0.40418 0.46169,0.59896 0.15389,0.19477 0.30778,0.38478 0.46168,0.57037 0.15389,0.18559 0.30779,0.36674 0.46168,0.54378 0.15389,0.17704 0.30779,0.34994 0.46168,0.519 0.1539,0.16907 0.30779,0.33427 0.46168,0.49589 0.1539,0.16162 0.30779,0.31963 0.46169,0.47428 0.15389,0.15465 0.30778,0.30593 0.46168,0.45406 0.15389,0.14812 0.30779,0.29309 0.46168,0.43509 0.15389,0.14201 0.30779,0.28105 0.46168,0.41731 0.1539,0.13625 0.30779,0.26972 0.46168,0.40057 0.1539,0.13085 0.30779,0.25908 0.46169,0.38484 0.15389,0.12576 0.30778,0.24904 0.46168,0.37 0.15389,0.12097 0.30779,0.23959 0.46168,0.35602 0.1539,0.11643 0.30779,0.23066 0.46168,0.34281 0.1539,0.11215 0.30779,0.22221 0.46169,0.33032 0.15389,0.1081 0.30778,0.21423 0.46168,0.3185 0.15389,0.10427 0.30779,0.20667 0.46168,0.3073 0.15389,0.10064 0.30779,0.1995 0.46168,0.29669 0.1539,0.0972 0.30779,0.1927 0.46168,0.28662 0.1539,0.0939 0.30779,0.18624 0.46169,0.27705 0.15389,0.0908 0.30778,0.18009 0.46168,0.26794 0.15389,0.0879 0.30779,0.17426 0.46168,0.25929 0.15389,0.085 0.30779,0.1687 0.46168,0.25105 0.1539,0.0824 0.30779,0.16339 0.46168,0.24319 0.1539,0.0798 0.30779,0.15834 0.46169,0.23569 0.15389,0.0774 0.30778,0.15352 0.46168,0.22854 0.15389,0.075 0.30779,0.14891 0.46168,0.22171 0.1539,0.0728 0.30779,0.14451 0.46168,0.21518 0.1539,0.0707 0.30779,0.1403 0.46169,0.20893 0.15389,0.0686 0.30778,0.13627 0.46168,0.20296 0.15389,0.0667 0.30779,0.13241 0.46168,0.19723 0.15389,0.0648 0.30779,0.12871 0.46168,0.19174 0.1539,0.063 0.30779,0.12517 0.46168,0.18648 0.1539,0.0613 0.30779,0.12178 0.46169,0.18144 0.15389,0.0597 0.30778,0.11851 0.46168,0.17659 0.15389,0.0581 0.30779,0.11538 0.46168,0.17194 0.15389,0.0566 0.30779,0.11236 0.46168,0.16746 0.1539,0.0551 0.30779,0.10948 0.46168,0.16317 0.1539,0.0537 0.30779,0.10669 0.46169,0.15903 0.15389,0.0523 0.30778,0.10401 0.46168,0.15505 0.15389,0.051 0.30779,0.10143 0.46168,0.15121 0.1539,0.0498 0.30779,0.0989 0.46168,0.14753 0.1539,0.0486 0.30779,0.0966 0.46169,0.14396 0.15389,0.0474 0.30778,0.0943 0.46168,0.14054 0.15389,0.0463 0.30779,0.092 0.46168,0.13722 0.15389,0.0452 0.30779,0.0899 0.46168,0.13402 0.1539,0.0442 0.30779,0.0878 0.46168,0.13095 0.1539,0.0431 0.30779,0.0858 0.46169,0.12796 0.15389,0.0422 0.30778,0.0839 0.46168,0.12509 0.15389,0.0412 0.30779,0.082 0.46168,0.1223 0.15389,0.0403 0.30779,0.0802 0.46168,0.11961 0.1539,0.0394 0.30779,0.0784 0.46168,0.11701 0.1539,0.0386 0.30779,0.0767 0.46169,0.11449 0.15389,0.0377 0.30779,0.0751 0.46168,0.11205 0.15389,0.037 0.30779,0.0735 0.46168,0.10968 0.1539,0.0362 0.30779,0.072 0.46168,0.10741 0.1539,0.0354 0.30779,0.0705 0.46169,0.10518 0.15389,0.0347 0.30778,0.069 0.46168,0.10304 0.15389,0.034 0.30779,0.0676 0.46168,0.10095 0.153894,0.0333 0.307788,0.0663 0.461682,0.0989 0.153894,0.0327 0.307788,0.065 0.461682,0.097 0.153894,0.032 0.307788,0.0637 0.461682,0.0951 0.153894,0.0314 0.307788,0.0624 0.461683,0.0932 0.153894,0.0308 0.307788,0.0613 0.461682,0.0914 0.153894,0.0302 0.307788,0.0601 0.461682,0.0897 0.153894,0.0296 0.307788,0.0589 0.461682,0.088 0.153894,0.0291 0.307788,0.0578 0.461682,0.0863 0.153894,0.0285 0.307788,0.0568 0.461682,0.0847 0.153894,0.028 0.307788,0.0557 0.461682,0.0832 0.153894,0.0275 0.307789,0.0547 0.461683,0.0817 0.153894,0.027 0.307788,0.0537 0.461682,0.0802 0.153894,0.0265 0.307788,0.0527 0.461682,0.0788 0.153894,0.026 0.307788,0.0518 0.461682,0.0774 0.153894,0.0256 0.307788,0.0509 0.461682,0.076 0.153894,0.0251 0.307788,0.05 0.461682,0.0747 0.153894,0.0247 0.307788,0.0491 0.461682,0.0734 0.153895,0.0242 0.307789,0.0483 0.461683,0.0721 0.153894,0.0238 0.307788,0.0475 0.461682,0.0709 0.153894,0.0234 0.307788,0.0467 0.461682,0.0697 0.153894,0.0231 0.307788,0.0459 0.461682,0.0686 0.153894,0.0227 0.307788,0.0451 0.461682,0.0674 0.153894,0.0223 0.307788,0.0444 0.461682,0.0663 0.153894,0.0219 0.307788,0.0437 0.461683,0.0652 0.153894,0.0216 0.307788,0.043 0.461682,0.0642 0.153894,0.0212 0.307788,0.0423 0.461682,0.0632 0.153894,0.0209 0.307788,0.0416 0.461682,0.0622 0.153894,0.0206 0.307788,0.0409 0.461682,0.0612 0.153894,0.0202 0.307788,0.0403 0.461682,0.0602 0.153894,0.0199 0.307788,0.0397 0.461682,0.0593 0.153894,0.0196 0.307789,0.0391 0.461683,0.0584 0.153894,0.0193 0.307788,0.0385 0.461682,0.0575 0.153894,0.019 0.307788,0.0379 0.461682,0.0566 0.153894,0.0187 0.307788,0.0373 0.461682,0.0558 0.153894,0.0185 0.307788,0.0368 0.461682,0.0549 0.153894,0.0182 0.307788,0.0362 0.461682,0.0541 0.153894,0.0179 0.307788,0.0357 0.461682,0.0533 0.153895,0.0176 0.307789,0.0352 0.461683,0.0525 0.153894,0.0174 0.307788,0.0346 0.461682,0.0518 0.153894,0.0171 0.307788,0.0341 0.461682,0.051 0.153894,0.0169 0.307788,0.0336 0.461682,0.0503 0.153894,0.0166 0.307788,0.0332 0.461682,0.0496 0.153894,0.0164 0.307788,0.0327 0.461682,0.0489 0.153894,0.0162 0.307788,0.0323 0.461683,0.0482 0.153894,0.016 0.307788,0.0318 0.461682,0.0475 0.153894,0.0157 0.307788,0.0314 0.461682,0.0469 0.153894,0.0155 0.307788,0.0309 0.461682,0.0462 0.153894,0.0153 0.307788,0.0305 0.461682,0.0456 0.153894,0.0151 0.307788,0.0301 0.461682,0.045 0.153894,0.0149 0.307788,0.0297 0.461682,0.0444 0.153894,0.0147 0.307789,0.0293 0.461683,0.0438 0.153894,0.0145 0.307788,0.0289 0.461682,0.0432 0.153894,0.0143 0.307788,0.0285 0.461682,0.0427 0.153894,0.0141 0.307788,0.0281 0.461682,0.0421 0.153894,0.0139 0.307788,0.0278 0.461682,0.0415 0.153894,0.0138 0.307788,0.0274 0.461682,0.041 0.153894,0.0136 0.307788,0.0271 0.461683,0.0405 0.153894,0.0134 0.307788,0.0267 0.461682,0.04 0.153894,0.0132 0.307788,0.0264 0.461682,0.0395 0.153894,0.0131 0.307788,0.026 0.461682,0.039 0.153894,0.0129 0.307788,0.0257 0.461682,0.0385 0.153894,0.0127 0.307788,0.0254 0.461682,0.038 0.153894,0.0126 0.307788,0.0251 0.461682,0.0375 0.153894,0.0124 0.307789,0.0248 0.461683,0.0371 0.153894,0.0123 0.307788,0.0245 0.461682,0.0366 0.153894,0.0121 0.307788,0.0242 0.461682,0.0362 0.153894,0.012 0.307788,0.0239 0.461682,0.0357 0.153894,0.0118 0.307788,0.0236 0.461682,0.0353 0.153894,0.0117 0.307788,0.0233 0.461682,0.0349 0.153894,0.0116 0.307788,0.0231 0.461682,0.0345 0.153895,0.0114 0.307789,0.0228 0.461683,0.0341 0.153894,0.0113 0.307788,0.0225 0.461682,0.0337 0.153894,0.0112 0.307788,0.0223 0.461682,0.0333 0.153894,0.011 0.307788,0.022 0.461682,0.0329 0.153894,0.0109 0.307788,0.0217 0.461682,0.0325 0.153894,0.0108 0.307788,0.0215 0.461682,0.0321 0.153894,0.0106 0.307788,0.0212 0.461683,0.0318 0.153894,0.0105 0.307788,0.021 0.461682,0.0314 0.153894,0.0104 0.307788,0.0208 0.461682,0.0311 0.153894,0.0103 0.307788,0.0205 0.461682,0.0307 0.153894,0.0102 0.307788,0.0203 0.461682,0.0304 0.153894,0.0101 0.307788,0.0201 0.461682,0.03 0.153894,0.01 0.307788,0.0199 0.461682,0.0297 0.153894,0.01 0.307789,0.0196 0.461683,0.0294 0.153894,0.01 0.307788,0.0194 0.461682,0.0291 0.153894,0.01 0.307788,0.0192 0.461682,0.0288 0.153894,0.01 0.307788,0.019 0.461682,0.0284 0.153894,0.009 0.307788,0.0188 0.461682,0.0281 0.153894,0.009 0.307788,0.0186 0.461682,0.0278 0.153894,0.009 0.307788,0.0184 0.461682,0.0275 0.153895,0.009 0.307789,0.0182 0.461683,0.0272 0.153894,0.009 0.307788,0.018 0.461682,0.027 0.153894,0.009 0.307788,0.0178 0.461682,0.0267 0.153894,0.009 0.307788,0.0177 0.461682,0.0264 0.153894,0.009 0.307788,0.0175 0.461682,0.0261 0.153894,0.009 0.307788,0.0173 0.461682,0.0259 0.153894,0.009 0.307788,0.0171 0.461683,0.0256 0.153894,0.008 0.307788,0.0169 0.461682,0.0253 0.153894,0.008 0.307788,0.0168 0.461682,0.0251 0.153894,0.008 0.307788,0.0166 0.461682,0.0248 0.153894,0.008 0.307788,0.0164 0.461682,0.0246 0.153894,0.008 0.307788,0.0163 0.461682,0.0243 0.153894,0.008 0.307788,0.0161 0.461682,0.0241 0.153894,0.008 0.307789,0.016 0.461683,0.0239 0.153894,0.008 0.307788,0.0158 0.461682,0.0236 0.153894,0.008 0.307788,0.0156 0.461682,0.0234 0.153894,0.008 0.307788,0.0155 0.461682,0.0232 0.153894,0.008 0.307788,0.0153 0.461682,0.023 0.153894,0.008 0.307788,0.0152 0.461682,0.0227 0.153894,0.008 0.307788,0.015 0.461682,0.0225 0.153895,0.007 0.307789,0.0149 0.461683,0.0223 0.153894,0.007 0.307788,0.0147 0.461682,0.0221 0.153894,0.007 0.307788,0.0146 0.461682,0.0219 0.153894,0.007 0.307788,0.0145 0.461682,0.0217 0.153894,0.007 0.307788,0.0143 0.461682,0.0215 0.153894,0.007 0.307788,0.0142 0.461682,0.0213 0.153894,0.007 0.307788,0.0141 0.461683,0.0211 0.153894,0.007 0.307788,0.0139 0.461682,0.0209 0.153894,0.007 0.307788,0.0138 0.461682,0.0207 0.153894,0.007 0.307788,0.0137 0.461682,0.0205"
       style="fill:none;fill-opacity:1;fill-rule:evenodd;stroke:#000000;stroke-width:0.5;stroke-linecap:round;stroke-linejoin:round;stroke-miterlimit:4;stroke-dasharray:none;stroke-dashoffset:0;stroke-opacity:1;paint-order:normal"
       inkscape:connector-curvature="0"
       transform="translate(153.81836,-92.431093)"
       inkscape:export-filename="C:\Backup\Academic\My Notes\Super Apunte EyM\PNG\IsRc.png"
       inkscape:export-xdpi="300"
       inkscape:export-ydpi="300" />
    <path
       inkscape:connector-curvature="0"
       id="path10521"
       d="M 109.21716,25.469327 H 17.342422"
       style="fill:none;stroke:#000000;stroke-width:0.3;stroke-linecap:butt;stroke-linejoin:miter;stroke-miterlimit:4;stroke-dasharray:2.4, 2.4;stroke-dashoffset:0;stroke-opacity:1"
       inkscape:export-filename="C:\Backup\Academic\My Notes\Super Apunte EyM\PNG\IsRc.png"
       inkscape:export-xdpi="300"
       inkscape:export-ydpi="300" />
    <path
       inkscape:connector-curvature="0"
       id="path10545"
       d="M 25.951812,49.230627 V 72.991902"
       style="fill:none;stroke:#000000;stroke-width:0.3;stroke-linecap:round;stroke-linejoin:round;stroke-miterlimit:4;stroke-dasharray:2.4, 2.4;stroke-dashoffset:0;stroke-opacity:1"
       inkscape:export-filename="C:\Backup\Academic\My Notes\Super Apunte EyM\PNG\IsRc.png"
       inkscape:export-xdpi="300"
       inkscape:export-ydpi="300" />
    <path
       style="fill:none;stroke:#000000;stroke-width:0.3;stroke-linecap:round;stroke-linejoin:round;stroke-miterlimit:4;stroke-dasharray:2.4, 2.4;stroke-dashoffset:0;stroke-opacity:1"
       d="m 25.828502,49.230637 h -8.48608"
       id="path9589-7"
       inkscape:connector-curvature="0"
       inkscape:export-filename="C:\Backup\Academic\My Notes\Super Apunte EyM\PNG\IsRc.png"
       inkscape:export-xdpi="300"
       inkscape:export-ydpi="300" />
    <text
       xml:space="preserve"
       style="font-style:normal;font-weight:normal;font-size:4.22612px;line-height:1.25;font-family:sans-serif;fill:#000000;fill-opacity:1;stroke:none;stroke-width:0.264583"
       x="5.0169849"
       y="13.251377"
       id="text1343"><tspan
         sodipodi:role="line"
         id="tspan1341"
         style="stroke-width:0.264583"
         x="5.0169849"
         y="13.251377">$I_s$</tspan></text>
    <text
       xml:space="preserve"
       style="font-style:normal;font-weight:normal;font-size:4.22612px;line-height:1.25;font-family:sans-serif;fill:#000000;fill-opacity:1;stroke:none;stroke-width:0.264583"
       x="5.0169849"
       y="26.990088"
       id="text1620"><tspan
         sodipodi:role="line"
         id="tspan1618"
         style="stroke-width:0.264583"
         x="5.0169849"
         y="26.990088">$I_f$</tspan></text>
    <text
       xml:space="preserve"
       style="font-style:normal;font-weight:normal;font-size:4.22612px;line-height:1.25;font-family:sans-serif;fill:#000000;fill-opacity:1;stroke:none;stroke-width:0.264583"
       x="5.0169849"
       y="49.734447"
       id="text1806"><tspan
         sodipodi:role="line"
         id="tspan1804"
         style="stroke-width:0.264583"
         x="5.0169849"
         y="49.734447"
         dy="0 0 0 0 0 0 0 0.39442232 0 0 0 0 0 0 0.5916335">$\frac{I_f}{2}$</tspan></text>
    <text
       xml:space="preserve"
       style="font-style:normal;font-weight:normal;font-size:4.22612px;line-height:1.25;font-family:sans-serif;fill:#000000;fill-opacity:1;stroke:none;stroke-width:0.264583"
       x="24.497553"
       y="79.546425"
       id="text1620-2"><tspan
         sodipodi:role="line"
         id="tspan1618-0"
         style="stroke-width:0.264583"
         x="24.497553"
         y="79.546425">$R_s$</tspan></text>
    <text
       xml:space="preserve"
       style="font-style:normal;font-weight:normal;font-size:4.22612px;line-height:1.25;font-family:sans-serif;fill:#000000;fill-opacity:1;stroke:none;stroke-width:0.264583"
       x="112.69912"
       y="69.094238"
       id="text1620-2-5"><tspan
         sodipodi:role="line"
         id="tspan1618-0-5"
         style="stroke-width:0.264583"
         x="112.69912"
         y="69.094238">$R_L$</tspan></text>
  </g>
</svg>
