<?xml version="1.0" encoding="UTF-8" standalone="no"?>
<!-- Created with Inkscape (http://www.inkscape.org/) -->

<svg
   width="150mm"
   height="80mm"
   viewBox="0 0 150 80"
   version="1.1"
   id="svg5"
   sodipodi:docname="gauss-esfera-2.svg"
   inkscape:version="1.2.2 (b0a84865, 2022-12-01)"
   xmlns:inkscape="http://www.inkscape.org/namespaces/inkscape"
   xmlns:sodipodi="http://sodipodi.sourceforge.net/DTD/sodipodi-0.dtd"
   xmlns="http://www.w3.org/2000/svg"
   xmlns:svg="http://www.w3.org/2000/svg">
  <sodipodi:namedview
     id="namedview7"
     pagecolor="#ffffff"
     bordercolor="#999999"
     borderopacity="1"
     inkscape:showpageshadow="0"
     inkscape:pageopacity="0"
     inkscape:pagecheckerboard="0"
     inkscape:deskcolor="#d1d1d1"
     inkscape:document-units="mm"
     showgrid="false"
     inkscape:zoom="1.0116647"
     inkscape:cx="377.59548"
     inkscape:cy="251.56557"
     inkscape:window-width="1920"
     inkscape:window-height="953"
     inkscape:window-x="1512"
     inkscape:window-y="25"
     inkscape:window-maximized="1"
     inkscape:current-layer="layer1" />
  <defs
     id="defs2">
    <clipPath
       id="clipPath6979">
      <rect
         style="fill:none;fill-opacity:0.2;stroke:#000000;stroke-width:0.3;stroke-linecap:round"
         width="81.369865"
         height="81.369865"
         x="38.09589"
         y="38.09589"
         id="rect437" />
    </clipPath>
  </defs>
  <g
     inkscape:label="Layer 1"
     inkscape:groupmode="layer"
     id="layer1">
    <path
       style="fill:none;fill-opacity:0.2;stroke:#000000;stroke-width:0.53383;stroke-linecap:round;stroke-dasharray:none"
       d="m 38.0959,-66.9377 c 0.9353,93.3709 1.8706,91.3837 2.8058,104.3204 0.9353,12.9367 1.8706,18.9425 2.8059,23.8212 0.9353,4.8786 1.8706,8.0171 2.8059,10.5571 0.9352,2.54 1.8705,4.4048 2.8058,5.9589 0.9353,1.554 1.8706,2.7797 2.8059,3.8276 0.9353,1.0479 1.8705,1.9122 2.8058,2.6663 0.9353,0.754 1.8706,1.3954 2.8059,1.9639 0.9353,0.5685 1.8706,1.0629 2.8058,1.5067 0.9353,0.4439 1.8706,0.8365 2.8059,1.1926 0.9353,0.3561 1.8706,0.6753 2.8059,0.9674 0.9352,0.292 1.8705,0.5566 2.8058,0.8004 0.9353,0.2439 1.8706,0.4667 2.8059,0.6734 0.9353,0.2066 1.8706,0.3969 2.8058,0.5742 0.9353,0.1774 1.8706,0.3417 2.8059,0.4955 0.9353,0.1539 1.8706,0.2973 2.8059,0.432 0.9352,0.1348 1.8705,0.2609 2.8058,0.3799 0.9353,0.119 1.8706,0.2309 2.8059,0.3368 0.9353,0.1058 1.8705,0.2057 2.8058,0.3004 0.9353,0.0948 1.8706,0.1845 2.8059,0.2699 0.9353,0.0853 1.8706,0.1663 2.8058,0.2436 0.9353,0.0772 1.8706,0.1508 2.8059,0.221 0.9353,0.0703 1.8706,0.1373 2.8059,0.2015 0.9352,0.0642 1.8702,0.1255 2.8062,0.1844 0.935,0.0589 1.87,0.1152 2.805,0.1694 0.936,0.0542 1.871,0.1061 2.806,0.1562 0.936,0.05 1.871,0.0981 2.806,0.1444 0.935,0.0463 1.871,0.0909 2.806,0.1339 0.935,0.0431 1.871,0.0845 2.806,0.1246 0.935,0.0401 1.87,0.0788 2.806,0.1162"
       title="1/(x)"
       clip-path="url(#clipPath6979)"
       id="path441"
       transform="matrix(0.87727273,0,0,1,41.443969,-31.730536)" />
    <path
       style="fill:none;fill-opacity:0.2;stroke:#000000;stroke-width:0.3;stroke-linecap:round"
       d="M 74.864454,2.773973 V 69.363231"
       id="path556"
       sodipodi:nodetypes="cc" />
    <path
       style="fill:none;fill-opacity:0.2;stroke:#000000;stroke-width:0.3;stroke-linecap:round"
       d="M 1.9480919,69.363231 H 147.78082"
       id="path605" />
    <path
       style="fill:none;fill-opacity:0.2;stroke:#000000;stroke-width:0.53383;stroke-linecap:round;stroke-dasharray:none"
       d="m 38.0959,-66.9377 c 0.9353,93.3709 1.8706,91.3837 2.8058,104.3204 0.9353,12.9367 1.8706,18.9425 2.8059,23.8212 0.9353,4.8786 1.8706,8.0171 2.8059,10.5571 0.9352,2.54 1.8705,4.4048 2.8058,5.9589 0.9353,1.554 1.8706,2.7797 2.8059,3.8276 0.9353,1.0479 1.8705,1.9122 2.8058,2.6663 0.9353,0.754 1.8706,1.3954 2.8059,1.9639 0.9353,0.5685 1.8706,1.0629 2.8058,1.5067 0.9353,0.4439 1.8706,0.8365 2.8059,1.1926 0.9353,0.3561 1.8706,0.6753 2.8059,0.9674 0.9352,0.292 1.8705,0.5566 2.8058,0.8004 0.9353,0.2439 1.8706,0.4667 2.8059,0.6734 0.9353,0.2066 1.8706,0.3969 2.8058,0.5742 0.9353,0.1774 1.8706,0.3417 2.8059,0.4955 0.9353,0.1539 1.8706,0.2973 2.8059,0.432 0.9352,0.1348 1.8705,0.2609 2.8058,0.3799 0.9353,0.119 1.8706,0.2309 2.8059,0.3368 0.9353,0.1058 1.8705,0.2057 2.8058,0.3004 0.9353,0.0948 1.8706,0.1845 2.8059,0.2699 0.9353,0.0853 1.8706,0.1663 2.8058,0.2436 0.9353,0.0772 1.8706,0.1508 2.8059,0.221 0.9353,0.0703 1.8706,0.1373 2.8059,0.2015 0.9352,0.0642 1.8702,0.1255 2.8062,0.1844 0.935,0.0589 1.87,0.1152 2.805,0.1694 0.936,0.0542 1.871,0.1061 2.806,0.1562 0.936,0.05 1.871,0.0981 2.806,0.1444 0.935,0.0463 1.871,0.0909 2.806,0.1339 0.935,0.0431 1.871,0.0845 2.806,0.1246 0.935,0.0401 1.87,0.0788 2.806,0.1162"
       title="1/(x)"
       clip-path="url(#clipPath6979)"
       id="path656"
       transform="matrix(-0.87727273,0,0,1,108.28494,-31.730536)" />
    <path
       style="fill:none;fill-opacity:0.2;stroke:#000000;stroke-width:0.5;stroke-linecap:round;stroke-dasharray:none"
       d="M 74.864455,69.36323 126.28237,17.945315"
       id="path658" />
    <path
       style="fill:none;fill-opacity:0.2;stroke:#000000;stroke-width:0.5;stroke-linecap:round;stroke-dasharray:none"
       d="M 74.864457,69.363228 23.44654,17.945313"
       id="path1214" />
    <path
       style="fill:none;fill-opacity:0.2;stroke:#000000;stroke-width:0.2;stroke-linecap:round;stroke-dasharray:0.8,0.8;stroke-dashoffset:0"
       d="m 90.768944,69.363229 v -15.90449 l -15.904489,0"
       id="path1216" />
    <text
       xml:space="preserve"
       style="font-size:3.175px;line-height:0px;font-family:arial;-inkscape-font-specification:arial;fill:#000000;fill-opacity:1;stroke:none;stroke-width:0.2;stroke-linecap:round;stroke-dasharray:0.799999, 0.799999;stroke-dashoffset:0"
       x="88.006554"
       y="75.94339"
       id="text3479"><tspan
         sodipodi:role="line"
         id="tspan3477"
         style="fill:#000000;fill-opacity:1;stroke:none;stroke-width:0.2"
         x="88.006554"
         y="75.94339">$R$</tspan></text>
    <text
       xml:space="preserve"
       style="font-size:3.175px;line-height:0px;font-family:arial;-inkscape-font-specification:arial;fill:#000000;fill-opacity:1;stroke:none;stroke-width:0.2;stroke-linecap:round;stroke-dasharray:0.799999, 0.799999;stroke-dashoffset:0"
       x="140.92323"
       y="75.94339"
       id="text3533"><tspan
         sodipodi:role="line"
         id="tspan3531"
         style="fill:#000000;fill-opacity:1;stroke:none;stroke-width:0.2"
         x="140.92323"
         y="75.94339">$r$</tspan></text>
  </g>
</svg>
