<?xml version="1.0" encoding="UTF-8" standalone="no"?>
<!-- Created with Inkscape (http://www.inkscape.org/) -->

<svg
   width="90mm"
   height="40mm"
   viewBox="0 0 90 40"
   version="1.1"
   id="svg19676"
   inkscape:version="1.1 (c68e22c387, 2021-05-23)"
   sodipodi:docname="potencia.svg"
   xmlns:inkscape="http://www.inkscape.org/namespaces/inkscape"
   xmlns:sodipodi="http://sodipodi.sourceforge.net/DTD/sodipodi-0.dtd"
   xmlns="http://www.w3.org/2000/svg"
   xmlns:svg="http://www.w3.org/2000/svg">
  <sodipodi:namedview
     id="namedview19678"
     pagecolor="#ffffff"
     bordercolor="#666666"
     borderopacity="1.0"
     inkscape:pageshadow="2"
     inkscape:pageopacity="0.0"
     inkscape:pagecheckerboard="0"
     inkscape:document-units="mm"
     showgrid="false"
     inkscape:zoom="1.3416246"
     inkscape:cx="130.06619"
     inkscape:cy="107.70524"
     inkscape:window-width="1366"
     inkscape:window-height="705"
     inkscape:window-x="-8"
     inkscape:window-y="-8"
     inkscape:window-maximized="1"
     inkscape:current-layer="layer1" />
  <defs
     id="defs19673" />
  <g
     inkscape:label="Layer 1"
     inkscape:groupmode="layer"
     id="layer1">
    <path
       inkscape:connector-curvature="0"
       id="path7816-3-17-0"
       d="M 17.58714,5.7028751 V 35.370275"
       style="fill:none;stroke:#000000;stroke-width:0.2;stroke-linecap:round;stroke-linejoin:round;stroke-miterlimit:4;stroke-dasharray:none;stroke-opacity:1"
       inkscape:export-filename="C:\Backup\Academic\My Notes\Super Apunte EyM\PNG\PeakRMS.png"
       inkscape:export-xdpi="300"
       inkscape:export-ydpi="300" />
    <path
       inkscape:connector-curvature="0"
       id="path7818-0-1-7"
       d="M 6.79099,20.536575 H 83.20901"
       style="fill:none;stroke:#000000;stroke-width:0.2;stroke-linecap:round;stroke-linejoin:round;stroke-miterlimit:4;stroke-dasharray:none;stroke-opacity:1"
       inkscape:export-filename="C:\Backup\Academic\My Notes\Super Apunte EyM\PNG\PeakRMS.png"
       inkscape:export-xdpi="300"
       inkscape:export-ydpi="300" />
    <path
       style="fill:none;fill-opacity:1;fill-rule:evenodd;stroke:#000000;stroke-width:0.3;stroke-linecap:round;stroke-linejoin:round;stroke-miterlimit:4;stroke-dasharray:1.2, 1.2;stroke-dashoffset:0;stroke-opacity:1;paint-order:stroke fill markers"
       d="m 17.58714,20.536575 c 0.29073,-0.81803 0.58144,-1.63365 0.87216,-2.43472 0.29069,-0.80078 0.58142,-1.5871 0.87214,-2.34497 0.29073,-0.75767 0.58143,-1.48739 0.87215,-2.17648 0.29071,-0.6887 0.58143,-1.33776 0.87214,-1.93509 0.29073,-0.59772 0.58144,-1.14313 0.87215,-1.62858 0.29071,-0.4856399 0.58142,-0.9099699 0.87215,-1.2675499 0.29072,-0.35728 0.58143,-0.64656 0.87214,-0.86399 0.29072,-0.21745 0.58143,-0.36208 0.87216,-0.43106 0.29071,-0.0671 0.58142,-0.0671 0.87213,0.0192 0.29073,0.0766 0.58143,0.23467 0.87216,0.46169 0.2907,0.22701 0.58142,0.52682 0.87215,0.89273 0.29072,0.36687 0.58142,0.80078 0.87215,1.2940899 0.2907,0.49331 0.58142,1.04743 0.87213,1.65165 0.29071,0.60442 0.58144,1.25932 0.87214,1.95397 0.29072,0.69445 0.58143,1.42886 0.87216,2.19054 0.29072,0.76153 0.58145,1.55062 0.87215,2.35369 0.29072,0.80271 0.58143,1.62033 0.87214,2.43798 0.29071,0.81802 0.58143,1.63566 0.87214,2.44037 0.29072,0.80462 0.58143,1.59609 0.87216,2.36097 0.29071,0.76533 0.58142,1.50299 0.87215,2.20232 0.29072,0.69925 0.58143,1.35942 0.87214,1.96977 0.29072,0.61016 0.58143,1.17034 0.87214,1.67111 0.29071,0.50098 0.58144,0.94158 0.87214,1.3165 0.29072,0.37452 0.58143,0.682 0.87215,0.91763 0.29071,0.23564 0.58145,0.39945 0.87215,0.48853 0.29073,0.0863 0.58144,0.10249 0.87216,0.0382 0.29071,-0.0575 0.58144,-0.19732 0.87214,-0.40518 0.29071,-0.20882 0.58142,-0.49044 0.87213,-0.83909 0.29073,-0.34964 0.58142,-0.76631 0.87215,-1.24476 0.29073,-0.47798 0.58145,-1.01766 0.87216,-1.60876 0.29072,-0.59099 0.58142,-1.2344 0.87215,-1.91862 0.29071,-0.68391 0.58143,-1.40978 0.87214,-2.16419 0.29071,-0.75481 0.58142,-1.53788 0.87214,-2.33722 0.29071,-0.79887 0.58144,-1.6144 0.87216,-2.43165 0.29072,-0.81706 0.58143,-1.63681 0.87215,-2.44467 0.29071,-0.8075 0.58142,-1.60425 0.87214,-2.37563 0.2907,-0.77108 0.58143,-1.51784 0.87214,-2.22695 0.29072,-0.70883 0.58142,-1.38049 0.87214,-2.00339 0.29072,-0.62261 0.58145,-1.19696 0.87216,-1.71278 0.29072,-0.5162799 0.58142,-0.9731899 0.87215,-1.3646699 0.29071,-0.39178 0.58143,-0.71649 0.87214,-0.97081 0.29073,-0.25383 0.58143,-0.43582 0.87215,-0.54406 0.29071,-0.10825 0.58143,-0.14177 0.87215,-0.0995 0.2907,0.0383 0.58143,0.159 0.87213,0.34866 0.29073,0.18967 0.58144,0.45307 0.87216,0.78451 0.2907,0.33142 0.58143,0.73276 0.87214,1.19494 0.29072,0.4626299 0.58143,0.9870699 0.87215,1.5648699 0.29072,0.57759 0.58144,1.20874 0.87215,1.88231 0.29072,0.67339 0.58143,1.38978 0.87215,2.13664 0.29071,0.74713 0.58143,1.52426 0.87214,2.31928 0.29071,0.79504 0.58142,1.6076 0.87213,2.4241 0.29073,0.81608 0.58145,1.63689 0.87218,2.44754 0.29071,0.81035 0.58142,1.61143 0.87212,2.38903 0.29073,0.7778 0.58144,1.53182 0.87216,2.25023 0.2907,0.71841 0.58143,1.40089 0.87214,2.03606 0.29072,0.63506 0.58143,1.2228 0.87216,1.75346 0.29071,0.53067 0.58144,1.00386 0.87215,1.41211 0.29072,0.40805 0.58143,0.75096 0.87213,1.0233 0.29071,0.27203 0.58142,0.47318 0.87215,0.60057 0.29071,0.12735 0.58143,0.17912 0.87213,0.15711 0.29073,-0.0192 0.58144,-0.12068 0.87218,-0.29122 0.29071,-0.17146 0.58142,-0.41571 0.87213,-0.72989 0.29073,-0.31418 0.58144,-0.69732 0.87216,-1.14427 0.2907,-0.44636 0.58142,-0.95595 0.87212,-1.52015 0.29073,-0.56417 0.58144,-1.18248 0.87216,-1.84494 0.2907,-0.66286 0.58143,-1.36918 0.87215,-2.1079 0.29071,-0.73851 0.58144,-1.5099 0.87215,-2.30013 0.29071,-0.79025 0.58142,-1.59993 0.87215,-2.41518 0.1485,-0.41639 0.297,-0.83434 0.4455,-1.25197"
       id="path3223-6"
       inkscape:connector-curvature="0"
       inkscape:export-filename="C:\Backup\Academic\My Notes\Super Apunte EyM\PNG\PeakRMS.png"
       inkscape:export-xdpi="300"
       inkscape:export-ydpi="300" />
    <circle
       r="0.8018086"
       cy="20.536552"
       cx="17.587135"
       id="circle1315-6-4-5-3"
       style="fill:#000000;fill-opacity:1;fill-rule:evenodd;stroke:none;stroke-width:0.3;stroke-linecap:round;stroke-linejoin:round;stroke-miterlimit:4;stroke-dasharray:none;stroke-dashoffset:0;stroke-opacity:1;paint-order:stroke fill markers"
       inkscape:export-filename="C:\Backup\Academic\My Notes\Super Apunte EyM\PNG\PeakRMS.png"
       inkscape:export-xdpi="300"
       inkscape:export-ydpi="300" />
    <circle
       style="fill:#000000;fill-opacity:1;fill-rule:evenodd;stroke:none;stroke-width:0.3;stroke-linecap:round;stroke-linejoin:round;stroke-miterlimit:4;stroke-dasharray:none;stroke-dashoffset:0;stroke-opacity:1;paint-order:stroke fill markers"
       id="circle3217-7"
       cx="47.463844"
       cy="20.536552"
       r="0.8018086"
       inkscape:export-filename="C:\Backup\Academic\My Notes\Super Apunte EyM\PNG\PeakRMS.png"
       inkscape:export-xdpi="300"
       inkscape:export-ydpi="300" />
    <circle
       r="0.8018086"
       cy="20.542198"
       cx="77.3386"
       id="circle3219-0"
       style="fill:#000000;fill-opacity:1;fill-rule:evenodd;stroke:none;stroke-width:0.3;stroke-linecap:round;stroke-linejoin:round;stroke-miterlimit:4;stroke-dasharray:none;stroke-dashoffset:0;stroke-opacity:1;paint-order:stroke fill markers"
       inkscape:export-filename="C:\Backup\Academic\My Notes\Super Apunte EyM\PNG\PeakRMS.png"
       inkscape:export-xdpi="300"
       inkscape:export-ydpi="300" />
    <path
       inkscape:connector-curvature="0"
       id="path3308"
       d="m 17.58714,20.536575 c 0.29073,-0.59325 0.58144,-1.18475 0.87216,-1.7657 0.29069,-0.58073 0.58142,-1.15098 0.87214,-1.7006 0.29073,-0.54948 0.58143,-1.07868 0.87215,-1.57843 0.29071,-0.49945 0.58143,-0.97015 0.87214,-1.40335 0.29073,-0.43347 0.58144,-0.82901 0.87215,-1.18107 0.29071,-0.35219 0.58142,-0.65992 0.87215,-0.91924 0.29072,-0.25911 0.58143,-0.4689 0.87214,-0.62658 0.29072,-0.15769 0.58143,-0.26259 0.87216,-0.31261 0.29071,-0.0486 0.58142,-0.0486 0.87213,0.0139 0.29073,0.0555 0.58143,0.17018 0.87216,0.33482 0.2907,0.16463 0.58142,0.38205 0.87215,0.64743 0.29072,0.26605 0.58142,0.58073 0.87215,0.93849 0.2907,0.35775 0.58142,0.75961 0.87213,1.19779 0.29071,0.43834 0.58144,0.91328 0.87214,1.41705 0.29072,0.50362 0.58143,1.03623 0.87216,1.58861 0.29072,0.55228 0.58145,1.12454 0.87215,1.70694 0.29072,0.58213 0.58143,1.17508 0.87214,1.76805 0.29071,0.59324 0.58143,1.18621 0.87214,1.76979 0.29072,0.58353 0.58143,1.15752 0.87216,1.71222 0.29071,0.55503 0.58142,1.08999 0.87215,1.59715 0.29072,0.50711 0.58143,0.98586 0.87214,1.4285 0.29072,0.4425 0.58143,0.84876 0.87214,1.21192 0.29071,0.36332 0.58144,0.68285 0.87214,0.95475 0.29072,0.2716 0.58143,0.49459 0.87215,0.66548 0.29071,0.17088 0.58145,0.28969 0.87215,0.35428 0.29073,0.0626 0.58144,0.0743 0.87216,0.0277 0.29071,-0.0417 0.58144,-0.1431 0.87214,-0.29384 0.29071,-0.15144 0.58142,-0.35567 0.87213,-0.60852 0.29073,-0.25357 0.58142,-0.55575 0.87215,-0.90272 0.29073,-0.34664 0.58145,-0.73802 0.87216,-1.1667 0.29072,-0.42859 0.58142,-0.89521 0.87215,-1.39141 0.29071,-0.49598 0.58143,-1.02239 0.87214,-1.56951 0.29071,-0.54739 0.58142,-1.11529 0.87214,-1.69498 0.29071,-0.57936 0.58144,-1.17079 0.87216,-1.76347 0.29072,-0.59254 0.58143,-1.18704 0.87215,-1.77291 0.29071,-0.5856 0.58142,-1.16343 0.87214,-1.72284 0.2907,-0.5592 0.58143,-1.10076 0.87214,-1.61502 0.29072,-0.51405 0.58142,-1.00115 0.87214,-1.45289 0.29072,-0.45153 0.58145,-0.86804 0.87216,-1.24213 0.29072,-0.37441 0.58142,-0.70577 0.87215,-0.98968 0.29071,-0.28412 0.58143,-0.51961 0.87214,-0.70404 0.29073,-0.18409 0.58143,-0.31607 0.87215,-0.39457 0.29071,-0.0785 0.58143,-0.10281 0.87215,-0.0721 0.2907,0.0278 0.58143,0.11531 0.87213,0.25285 0.29073,0.13755 0.58144,0.32857 0.87216,0.56894 0.2907,0.24035 0.58143,0.5314 0.87214,0.86659 0.29072,0.3355 0.58143,0.71584 0.87215,1.13487 0.29072,0.41886 0.58144,0.87658 0.87215,1.36507 0.29072,0.48836 0.58143,1.0079 0.87215,1.54952 0.29071,0.54183 0.58143,1.10542 0.87214,1.68198 0.29071,0.57658 0.58142,1.16585 0.87213,1.758 0.29073,0.59183 0.58145,1.18709 0.87218,1.77498 0.29071,0.58768 0.58142,1.16863 0.87212,1.73257 0.29073,0.56406 0.58144,1.1109 0.87216,1.6319 0.2907,0.521 0.58143,1.01594 0.87214,1.47658 0.29072,0.46056 0.58143,0.88679 0.87216,1.27163 0.29071,0.38485 0.58144,0.72802 0.87215,1.02408 0.29072,0.29593 0.58143,0.54462 0.87213,0.74212 0.29071,0.19728 0.58142,0.34315 0.87215,0.43554 0.29071,0.0924 0.58143,0.1299 0.87213,0.11394 0.29073,-0.0139 0.58144,-0.0875 0.87218,-0.2112 0.29071,-0.12434 0.58142,-0.30148 0.87213,-0.52932 0.29073,-0.22785 0.58144,-0.50571 0.87216,-0.82984 0.2907,-0.32371 0.58142,-0.69328 0.87212,-1.10245 0.29073,-0.40913 0.58144,-0.85755 0.87216,-1.33797 0.2907,-0.48071 0.58143,-0.99295 0.87215,-1.52868 0.29071,-0.53558 0.58144,-1.095 0.87215,-1.66809 0.29071,-0.5731 0.58142,-1.1603 0.87215,-1.75153 0.1485,-0.30196 0.297,-0.60508 0.4455,-0.90794"
       style="fill:none;fill-opacity:1;fill-rule:evenodd;stroke:#000000;stroke-width:0.3;stroke-linecap:round;stroke-linejoin:round;stroke-miterlimit:4;stroke-dasharray:none;stroke-dashoffset:0;stroke-opacity:1;paint-order:stroke fill markers"
       inkscape:export-filename="C:\Backup\Academic\My Notes\Super Apunte EyM\PNG\PeakRMS.png"
       inkscape:export-xdpi="300"
       inkscape:export-ydpi="300" />
    <path
       style="fill:none;fill-opacity:1;fill-rule:evenodd;stroke:#000000;stroke-width:0.3;stroke-linecap:round;stroke-linejoin:round;stroke-miterlimit:4;stroke-dasharray:none;stroke-dashoffset:0;stroke-opacity:1;paint-order:stroke fill markers"
       d="m 17.58714,20.536575 c 0.29073,-0.26197 0.58144,-0.52316 0.87216,-0.77969 0.29069,-0.25643 0.58142,-0.50823 0.87214,-0.75094 0.29073,-0.24263 0.58143,-0.4763 0.87215,-0.69699 0.29071,-0.22054 0.58143,-0.42839 0.87214,-0.61967 0.29073,-0.1914 0.58144,-0.36607 0.87215,-0.52152 0.29071,-0.15552 0.58142,-0.29141 0.87215,-0.40592 0.29072,-0.11443 0.58143,-0.20705 0.87214,-0.27667 0.29072,-0.0696 0.58143,-0.1159 0.87216,-0.138 0.29071,-0.0214 0.58142,-0.0214 0.87213,0.007 0.29073,0.0246 0.58143,0.0751 0.87216,0.14782 0.2907,0.0727 0.58142,0.16869 0.87215,0.28589 0.29072,0.11754 0.58142,0.25642 0.87215,0.41439 0.2907,0.15797 0.58142,0.33543 0.87213,0.52892 0.29071,0.19356 0.58144,0.40328 0.87214,0.62574 0.29072,0.22237 0.58143,0.45756 0.87216,0.70147 0.29072,0.24387 0.58145,0.49657 0.87215,0.75373 0.29072,0.25706 0.58143,0.51889 0.87214,0.78073 0.29071,0.26195 0.58143,0.52379 0.87214,0.78149 0.29072,0.25767 0.58143,0.51113 0.87216,0.75606 0.29071,0.24509 0.58142,0.48131 0.87215,0.70526 0.29072,0.22393 0.58143,0.43533 0.87214,0.63079 0.29072,0.19539 0.58143,0.37478 0.87214,0.53514 0.29071,0.16043 0.58144,0.30154 0.87214,0.4216 0.29072,0.11999 0.58143,0.21839 0.87215,0.29386 0.29071,0.0755 0.58145,0.12785 0.87215,0.1565 0.29073,0.0277 0.58144,0.0327 0.87216,0.0115 0.29071,-0.0185 0.58144,-0.0632 0.87214,-0.12982 0.29071,-0.0669 0.58142,-0.15699 0.87213,-0.2687 0.29073,-0.11197 0.58142,-0.2454 0.87215,-0.39861 0.29073,-0.15306 0.58145,-0.3259 0.87216,-0.51519 0.29072,-0.18925 0.58142,-0.3953 0.87215,-0.6144 0.29071,-0.21902 0.58143,-0.45146 0.87214,-0.69305 0.29071,-0.24172 0.58142,-0.49248 0.87214,-0.74846 0.29071,-0.25583 0.58144,-0.51699 0.87216,-0.77869 0.29072,-0.26167 0.58143,-0.52418 0.87215,-0.78287 0.29071,-0.25859 0.58142,-0.51375 0.87214,-0.76076 0.2907,-0.24693 0.58143,-0.48606 0.87214,-0.71315 0.29072,-0.22699 0.58142,-0.44207 0.87214,-0.64156 0.29072,-0.19937 0.58145,-0.38329 0.87216,-0.54848 0.29072,-0.16533 0.58142,-0.31164 0.87215,-0.43702 0.29071,-0.1254 0.58143,-0.22944 0.87214,-0.31089 0.29073,-0.0812 0.58143,-0.13963 0.87215,-0.17422 0.29071,-0.0347 0.58143,-0.0454 0.87215,-0.0319 0.2907,0.0115 0.58143,0.0509 0.87213,0.11165 0.29073,0.0607 0.58144,0.14504 0.87216,0.25122 0.2907,0.10607 0.58143,0.23466 0.87214,0.38266 0.29072,0.14815 0.58143,0.3161 0.87215,0.50113 0.29072,0.18496 0.58144,0.38707 0.87215,0.60278 0.29072,0.21564 0.58143,0.44505 0.87215,0.68422 0.29071,0.23925 0.58143,0.48813 0.87214,0.74272 0.29071,0.2546 0.58142,0.51481 0.87213,0.77627 0.29073,0.26135 0.58145,0.52419 0.87218,0.78379 0.29071,0.2595 0.58142,0.51603 0.87212,0.76506 0.29073,0.24907 0.58144,0.49053 0.87216,0.72059 0.2907,0.23005 0.58143,0.44861 0.87214,0.65201 0.29072,0.20338 0.58143,0.39159 0.87216,0.56151 0.29071,0.16994 0.58144,0.32148 0.87215,0.45221 0.29072,0.13064 0.58143,0.2405 0.87213,0.3277 0.29071,0.0871 0.58142,0.15159 0.87215,0.19233 0.29071,0.0408 0.58143,0.0573 0.87213,0.0503 0.29073,-0.007 0.58144,-0.0386 0.87218,-0.0933 0.29071,-0.0548 0.58142,-0.13309 0.87213,-0.23373 0.29073,-0.10068 0.58144,-0.22331 0.87216,-0.36643 0.2907,-0.14292 0.58142,-0.30614 0.87212,-0.48682 0.29073,-0.18066 0.58144,-0.37867 0.87216,-0.5908 0.2907,-0.21227 0.58143,-0.43846 0.87215,-0.67502 0.29071,-0.2365 0.58144,-0.48353 0.87215,-0.73659 0.29071,-0.25307 0.58142,-0.51236 0.87215,-0.77343 0.1485,-0.13325 0.297,-0.26717 0.4455,-0.40092"
       id="path3310"
       inkscape:connector-curvature="0"
       inkscape:export-filename="C:\Backup\Academic\My Notes\Super Apunte EyM\PNG\PeakRMS.png"
       inkscape:export-xdpi="300"
       inkscape:export-ydpi="300" />
    <text
       xml:space="preserve"
       style="font-style:normal;font-weight:normal;font-size:3.5558px;line-height:1.25;font-family:sans-serif;fill:#000000;fill-opacity:1;stroke:none;stroke-width:0.264583"
       x="23.802782"
       y="6.0303731"
       id="text2248"><tspan
         sodipodi:role="line"
         id="tspan2246"
         style="stroke-width:0.264583"
         x="23.802782"
         y="6.0303731">$P$</tspan></text>
    <text
       xml:space="preserve"
       style="font-style:normal;font-weight:normal;font-size:3.5558px;line-height:1.25;font-family:sans-serif;fill:#000000;fill-opacity:1;stroke:none;stroke-width:0.264583"
       x="23.802782"
       y="14.937412"
       id="text3126"><tspan
         sodipodi:role="line"
         id="tspan3124"
         style="stroke-width:0.264583"
         x="23.802782"
         y="14.937412">$v$</tspan></text>
    <text
       xml:space="preserve"
       style="font-style:normal;font-weight:normal;font-size:3.5558px;line-height:1.25;font-family:sans-serif;fill:#000000;fill-opacity:1;stroke:none;stroke-width:0.264583"
       x="23.802782"
       y="19.671282"
       id="text3444"><tspan
         sodipodi:role="line"
         id="tspan3442"
         style="stroke-width:0.264583"
         x="23.802782"
         y="19.671282">$i$</tspan></text>
    <text
       xml:space="preserve"
       style="font-style:normal;font-weight:normal;font-size:3.5558px;line-height:1.25;font-family:sans-serif;fill:#000000;fill-opacity:1;stroke:none;stroke-width:0.264583"
       x="79.368988"
       y="19.671282"
       id="text4782"><tspan
         sodipodi:role="line"
         id="tspan4780"
         style="stroke-width:0.264583"
         x="79.368988"
         y="19.671282">$t$</tspan></text>
  </g>
</svg>
