<?xml version="1.0" encoding="UTF-8" standalone="no"?>
<!-- Created with Inkscape (http://www.inkscape.org/) -->

<svg
   width="110mm"
   height="60mm"
   viewBox="0 0 110 60"
   version="1.1"
   id="svg2987"
   inkscape:version="1.1 (c68e22c387, 2021-05-23)"
   sodipodi:docname="transformador.svg"
   xmlns:inkscape="http://www.inkscape.org/namespaces/inkscape"
   xmlns:sodipodi="http://sodipodi.sourceforge.net/DTD/sodipodi-0.dtd"
   xmlns="http://www.w3.org/2000/svg"
   xmlns:svg="http://www.w3.org/2000/svg">
  <sodipodi:namedview
     id="namedview2989"
     pagecolor="#ffffff"
     bordercolor="#666666"
     borderopacity="1.0"
     inkscape:pageshadow="2"
     inkscape:pageopacity="0.0"
     inkscape:pagecheckerboard="0"
     inkscape:document-units="mm"
     showgrid="false"
     inkscape:zoom="0.67081229"
     inkscape:cx="396.53418"
     inkscape:cy="442.00144"
     inkscape:window-width="1920"
     inkscape:window-height="1001"
     inkscape:window-x="-9"
     inkscape:window-y="-9"
     inkscape:window-maximized="1"
     inkscape:current-layer="layer1" />
  <defs
     id="defs2984" />
  <g
     inkscape:label="Layer 1"
     inkscape:groupmode="layer"
     id="layer1">
    <g
       id="g3192"
       transform="translate(-4.1633444,-27.191238)">
      <circle
         style="fill:#000000;fill-opacity:1;fill-rule:evenodd;stroke:none;stroke-width:0.3;stroke-linecap:round;stroke-linejoin:round;stroke-miterlimit:4;stroke-dasharray:none;stroke-dashoffset:0;stroke-opacity:1;paint-order:stroke fill markers"
         id="circle1293-5-7"
         cx="-39.168835"
         cy="38.441322"
         r="0.8018086"
         transform="scale(-1,1)"
         inkscape:export-filename="C:\Users\Admin\Desktop\BACKUPn\Malvicino, M. R. (2020). Super apunte de Electricidad y Magnetismo\PNG\Transformer.png"
         inkscape:export-xdpi="300"
         inkscape:export-ydpi="300" />
      <circle
         style="fill:#000000;fill-opacity:1;fill-rule:evenodd;stroke:none;stroke-width:0.3;stroke-linecap:round;stroke-linejoin:round;stroke-miterlimit:4;stroke-dasharray:none;stroke-dashoffset:0;stroke-opacity:1;paint-order:stroke fill markers"
         id="circle1295-7-1"
         cx="-39.168835"
         cy="75.941185"
         r="0.8018086"
         transform="scale(-1,1)"
         inkscape:export-filename="C:\Users\Admin\Desktop\BACKUPn\Malvicino, M. R. (2020). Super apunte de Electricidad y Magnetismo\PNG\Transformer.png"
         inkscape:export-xdpi="300"
         inkscape:export-ydpi="300" />
      <path
         style="fill:none;stroke:#000000;stroke-width:0.2;stroke-linecap:round;stroke-linejoin:round;stroke-miterlimit:4;stroke-dasharray:none;stroke-opacity:1;paint-order:stroke fill markers"
         d="M 39.16884,75.941197 33.68818,75.139388"
         id="path1321-3-6"
         inkscape:connector-curvature="0"
         inkscape:export-filename="C:\Users\Admin\Desktop\BACKUPn\Malvicino, M. R. (2020). Super apunte de Electricidad y Magnetismo\PNG\Transformer.png"
         inkscape:export-xdpi="300"
         inkscape:export-ydpi="300" />
      <path
         style="fill:none;stroke:#000000;stroke-width:0.2;stroke-linecap:round;stroke-linejoin:round;stroke-miterlimit:4;stroke-dasharray:none;stroke-opacity:1;paint-order:stroke fill markers"
         d="m 39.16884,38.441327 -5.48065,-0.80181"
         id="path1323-8-6"
         inkscape:connector-curvature="0"
         inkscape:export-filename="C:\Users\Admin\Desktop\BACKUPn\Malvicino, M. R. (2020). Super apunte de Electricidad y Magnetismo\PNG\Transformer.png"
         inkscape:export-xdpi="300"
         inkscape:export-ydpi="300" />
      <circle
         style="fill:none;fill-opacity:1;fill-rule:evenodd;stroke:#000000;stroke-width:0.3;stroke-linecap:round;stroke-linejoin:round;stroke-miterlimit:4;stroke-dasharray:none;stroke-dashoffset:0;stroke-opacity:1;paint-order:stroke fill markers"
         id="path1341-6-2"
         cx="13.688215"
         cy="57.191246"
         r="4.7247024"
         inkscape:export-filename="C:\Users\Admin\Desktop\BACKUPn\Malvicino, M. R. (2020). Super apunte de Electricidad y Magnetismo\PNG\Transformer.png"
         inkscape:export-xdpi="300"
         inkscape:export-ydpi="300" />
      <path
         style="fill:none;stroke:#000000;stroke-width:0.3;stroke-linecap:round;stroke-linejoin:round;stroke-miterlimit:4;stroke-dasharray:none;stroke-opacity:1;paint-order:stroke fill markers"
         d="m 33.68821,38.441327 h -20 v 14.02523"
         id="path1345-7-1"
         inkscape:connector-curvature="0"
         inkscape:export-filename="C:\Users\Admin\Desktop\BACKUPn\Malvicino, M. R. (2020). Super apunte de Electricidad y Magnetismo\PNG\Transformer.png"
         inkscape:export-xdpi="300"
         inkscape:export-ydpi="300" />
      <path
         style="fill:none;stroke:#000000;stroke-width:0.3;stroke-linecap:round;stroke-linejoin:round;stroke-miterlimit:4;stroke-dasharray:none;stroke-opacity:1;paint-order:stroke fill markers"
         d="m 13.68821,61.915967 v 14.02523 h 20"
         id="path1347-9-7"
         inkscape:connector-curvature="0"
         inkscape:export-filename="C:\Users\Admin\Desktop\BACKUPn\Malvicino, M. R. (2020). Super apunte de Electricidad y Magnetismo\PNG\Transformer.png"
         inkscape:export-xdpi="300"
         inkscape:export-ydpi="300" />
      <path
         style="fill:none;fill-opacity:1;fill-rule:evenodd;stroke:#000000;stroke-width:0.3;stroke-linecap:round;stroke-linejoin:round;stroke-miterlimit:4;stroke-dasharray:none;stroke-dashoffset:0;stroke-opacity:1;paint-order:stroke fill markers"
         d="m 16.32617,57.191247 c -0.19427,1.218523 -0.59053,2.216686 -1.31897,2.216684 -0.72845,2e-6 -0.9888,-1.255573 -1.31898,-2.216684 -0.31088,-0.90496 -0.59052,-2.216685 -1.31897,-2.216684 -0.72844,-1e-6 -1.13256,1.047515 -1.31897,2.216684"
         id="path2479"
         inkscape:connector-curvature="0"
         sodipodi:nodetypes="ccscc"
         inkscape:export-filename="C:\Users\Admin\Desktop\BACKUPn\Malvicino, M. R. (2020). Super apunte de Electricidad y Magnetismo\PNG\Transformer.png"
         inkscape:export-xdpi="300"
         inkscape:export-ydpi="300" />
      <rect
         y="32.191238"
         x="39.168835"
         height="50"
         width="40"
         id="rect1119-5"
         style="fill:#000000;fill-opacity:0.0980392;fill-rule:evenodd;stroke:none;stroke-width:0.3;stroke-linecap:round;stroke-linejoin:round;stroke-miterlimit:4;stroke-dasharray:none;stroke-dashoffset:0;stroke-opacity:1;paint-order:stroke fill markers"
         inkscape:export-filename="C:\Users\Admin\Desktop\BACKUPn\Malvicino, M. R. (2020). Super apunte de Electricidad y Magnetismo\PNG\Transformer.png"
         inkscape:export-xdpi="300"
         inkscape:export-ydpi="300" />
      <circle
         r="0.8018086"
         cy="38.441315"
         cx="-33.688213"
         id="circle1313-6-6"
         style="fill:#000000;fill-opacity:1;fill-rule:evenodd;stroke:none;stroke-width:0.3;stroke-linecap:round;stroke-linejoin:round;stroke-miterlimit:4;stroke-dasharray:none;stroke-dashoffset:0;stroke-opacity:1;paint-order:stroke fill markers"
         transform="scale(-1,1)"
         inkscape:export-filename="C:\Users\Admin\Desktop\BACKUPn\Malvicino, M. R. (2020). Super apunte de Electricidad y Magnetismo\PNG\Transformer.png"
         inkscape:export-xdpi="300"
         inkscape:export-ydpi="300" />
      <circle
         r="0.8018086"
         cy="75.941177"
         cx="-33.688213"
         id="circle1315-6-8"
         style="fill:#000000;fill-opacity:1;fill-rule:evenodd;stroke:none;stroke-width:0.3;stroke-linecap:round;stroke-linejoin:round;stroke-miterlimit:4;stroke-dasharray:none;stroke-dashoffset:0;stroke-opacity:1;paint-order:stroke fill markers"
         transform="scale(-1,1)"
         inkscape:export-filename="C:\Users\Admin\Desktop\BACKUPn\Malvicino, M. R. (2020). Super apunte de Electricidad y Magnetismo\PNG\Transformer.png"
         inkscape:export-xdpi="300"
         inkscape:export-ydpi="300" />
      <path
         style="fill:none;stroke:#000000;stroke-width:0.3;stroke-linecap:round;stroke-linejoin:round;stroke-miterlimit:4;stroke-dasharray:none;stroke-opacity:1;paint-order:stroke fill markers"
         d="M 54.55844,52.386277 V 38.441317 H 39.16885"
         id="path1317-2-7"
         inkscape:connector-curvature="0"
         sodipodi:nodetypes="ccc"
         inkscape:export-filename="C:\Users\Admin\Desktop\BACKUPn\Malvicino, M. R. (2020). Super apunte de Electricidad y Magnetismo\PNG\Transformer.png"
         inkscape:export-xdpi="300"
         inkscape:export-ydpi="300" />
      <path
         style="fill:none;stroke:#000000;stroke-width:0.3;stroke-linecap:round;stroke-linejoin:round;stroke-miterlimit:4;stroke-dasharray:none;stroke-opacity:1;paint-order:stroke fill markers"
         d="m 54.55844,61.996227 v 13.94496 H 39.16885"
         id="path1319-4-9"
         inkscape:connector-curvature="0"
         sodipodi:nodetypes="ccc"
         inkscape:export-filename="C:\Users\Admin\Desktop\BACKUPn\Malvicino, M. R. (2020). Super apunte de Electricidad y Magnetismo\PNG\Transformer.png"
         inkscape:export-xdpi="300"
         inkscape:export-ydpi="300" />
      <path
         style="fill:none;fill-opacity:1;fill-rule:evenodd;stroke:#000000;stroke-width:0.3;stroke-linecap:round;stroke-linejoin:round;stroke-miterlimit:4;stroke-dasharray:none;stroke-dashoffset:0;stroke-opacity:1;paint-order:stroke fill markers"
         d="m 54.55844,52.386277 c -0.51778,0.04569 -1.01642,0.119246 -1.42393,0.21483 -0.4075,0.09558 -0.72215,0.213075 -0.89903,0.340191 -0.17688,0.127117 -0.21467,0.263626 -0.1087,0.394568 0.10595,0.130948 0.35617,0.255997 0.71367,0.361927 0.35752,0.105934 0.82187,0.192423 1.3254,0.25189 0.50352,0.05946 1.04494,0.09169 1.54582,0.09694 0.5009,0.0052 0.95953,-0.01651 1.30993,-0.05718 0.35038,-0.0407 0.59085,-0.100165 0.68731,-0.164955 0.0964,-0.06479 0.0477,-0.13463 -0.13822,-0.194588 -0.18598,-0.05995 -0.50945,-0.109712 -0.92293,-0.137323 -0.41349,-0.02761 -0.91625,-0.03275 -1.43517,-0.01007 -0.51894,0.02273 -1.05258,0.07348 -1.52377,0.149618 -0.47117,0.07614 -0.87814,0.177665 -1.16248,0.294578 -0.28434,0.11692 -0.44449,0.249047 -0.45804,0.382037 -0.0135,0.132986 0.12044,0.266537 0.38163,0.386159 0.26124,0.119618 0.64971,0.224974 1.10862,0.305735 0.45891,0.08076 0.98725,0.136638 1.50836,0.164507 0.5211,0.02787 1.03333,0.02761 1.46279,0.0041 0.42944,-0.02343 0.77435,-0.06995 0.98539,-0.127947 0.21102,-0.05799 0.28677,-0.127229 0.21708,-0.192844 -0.0697,-0.06561 -0.28545,-0.1273 -0.61529,-0.171353 -0.32984,-0.04406 -0.77342,-0.07016 -1.26605,-0.06982 -0.49261,3.27e-4 -1.03306,0.02736 -1.54303,0.08177 -0.50995,0.05444 -0.98772,0.136388 -1.36449,0.238677 -0.37676,0.102289 -0.65081,0.224815 -0.78314,0.354576 -0.13234,0.129759 -0.12182,0.266504 0.0295,0.39525 0.15117,0.128748 0.44324,0.249156 0.83327,0.348699 0.39004,0.09954 0.87739,0.177889 1.39115,0.228655 0.51375,0.05073 1.05251,0.07373 1.53833,0.07057 0.48581,-0.003 0.91693,-0.03256 1.23138,-0.0789 0.31447,-0.04637 0.51066,-0.10958 0.56092,-0.175628 0.0502,-0.06605 -0.0464,-0.134641 -0.27513,-0.191052 -0.22878,-0.05642 -0.58972,-0.100309 -1.02998,-0.120627 -0.44027,-0.02033 -0.95896,-0.01677 -1.48075,0.01487 -0.52178,0.03158 -1.04511,0.09142 -1.49438,0.175429 -0.44926,0.08401 -0.82272,0.192213 -1.06684,0.313645 -0.24414,0.121431 -0.35748,0.255904 -0.32439,0.388726 0.0331,0.132823 0.21333,0.263683 0.51386,0.378498 0.30053,0.114821 0.72114,0.213257 1.2004,0.28599 0.47926,0.07273 1.01607,0.119498 1.53256,0.138502 0.5165,0.019 1.01104,0.01019 1.4123,-0.02042 0.40126,-0.03052 0.70752,-0.08263 0.87509,-0.143861 0.16757,-0.06122 0.19516,-0.131345 0.0796,-0.195378 -0.11557,-0.06403 -0.37483,-0.121649 -0.73947,-0.159769 -0.36463,-0.0381 -0.83415,-0.0564 -1.34019,-0.04752 -0.50603,0.0089 -1.04724,0.04514 -1.54527,0.108177 -0.49804,0.06305 -0.95116,0.152969 -1.29417,0.261411 -0.34302,0.108441 -0.57428,0.235289 -0.66101,0.366923 -0.0867,0.131635 -0.0279,0.267788 0.16729,0.393571 0.19516,0.125782 0.52678,0.240862 0.9462,0.333482 0.41944,0.09261 0.92591,0.162464 1.44579,0.204388 0.51987,0.04193 1.05168,0.05576 1.51855,0.04441 0.46686,-0.01139 0.867,-0.04778 1.14301,-0.09921 0.27601,-0.05141 0.42638,-0.117591 0.43006,-0.184105 0.004,-0.0665 -0.14014,-0.133045 -0.40986,-0.185193 -0.26975,-0.05215 -0.66529,-0.08958 -1.1288,-0.102156 -0.46353,-0.01258 -0.99402,-3.7e-5 -1.51448,0.0405 -0.52048,0.04055 -1.02931,0.10916 -1.45308,0.200636 -0.42378,0.09147 -0.76074,0.205753 -0.96271,0.330999 -0.20196,0.125248 -0.26758,0.261253 -0.18812,0.393114 0.0795,0.131859 0.30457,0.25925 0.64199,0.368614 0.33743,0.109364 0.7868,0.200355 1.28259,0.264753 0.49578,0.06439 1.03676,0.10194 1.54453,0.112194 0.50778,0.01031 0.98066,-0.0068 1.35052,-0.04406 0.36987,-0.03714 0.63504,-0.09411 0.75781,-0.157824 0.12282,-0.06372 0.10195,-0.133891 -0.0586,-0.195561 -0.16058,-0.06167 -0.46123,-0.114497 -0.85774,-0.146107 -0.39651,-0.03158 -0.88824,-0.04168 -1.40363,-0.02408 -0.5154,0.01762 -1.05305,0.06308 -1.53518,0.134525 -0.48212,0.07144 -0.90697,0.168862 -1.2135,0.282857 -0.30652,0.114005 -0.49315,0.244422 -0.53358,0.377141 -0.0405,0.132727 0.0662,0.267458 0.30384,0.389542 0.23759,0.122084 0.6061,0.231174 1.05158,0.316396 0.44549,0.08521 0.96701,0.146276 1.48888,0.179295 0.52185,0.03301 1.04245,0.03785 1.48662,0.0187 0.44418,-0.01911 0.81016,-0.06214 1.04553,-0.117927 0.23536,-0.05579 0.33868,-0.124141 0.29575,-0.190312 -0.043,-0.06617 -0.23278,-0.129853 -0.54133,-0.177059 -0.30854,-0.04722 -0.73551,-0.07761 -1.2186,-0.08208 -0.48308,-0.0046 -1.02112,0.01722 -1.53611,0.06659 -0.51501,0.04936 -1.00529,0.126557 -1.40017,0.225039 -0.39488,0.09848 -0.69266,0.218184 -0.85085,0.346513 -0.1582,0.128324 -0.17556,0.265038 -0.0504,0.395144 0.12519,0.130112 0.39336,0.253286 0.765,0.356584 0.37162,0.103296 0.84616,0.186395 1.3545,0.242202 0.0924,0.01015 0.18596,0.01939 0.28008,0.02773"
         id="path3890"
         inkscape:connector-curvature="0"
         inkscape:export-filename="C:\Users\Admin\Desktop\BACKUPn\Malvicino, M. R. (2020). Super apunte de Electricidad y Magnetismo\PNG\Transformer.png"
         inkscape:export-xdpi="300"
         inkscape:export-ydpi="300" />
      <path
         inkscape:connector-curvature="0"
         id="path3963"
         d="m 63.77924,52.386277 c -0.51778,0.04569 -1.01642,0.119246 -1.42393,0.21483 -0.4075,0.09558 -0.72215,0.213075 -0.89903,0.340191 -0.17688,0.127117 -0.21467,0.263626 -0.1087,0.394568 0.10595,0.130948 0.35617,0.255997 0.71367,0.361927 0.35752,0.105934 0.82187,0.192423 1.3254,0.25189 0.50352,0.05946 1.04494,0.09169 1.54582,0.09694 0.5009,0.0052 0.95953,-0.01651 1.30993,-0.05718 0.35038,-0.0407 0.59085,-0.100165 0.68731,-0.164955 0.0964,-0.06479 0.0477,-0.13463 -0.13822,-0.194588 -0.18598,-0.05995 -0.50945,-0.109712 -0.92293,-0.137323 -0.41349,-0.02761 -0.91625,-0.03275 -1.43517,-0.01007 -0.51894,0.02273 -1.05258,0.07348 -1.52377,0.149618 -0.47117,0.07614 -0.87814,0.177665 -1.16248,0.294578 -0.28434,0.11692 -0.44449,0.249047 -0.45804,0.382037 -0.0135,0.132986 0.12044,0.266537 0.38163,0.386159 0.26124,0.119618 0.64971,0.224974 1.10862,0.305735 0.45891,0.08076 0.98725,0.136638 1.50836,0.164507 0.5211,0.02787 1.03333,0.02761 1.46279,0.0041 0.42944,-0.02343 0.77435,-0.06995 0.98539,-0.127947 0.21102,-0.05799 0.28677,-0.127229 0.21708,-0.192844 -0.0697,-0.06561 -0.28545,-0.1273 -0.61529,-0.171353 -0.32984,-0.04406 -0.77342,-0.07016 -1.26605,-0.06982 -0.49261,3.27e-4 -1.03306,0.02736 -1.54303,0.08177 -0.50995,0.05444 -0.98772,0.136388 -1.36449,0.238677 -0.37676,0.102289 -0.65081,0.224815 -0.78314,0.354576 -0.13234,0.129759 -0.12182,0.266504 0.0295,0.39525 0.15117,0.128748 0.44324,0.249156 0.83327,0.348699 0.39004,0.09954 0.87739,0.177889 1.39115,0.228655 0.51375,0.05073 1.05251,0.07373 1.53833,0.07057 0.48581,-0.003 0.91693,-0.03256 1.23138,-0.0789 0.31447,-0.04637 0.51066,-0.10958 0.56092,-0.175628 0.0502,-0.06605 -0.0464,-0.134641 -0.27513,-0.191052 -0.22878,-0.05642 -0.58972,-0.100309 -1.02998,-0.120627 -0.44027,-0.02033 -0.95896,-0.01677 -1.48075,0.01487 -0.52178,0.03158 -1.04511,0.09142 -1.49438,0.175429 -0.44926,0.08401 -0.82272,0.192213 -1.06684,0.313645 -0.24414,0.121431 -0.35748,0.255904 -0.32439,0.388726 0.0331,0.132823 0.21333,0.263683 0.51386,0.378498 0.30053,0.114821 0.72114,0.213257 1.2004,0.28599 0.47926,0.07273 1.01607,0.119498 1.53256,0.138502 0.5165,0.019 1.01104,0.01019 1.4123,-0.02042 0.40126,-0.03052 0.70752,-0.08263 0.87509,-0.143861 0.16757,-0.06122 0.19516,-0.131345 0.0796,-0.195378 -0.11557,-0.06403 -0.37483,-0.121649 -0.73947,-0.159769 -0.36463,-0.0381 -0.83415,-0.0564 -1.34019,-0.04752 -0.50603,0.0089 -1.04724,0.04514 -1.54527,0.108177 -0.49804,0.06305 -0.95116,0.152969 -1.29417,0.261411 -0.34302,0.108441 -0.57428,0.235289 -0.66101,0.366923 -0.0867,0.131635 -0.0279,0.267788 0.16729,0.393571 0.19516,0.125782 0.52678,0.240862 0.9462,0.333482 0.41944,0.09261 0.92591,0.162464 1.44579,0.204388 0.51987,0.04193 1.05168,0.05576 1.51855,0.04441 0.46686,-0.01139 0.867,-0.04778 1.14301,-0.09921 0.27601,-0.05141 0.42638,-0.117591 0.43006,-0.184105 0.004,-0.0665 -0.14014,-0.133045 -0.40986,-0.185193 -0.26975,-0.05215 -0.66529,-0.08958 -1.1288,-0.102156 -0.46353,-0.01258 -0.99402,-3.7e-5 -1.51448,0.0405 -0.52048,0.04055 -1.02931,0.10916 -1.45308,0.200636 -0.42378,0.09147 -0.76074,0.205753 -0.96271,0.330999 -0.20196,0.125248 -0.26758,0.261253 -0.18812,0.393114 0.0795,0.131859 0.30457,0.25925 0.64199,0.368614 0.33743,0.109364 0.7868,0.200355 1.28259,0.264753 0.49578,0.06439 1.03676,0.10194 1.54453,0.112194 0.50778,0.01031 0.98066,-0.0068 1.35052,-0.04406 0.36987,-0.03714 0.63504,-0.09411 0.75781,-0.157824 0.12282,-0.06372 0.10195,-0.133891 -0.0586,-0.195561 -0.16058,-0.06167 -0.46123,-0.114497 -0.85774,-0.146107 -0.39651,-0.03158 -0.88824,-0.04168 -1.40363,-0.02408 -0.5154,0.01762 -1.05305,0.06308 -1.53518,0.134525 -0.48212,0.07144 -0.90697,0.168862 -1.2135,0.282857 -0.30652,0.114005 -0.49315,0.244422 -0.53358,0.377141 -0.0405,0.132727 0.0662,0.267458 0.30384,0.389542 0.23759,0.122084 0.6061,0.231174 1.05158,0.316396 0.44549,0.08521 0.96701,0.146276 1.48888,0.179295 0.52185,0.03301 1.04245,0.03785 1.48662,0.0187 0.44418,-0.01911 0.81016,-0.06214 1.04553,-0.117927 0.23536,-0.05579 0.33868,-0.124141 0.29575,-0.190312 -0.043,-0.06617 -0.23278,-0.129853 -0.54133,-0.177059 -0.30854,-0.04722 -0.73551,-0.07761 -1.2186,-0.08208 -0.48308,-0.0046 -1.02112,0.01722 -1.53611,0.06659 -0.51501,0.04936 -1.00529,0.126557 -1.40017,0.225039 -0.39488,0.09848 -0.69266,0.218184 -0.85085,0.346513 -0.1582,0.128324 -0.17556,0.265038 -0.0504,0.395144 0.12519,0.130112 0.39336,0.253286 0.765,0.356584 0.37162,0.103296 0.84616,0.186395 1.3545,0.242202 0.0924,0.01015 0.18596,0.01939 0.28008,0.02773"
         style="fill:none;fill-opacity:1;fill-rule:evenodd;stroke:#000000;stroke-width:0.3;stroke-linecap:round;stroke-linejoin:round;stroke-miterlimit:4;stroke-dasharray:none;stroke-dashoffset:0;stroke-opacity:1;paint-order:stroke fill markers"
         inkscape:export-filename="C:\Users\Admin\Desktop\BACKUPn\Malvicino, M. R. (2020). Super apunte de Electricidad y Magnetismo\PNG\Transformer.png"
         inkscape:export-xdpi="300"
         inkscape:export-ydpi="300" />
      <circle
         r="0.8018086"
         cy="38.441307"
         cx="-79.168839"
         id="circle1313-6-6-5"
         style="fill:#000000;fill-opacity:1;fill-rule:evenodd;stroke:none;stroke-width:0.3;stroke-linecap:round;stroke-linejoin:round;stroke-miterlimit:4;stroke-dasharray:none;stroke-dashoffset:0;stroke-opacity:1;paint-order:stroke fill markers"
         transform="scale(-1,1)"
         inkscape:export-filename="C:\Users\Admin\Desktop\BACKUPn\Malvicino, M. R. (2020). Super apunte de Electricidad y Magnetismo\PNG\Transformer.png"
         inkscape:export-xdpi="300"
         inkscape:export-ydpi="300" />
      <path
         style="fill:none;stroke:#000000;stroke-width:0.3;stroke-linecap:round;stroke-linejoin:round;stroke-miterlimit:4;stroke-dasharray:none;stroke-opacity:1;paint-order:stroke fill markers"
         d="M 63.77924,52.386277 V 38.441317 H 79.16885"
         id="path1317-2-7-6"
         inkscape:connector-curvature="0"
         sodipodi:nodetypes="ccc"
         inkscape:export-filename="C:\Users\Admin\Desktop\BACKUPn\Malvicino, M. R. (2020). Super apunte de Electricidad y Magnetismo\PNG\Transformer.png"
         inkscape:export-xdpi="300"
         inkscape:export-ydpi="300" />
      <circle
         transform="scale(-1)"
         style="fill:#000000;fill-opacity:1;fill-rule:evenodd;stroke:none;stroke-width:0.3;stroke-linecap:round;stroke-linejoin:round;stroke-miterlimit:4;stroke-dasharray:none;stroke-dashoffset:0;stroke-opacity:1;paint-order:stroke fill markers"
         id="circle3983"
         cx="-79.168793"
         cy="-75.941185"
         r="0.8018086"
         inkscape:export-filename="C:\Users\Admin\Desktop\BACKUPn\Malvicino, M. R. (2020). Super apunte de Electricidad y Magnetismo\PNG\Transformer.png"
         inkscape:export-xdpi="300"
         inkscape:export-ydpi="300" />
      <circle
         r="4.7247024"
         cy="57.191227"
         cx="104.63847"
         id="circle3997"
         style="fill:none;fill-opacity:1;fill-rule:evenodd;stroke:#000000;stroke-width:0.3;stroke-linecap:round;stroke-linejoin:round;stroke-miterlimit:4;stroke-dasharray:none;stroke-dashoffset:0;stroke-opacity:1;paint-order:stroke fill markers"
         inkscape:export-filename="C:\Users\Admin\Desktop\BACKUPn\Malvicino, M. R. (2020). Super apunte de Electricidad y Magnetismo\PNG\Transformer.png"
         inkscape:export-xdpi="300"
         inkscape:export-ydpi="300" />
      <path
         sodipodi:nodetypes="ccscc"
         inkscape:connector-curvature="0"
         id="path3999"
         d="m 107.27642,57.191227 c -0.19427,1.218523 -0.59053,2.216686 -1.31897,2.216684 -0.72845,2e-6 -0.9888,-1.255573 -1.31898,-2.216684 -0.31088,-0.90496 -0.59052,-2.216685 -1.31897,-2.216684 -0.72844,-10e-7 -1.13256,1.047515 -1.31897,2.216684"
         style="fill:none;fill-opacity:1;fill-rule:evenodd;stroke:#000000;stroke-width:0.3;stroke-linecap:round;stroke-linejoin:round;stroke-miterlimit:4;stroke-dasharray:none;stroke-dashoffset:0;stroke-opacity:1;paint-order:stroke fill markers"
         inkscape:export-filename="C:\Users\Admin\Desktop\BACKUPn\Malvicino, M. R. (2020). Super apunte de Electricidad y Magnetismo\PNG\Transformer.png"
         inkscape:export-xdpi="300"
         inkscape:export-ydpi="300" />
      <circle
         r="0.8018086"
         cy="38.441299"
         cx="-84.64946"
         id="circle4013"
         style="fill:#000000;fill-opacity:1;fill-rule:evenodd;stroke:none;stroke-width:0.3;stroke-linecap:round;stroke-linejoin:round;stroke-miterlimit:4;stroke-dasharray:none;stroke-dashoffset:0;stroke-opacity:1;paint-order:stroke fill markers"
         transform="scale(-1,1)"
         inkscape:export-filename="C:\Users\Admin\Desktop\BACKUPn\Malvicino, M. R. (2020). Super apunte de Electricidad y Magnetismo\PNG\Transformer.png"
         inkscape:export-xdpi="300"
         inkscape:export-ydpi="300" />
      <circle
         r="0.8018086"
         cy="75.94117"
         cx="-84.64946"
         id="circle4015"
         style="fill:#000000;fill-opacity:1;fill-rule:evenodd;stroke:none;stroke-width:0.3;stroke-linecap:round;stroke-linejoin:round;stroke-miterlimit:4;stroke-dasharray:none;stroke-dashoffset:0;stroke-opacity:1;paint-order:stroke fill markers"
         transform="scale(-1,1)"
         inkscape:export-filename="C:\Users\Admin\Desktop\BACKUPn\Malvicino, M. R. (2020). Super apunte de Electricidad y Magnetismo\PNG\Transformer.png"
         inkscape:export-xdpi="300"
         inkscape:export-ydpi="300" />
      <path
         inkscape:connector-curvature="0"
         id="path4017"
         d="m 84.64946,38.441307 h 20 v 14.02523"
         style="fill:none;stroke:#000000;stroke-width:0.3;stroke-linecap:round;stroke-linejoin:round;stroke-miterlimit:4;stroke-dasharray:none;stroke-opacity:1;paint-order:stroke fill markers"
         inkscape:export-filename="C:\Users\Admin\Desktop\BACKUPn\Malvicino, M. R. (2020). Super apunte de Electricidad y Magnetismo\PNG\Transformer.png"
         inkscape:export-xdpi="300"
         inkscape:export-ydpi="300" />
      <path
         inkscape:connector-curvature="0"
         id="path4019"
         d="m 104.64946,61.915947 v 14.02523 h -20"
         style="fill:none;stroke:#000000;stroke-width:0.3;stroke-linecap:round;stroke-linejoin:round;stroke-miterlimit:4;stroke-dasharray:none;stroke-opacity:1;paint-order:stroke fill markers"
         inkscape:export-filename="C:\Users\Admin\Desktop\BACKUPn\Malvicino, M. R. (2020). Super apunte de Electricidad y Magnetismo\PNG\Transformer.png"
         inkscape:export-xdpi="300"
         inkscape:export-ydpi="300" />
      <path
         style="fill:none;stroke:#000000;stroke-width:0.2;stroke-linecap:round;stroke-linejoin:round;stroke-miterlimit:4;stroke-dasharray:none;stroke-opacity:1;paint-order:stroke fill markers"
         d="m 79.16882,75.941187 5.48066,-0.801809"
         id="path1321-3-6-7"
         inkscape:connector-curvature="0"
         inkscape:export-filename="C:\Users\Admin\Desktop\BACKUPn\Malvicino, M. R. (2020). Super apunte de Electricidad y Magnetismo\PNG\Transformer.png"
         inkscape:export-xdpi="300"
         inkscape:export-ydpi="300" />
      <path
         style="fill:none;stroke:#000000;stroke-width:0.2;stroke-linecap:round;stroke-linejoin:round;stroke-miterlimit:4;stroke-dasharray:none;stroke-opacity:1;paint-order:stroke fill markers"
         d="m 79.16885,38.441317 5.48065,-0.80181"
         id="path1323-8-6-9"
         inkscape:connector-curvature="0"
         inkscape:export-filename="C:\Users\Admin\Desktop\BACKUPn\Malvicino, M. R. (2020). Super apunte de Electricidad y Magnetismo\PNG\Transformer.png"
         inkscape:export-xdpi="300"
         inkscape:export-ydpi="300" />
      <path
         style="fill:none;stroke:#000000;stroke-width:0.3;stroke-linecap:round;stroke-linejoin:round;stroke-miterlimit:4;stroke-dasharray:none;stroke-opacity:1"
         d="m 63.77113,61.963737 v 13.97745 h 15.39769"
         id="path4143"
         inkscape:connector-curvature="0"
         inkscape:export-filename="C:\Users\Admin\Desktop\BACKUPn\Malvicino, M. R. (2020). Super apunte de Electricidad y Magnetismo\PNG\Transformer.png"
         inkscape:export-xdpi="300"
         inkscape:export-ydpi="300" />
    </g>
  </g>
</svg>
