<?xml version="1.0" encoding="UTF-8" standalone="no"?>
<!-- Created with Inkscape (http://www.inkscape.org/) -->

<svg
   width="100mm"
   height="40mm"
   viewBox="0 0 100 40"
   version="1.1"
   id="svg16083"
   inkscape:version="1.1 (c68e22c387, 2021-05-23)"
   sodipodi:docname="trifasica-graph.svg"
   xmlns:inkscape="http://www.inkscape.org/namespaces/inkscape"
   xmlns:sodipodi="http://sodipodi.sourceforge.net/DTD/sodipodi-0.dtd"
   xmlns="http://www.w3.org/2000/svg"
   xmlns:svg="http://www.w3.org/2000/svg">
  <sodipodi:namedview
     id="namedview16085"
     pagecolor="#ffffff"
     bordercolor="#666666"
     borderopacity="1.0"
     inkscape:pageshadow="2"
     inkscape:pageopacity="0.0"
     inkscape:pagecheckerboard="0"
     inkscape:document-units="mm"
     showgrid="false"
     inkscape:zoom="1.3416246"
     inkscape:cx="152.42714"
     inkscape:cy="139.01057"
     inkscape:window-width="1366"
     inkscape:window-height="705"
     inkscape:window-x="-8"
     inkscape:window-y="-8"
     inkscape:window-maximized="1"
     inkscape:current-layer="layer1" />
  <defs
     id="defs16080" />
  <g
     inkscape:label="Layer 1"
     inkscape:groupmode="layer"
     id="layer1">
    <path
       inkscape:connector-curvature="0"
       id="path7816-3-17"
       d="M 13.728455,5.1663 V 34.8337"
       style="fill:none;stroke:#000000;stroke-width:0.2;stroke-linecap:round;stroke-linejoin:round;stroke-miterlimit:4;stroke-dasharray:none;stroke-opacity:1"
       inkscape:export-filename="C:\Backup\Academic\My Notes\Super Apunte EyM\PNG\TriphasicGraph.png"
       inkscape:export-xdpi="300"
       inkscape:export-ydpi="300" />
    <path
       inkscape:connector-curvature="0"
       id="path7818-0-1"
       d="m 2.932305,20 h 94.13539"
       style="fill:none;stroke:#000000;stroke-width:0.2;stroke-linecap:round;stroke-linejoin:round;stroke-miterlimit:4;stroke-dasharray:none;stroke-opacity:1"
       inkscape:export-filename="C:\Backup\Academic\My Notes\Super Apunte EyM\PNG\TriphasicGraph.png"
       inkscape:export-xdpi="300"
       inkscape:export-ydpi="300" />
    <path
       style="fill:none;fill-opacity:1;fill-rule:evenodd;stroke:#000000;stroke-width:0.3;stroke-linecap:round;stroke-linejoin:round;stroke-miterlimit:4;stroke-dasharray:none;stroke-dashoffset:0;stroke-opacity:1;paint-order:stroke fill markers"
       d="m 13.728455,20 c 0.29073,-0.81803 0.58144,-1.63365 0.87216,-2.43472 0.29069,-0.80078 0.58142,-1.5871 0.87214,-2.34497 0.29073,-0.75767 0.58143,-1.48739 0.87215,-2.17648 0.29071,-0.6887 0.58143,-1.33776 0.87214,-1.93509 0.29073,-0.59772 0.58144,-1.14313 0.87215,-1.62858 0.29071,-0.48564 0.58142,-0.90997 0.87215,-1.26755 0.29072,-0.35728 0.58143,-0.64656 0.87214,-0.86399 0.29072,-0.21745 0.58143,-0.36208 0.87216,-0.43106 0.29071,-0.0671 0.58142,-0.0671 0.87213,0.0192 0.29073,0.0766 0.58143,0.23467 0.87216,0.46169 0.2907,0.22701 0.58142,0.52682 0.87215,0.89273 0.29072,0.36687 0.58142,0.80078 0.87215,1.29409 0.2907,0.49331 0.58142,1.04743 0.87213,1.65165 0.29071,0.60442 0.58144,1.25932 0.87214,1.95397 0.29072,0.69445 0.58143,1.42886 0.87216,2.19054 0.29072,0.76153 0.58145,1.55062 0.87215,2.35369 0.29072,0.80271 0.58143,1.62033 0.87214,2.43798 0.29071,0.81802 0.58143,1.63566 0.87214,2.44037 0.29072,0.80462 0.58143,1.59609 0.87216,2.36097 0.29071,0.76533 0.58142,1.50299 0.87215,2.20232 0.29072,0.69925 0.58143,1.35942 0.87214,1.96977 0.29072,0.61016 0.58143,1.17034 0.87214,1.67111 0.29071,0.50098 0.58144,0.94158 0.87214,1.3165 0.29072,0.37452 0.58143,0.682 0.87215,0.91763 0.29071,0.23564 0.58145,0.39945 0.87215,0.48853 0.29073,0.0863 0.58144,0.10249 0.87216,0.0382 0.29071,-0.0575 0.58144,-0.19732 0.87214,-0.40518 0.29071,-0.20882 0.58142,-0.49044 0.87213,-0.83909 0.29073,-0.34964 0.58142,-0.76631 0.87215,-1.24476 0.29073,-0.47798 0.58145,-1.01766 0.87216,-1.60876 0.29072,-0.59099 0.58142,-1.2344 0.87215,-1.91862 0.29071,-0.68391 0.58143,-1.40978 0.87214,-2.16419 0.29071,-0.75481 0.58142,-1.53788 0.87214,-2.33722 0.29071,-0.79887 0.58144,-1.6144 0.87216,-2.43165 0.29072,-0.81706 0.58143,-1.63681 0.87215,-2.44467 0.29071,-0.8075 0.58142,-1.60425 0.87214,-2.37563 0.2907,-0.77108 0.58143,-1.51784 0.87214,-2.22695 0.29072,-0.70883 0.58142,-1.38049 0.87214,-2.00339 0.29072,-0.62261 0.58145,-1.19696 0.87216,-1.71278 0.29072,-0.51628 0.58142,-0.97319 0.87215,-1.36467 0.29071,-0.39178 0.58143,-0.71649 0.87214,-0.97081 0.29073,-0.25383 0.58143,-0.43582 0.87215,-0.54406 0.29071,-0.10825 0.58143,-0.14177 0.87215,-0.0995 0.2907,0.0383 0.58143,0.159 0.87213,0.34866 0.29073,0.18967 0.58144,0.45307 0.87216,0.78451 0.2907,0.33142 0.58143,0.73276 0.87214,1.19494 0.29072,0.46263 0.58143,0.98707 0.87215,1.56487 0.29072,0.57759 0.58144,1.20874 0.87215,1.88231 0.29072,0.67339 0.58143,1.38978 0.87215,2.13664 0.29071,0.74713 0.58143,1.52426 0.87214,2.31928 0.29071,0.79504 0.58142,1.6076 0.87213,2.4241 0.29073,0.81608 0.58145,1.63689 0.87218,2.44754 0.29071,0.81035 0.58142,1.61143 0.87212,2.38903 0.29073,0.7778 0.58144,1.53182 0.87216,2.25023 0.2907,0.71841 0.58143,1.40089 0.87214,2.03606 0.29072,0.63506 0.58143,1.2228 0.87216,1.75346 0.29071,0.53067 0.58144,1.00386 0.87215,1.41211 0.29072,0.40805 0.58143,0.75096 0.87213,1.0233 0.29071,0.27203 0.58142,0.47318 0.87215,0.60057 0.29071,0.12735 0.58143,0.17912 0.87213,0.15711 0.29073,-0.0192 0.58144,-0.12068 0.87218,-0.29122 0.29071,-0.17146 0.58142,-0.41571 0.87213,-0.72989 0.29073,-0.31418 0.58144,-0.69732 0.87216,-1.14427 0.2907,-0.44636 0.58142,-0.95595 0.87212,-1.52015 0.29073,-0.56417 0.58144,-1.18248 0.87216,-1.84494 0.2907,-0.66286 0.58143,-1.36918 0.87215,-2.1079 0.29071,-0.73851 0.58144,-1.5099 0.87215,-2.30013 0.29071,-0.79025 0.58142,-1.59993 0.87215,-2.41518 0.1485,-0.41639 0.297,-0.83434 0.4455,-1.25197"
       id="path3223"
       inkscape:connector-curvature="0"
       inkscape:export-filename="C:\Backup\Academic\My Notes\Super Apunte EyM\PNG\TriphasicGraph.png"
       inkscape:export-xdpi="300"
       inkscape:export-ydpi="300" />
    <circle
       r="0.8018086"
       cy="20.000002"
       cx="13.728464"
       id="circle1315-6-4-5"
       style="fill:#000000;fill-opacity:1;fill-rule:evenodd;stroke:none;stroke-width:0.3;stroke-linecap:round;stroke-linejoin:round;stroke-miterlimit:4;stroke-dasharray:none;stroke-dashoffset:0;stroke-opacity:1;paint-order:stroke fill markers"
       inkscape:export-filename="C:\Backup\Academic\My Notes\Super Apunte EyM\PNG\TriphasicGraph.png"
       inkscape:export-xdpi="300"
       inkscape:export-ydpi="300" />
    <circle
       style="fill:#000000;fill-opacity:1;fill-rule:evenodd;stroke:none;stroke-width:0.3;stroke-linecap:round;stroke-linejoin:round;stroke-miterlimit:4;stroke-dasharray:none;stroke-dashoffset:0;stroke-opacity:1;paint-order:stroke fill markers"
       id="circle3217"
       cx="43.605175"
       cy="20.000002"
       r="0.8018086"
       inkscape:export-filename="C:\Backup\Academic\My Notes\Super Apunte EyM\PNG\TriphasicGraph.png"
       inkscape:export-xdpi="300"
       inkscape:export-ydpi="300" />
    <circle
       r="0.8018086"
       cy="20.005648"
       cx="73.479927"
       id="circle3219"
       style="fill:#000000;fill-opacity:1;fill-rule:evenodd;stroke:none;stroke-width:0.3;stroke-linecap:round;stroke-linejoin:round;stroke-miterlimit:4;stroke-dasharray:none;stroke-dashoffset:0;stroke-opacity:1;paint-order:stroke fill markers"
       inkscape:export-filename="C:\Backup\Academic\My Notes\Super Apunte EyM\PNG\TriphasicGraph.png"
       inkscape:export-xdpi="300"
       inkscape:export-ydpi="300" />
    <path
       inkscape:connector-curvature="0"
       id="path3251"
       d="m 23.728455,20 c 0.29073,-0.81803 0.58144,-1.63365 0.87216,-2.43472 0.29069,-0.80078 0.58142,-1.5871 0.87214,-2.34497 0.29073,-0.75767 0.58143,-1.48739 0.87215,-2.17648 0.29071,-0.6887 0.58143,-1.33776 0.87214,-1.93509 0.29073,-0.59772 0.58144,-1.14313 0.87215,-1.62858 0.29071,-0.48564 0.58142,-0.90997 0.87215,-1.26755 0.29072,-0.35728 0.58143,-0.64656 0.87214,-0.86399 0.29072,-0.21745 0.58143,-0.36208 0.87216,-0.43106 0.29071,-0.0671 0.58142,-0.0671 0.87213,0.0192 0.29073,0.0766 0.58143,0.23467 0.87216,0.46169 0.2907,0.22701 0.58142,0.52682 0.87215,0.89273 0.29072,0.36687 0.58142,0.80078 0.87215,1.29409 0.2907,0.49331 0.58142,1.04743 0.87213,1.65165 0.29071,0.60442 0.58144,1.25932 0.87214,1.95397 0.29072,0.69445 0.58143,1.42886 0.87216,2.19054 0.29072,0.76153 0.58145,1.55062 0.87215,2.35369 0.29072,0.80271 0.58143,1.62033 0.87214,2.43798 0.29071,0.81802 0.58143,1.63566 0.87214,2.44037 0.29072,0.80462 0.58143,1.59609 0.87216,2.36097 0.29071,0.76533 0.58142,1.50299 0.87215,2.20232 0.29072,0.69925 0.58143,1.35942 0.87214,1.96977 0.29072,0.61016 0.58143,1.17034 0.87214,1.67111 0.29071,0.50098 0.58144,0.94158 0.87214,1.3165 0.29072,0.37452 0.58143,0.682 0.87215,0.91763 0.29071,0.23564 0.58145,0.39945 0.87215,0.48853 0.29073,0.0863 0.58144,0.10249 0.87216,0.0382 0.29071,-0.0575 0.58144,-0.19732 0.87214,-0.40518 0.29071,-0.20882 0.58142,-0.49044 0.87213,-0.83909 0.29073,-0.34964 0.58142,-0.76631 0.87215,-1.24476 0.29073,-0.47798 0.58145,-1.01766 0.87216,-1.60876 0.29072,-0.59099 0.58142,-1.2344 0.87215,-1.91862 0.29071,-0.68391 0.58143,-1.40978 0.87214,-2.16419 0.29071,-0.75481 0.58142,-1.53788 0.87214,-2.33722 0.29071,-0.79887 0.58144,-1.6144 0.87216,-2.43165 0.29072,-0.81706 0.58143,-1.63681 0.87215,-2.44467 0.29071,-0.8075 0.58142,-1.60425 0.87214,-2.37563 0.2907,-0.77108 0.58143,-1.51784 0.87214,-2.22695 0.29072,-0.70883 0.58142,-1.38049 0.87214,-2.00339 0.29072,-0.62261 0.58145,-1.19696 0.87216,-1.71278 0.29072,-0.51628 0.58142,-0.97319 0.87215,-1.36467 0.29071,-0.39178 0.58143,-0.71649 0.87214,-0.97081 0.29073,-0.25383 0.58143,-0.43582 0.87215,-0.54406 0.29071,-0.10825 0.58143,-0.14177 0.87215,-0.0995 0.2907,0.0383 0.58143,0.159 0.87213,0.34866 0.29073,0.18967 0.58144,0.45307 0.87216,0.78451 0.2907,0.33142 0.58143,0.73276 0.87214,1.19494 0.29072,0.46263 0.58143,0.98707 0.87215,1.56487 0.29072,0.57759 0.58144,1.20874 0.87215,1.88231 0.29072,0.67339 0.58143,1.38978 0.87215,2.13664 0.29071,0.74713 0.58143,1.52426 0.87214,2.31928 0.29071,0.79504 0.58142,1.6076 0.87213,2.4241 0.29073,0.81608 0.58145,1.63689 0.87218,2.44754 0.29071,0.81035 0.58142,1.61143 0.87212,2.38903 0.29073,0.7778 0.58144,1.53182 0.87216,2.25023 0.2907,0.71841 0.58143,1.40089 0.87214,2.03606 0.29072,0.63506 0.58143,1.2228 0.87216,1.75346 0.29071,0.53067 0.58144,1.00386 0.87215,1.41211 0.29072,0.40805 0.58143,0.75096 0.87213,1.0233 0.29071,0.27203 0.58142,0.47318 0.87215,0.60057 0.29071,0.12735 0.58143,0.17912 0.87213,0.15711 0.29073,-0.0192 0.58144,-0.12068 0.87218,-0.29122 0.29071,-0.17146 0.58142,-0.41571 0.87213,-0.72989 0.29073,-0.31418 0.58144,-0.69732 0.87216,-1.14427 0.2907,-0.44636 0.58142,-0.95595 0.87212,-1.52015 0.29073,-0.56417 0.58144,-1.18248 0.87216,-1.84494 0.2907,-0.66286 0.58143,-1.36918 0.87215,-2.1079 0.29071,-0.73851 0.58144,-1.5099 0.87215,-2.30013 0.29071,-0.79025 0.58142,-1.59993 0.87215,-2.41518 0.1485,-0.41639 0.297,-0.83434 0.4455,-1.25197"
       style="fill:none;fill-opacity:1;fill-rule:evenodd;stroke:#000000;stroke-width:0.3;stroke-linecap:round;stroke-linejoin:round;stroke-miterlimit:4;stroke-dasharray:none;stroke-dashoffset:0;stroke-opacity:0.588235;paint-order:stroke fill markers"
       inkscape:export-filename="C:\Backup\Academic\My Notes\Super Apunte EyM\PNG\TriphasicGraph.png"
       inkscape:export-xdpi="300"
       inkscape:export-ydpi="300" />
    <path
       style="fill:none;fill-opacity:1;fill-rule:evenodd;stroke:#000000;stroke-width:0.3;stroke-linecap:round;stroke-linejoin:round;stroke-miterlimit:4;stroke-dasharray:none;stroke-dashoffset:0;stroke-opacity:0.196078;paint-order:stroke fill markers"
       d="m 33.728455,20 c 0.29073,-0.81803 0.58144,-1.63365 0.87216,-2.43472 0.29069,-0.80078 0.58142,-1.5871 0.87214,-2.34497 0.29073,-0.75767 0.58143,-1.48739 0.87215,-2.17648 0.29071,-0.6887 0.58143,-1.33776 0.87214,-1.93509 0.29073,-0.59772 0.58144,-1.14313 0.87215,-1.62858 0.29071,-0.48564 0.58142,-0.90997 0.87215,-1.26755 0.29072,-0.35728 0.58143,-0.64656 0.87214,-0.86399 0.29072,-0.21745 0.58143,-0.36208 0.87216,-0.43106 0.29071,-0.0671 0.58142,-0.0671 0.87213,0.0192 0.29073,0.0766 0.58143,0.23467 0.87216,0.46169 0.2907,0.22701 0.58142,0.52682 0.87215,0.89273 0.29072,0.36687 0.58142,0.80078 0.87215,1.29409 0.2907,0.49331 0.58142,1.04743 0.87213,1.65165 0.29071,0.60442 0.58144,1.25932 0.87214,1.95397 0.29072,0.69445 0.58143,1.42886 0.87216,2.19054 0.29072,0.76153 0.58145,1.55062 0.87215,2.35369 0.29072,0.80271 0.58143,1.62033 0.87214,2.43798 0.29071,0.81802 0.58143,1.63566 0.87214,2.44037 0.29072,0.80462 0.58143,1.59609 0.87216,2.36097 0.29071,0.76533 0.58142,1.50299 0.87215,2.20232 0.29072,0.69925 0.58143,1.35942 0.87214,1.96977 0.29072,0.61016 0.58143,1.17034 0.87214,1.67111 0.29071,0.50098 0.58144,0.94158 0.87214,1.3165 0.29072,0.37452 0.58143,0.682 0.87215,0.91763 0.29071,0.23564 0.58145,0.39945 0.87215,0.48853 0.29073,0.0863 0.58144,0.10249 0.87216,0.0382 0.29071,-0.0575 0.58144,-0.19732 0.87214,-0.40518 0.29071,-0.20882 0.58142,-0.49044 0.87213,-0.83909 0.29073,-0.34964 0.58142,-0.76631 0.87215,-1.24476 0.29073,-0.47798 0.58145,-1.01766 0.87216,-1.60876 0.29072,-0.59099 0.58142,-1.2344 0.87215,-1.91862 0.29071,-0.68391 0.58143,-1.40978 0.87214,-2.16419 0.29071,-0.75481 0.58142,-1.53788 0.87214,-2.33722 0.29071,-0.79887 0.58144,-1.6144 0.87216,-2.43165 0.29072,-0.81706 0.58143,-1.63681 0.87215,-2.44467 0.29071,-0.8075 0.58142,-1.60425 0.87214,-2.37563 0.2907,-0.77108 0.58143,-1.51784 0.87214,-2.22695 0.29072,-0.70883 0.58142,-1.38049 0.87214,-2.00339 0.29072,-0.62261 0.58145,-1.19696 0.87216,-1.71278 0.29072,-0.51628 0.58142,-0.97319 0.87215,-1.36467 0.29071,-0.39178 0.58143,-0.71649 0.87214,-0.97081 0.29073,-0.25383 0.58143,-0.43582 0.87215,-0.54406 0.29071,-0.10825 0.58143,-0.14177 0.87215,-0.0995 0.2907,0.0383 0.58143,0.159 0.87213,0.34866 0.29073,0.18967 0.58144,0.45307 0.87216,0.78451 0.2907,0.33142 0.58143,0.73276 0.87214,1.19494 0.29072,0.46263 0.58143,0.98707 0.87215,1.56487 0.29072,0.57759 0.58144,1.20874 0.87215,1.88231 0.29072,0.67339 0.58143,1.38978 0.87215,2.13664 0.29071,0.74713 0.58143,1.52426 0.87214,2.31928 0.29071,0.79504 0.58142,1.6076 0.87213,2.4241 0.29073,0.81608 0.58145,1.63689 0.87218,2.44754 0.29071,0.81035 0.58142,1.61143 0.87212,2.38903 0.29073,0.7778 0.58144,1.53182 0.87216,2.25023 0.2907,0.71841 0.58143,1.40089 0.87214,2.03606 0.29072,0.63506 0.58143,1.2228 0.87216,1.75346 0.29071,0.53067 0.58144,1.00386 0.87215,1.41211 0.29072,0.40805 0.58143,0.75096 0.87213,1.0233 0.29071,0.27203 0.58142,0.47318 0.87215,0.60057 0.29071,0.12735 0.58143,0.17912 0.87213,0.15711 0.29073,-0.0192 0.58144,-0.12068 0.87218,-0.29122 0.29071,-0.17146 0.58142,-0.41571 0.87213,-0.72989 0.29073,-0.31418 0.58144,-0.69732 0.87216,-1.14427 0.2907,-0.44636 0.58142,-0.95595 0.87212,-1.52015 0.29073,-0.56417 0.58144,-1.18248 0.87216,-1.84494 0.2907,-0.66286 0.58143,-1.36918 0.87215,-2.1079 0.29071,-0.73851 0.58144,-1.5099 0.87215,-2.30013 0.29071,-0.79025 0.58142,-1.59993 0.87215,-2.41518 0.1485,-0.41639 0.297,-0.83434 0.4455,-1.25197"
       id="path3253"
       inkscape:connector-curvature="0"
       inkscape:export-filename="C:\Backup\Academic\My Notes\Super Apunte EyM\PNG\TriphasicGraph.png"
       inkscape:export-xdpi="300"
       inkscape:export-ydpi="300" />
    <text
       xml:space="preserve"
       style="font-style:normal;font-weight:normal;font-size:4.83006px;line-height:1.25;font-family:sans-serif;fill:#000000;fill-opacity:1;stroke:none;stroke-width:0.264583"
       x="90.909035"
       y="17.777063"
       id="text1519"><tspan
         sodipodi:role="line"
         id="tspan1517"
         style="stroke-width:0.264583"
         x="90.909035"
         y="17.777063">$t$</tspan></text>
    <text
       xml:space="preserve"
       style="font-style:normal;font-weight:normal;font-size:4.83006px;line-height:1.25;font-family:sans-serif;fill:#000000;fill-opacity:1;stroke:none;stroke-width:0.264583"
       x="3.1663425"
       y="10.101255"
       id="text1968"><tspan
         sodipodi:role="line"
         id="tspan1966"
         style="stroke-width:0.264583"
         x="3.1663425"
         y="10.101255">$v_C(t)$</tspan></text>
  </g>
</svg>
